<svg width="32" height="32" viewBox="0 0 32 32" fill="none" xmlns="http://www.w3.org/2000/svg">
<path d="M29.333 22.6666H2.66634C2.31272 22.6666 1.97358 22.8071 1.72353 23.0572C1.47348 23.3072 1.33301 23.6464 1.33301 24C1.33301 24.3536 1.47348 24.6927 1.72353 24.9428C1.97358 25.1928 2.31272 25.3333 2.66634 25.3333H29.333C29.6866 25.3333 30.0258 25.1928 30.2758 24.9428C30.5259 24.6927 30.6663 24.3536 30.6663 24C30.6663 23.6464 30.5259 23.3072 30.2758 23.0572C30.0258 22.8071 29.6866 22.6666 29.333 22.6666ZM29.333 28H2.66634C2.31272 28 1.97358 28.1405 1.72353 28.3905C1.47348 28.6406 1.33301 28.9797 1.33301 29.3333C1.33301 29.6869 1.47348 30.0261 1.72353 30.2761C1.97358 30.5262 2.31272 30.6666 2.66634 30.6666H29.333C29.6866 30.6666 30.0258 30.5262 30.2758 30.2761C30.5259 30.0261 30.6663 29.6869 30.6663 29.3333C30.6663 28.9797 30.5259 28.6406 30.2758 28.3905C30.0258 28.1405 29.6866 28 29.333 28ZM7.99967 9.33331C7.73597 9.33331 7.47818 9.41151 7.25891 9.55802C7.03965 9.70453 6.86875 9.91277 6.76783 10.1564C6.66692 10.4 6.64051 10.6681 6.69196 10.9268C6.74341 11.1854 6.8704 11.423 7.05687 11.6095C7.24334 11.7959 7.48091 11.9229 7.73955 11.9744C7.9982 12.0258 8.26628 11.9994 8.50992 11.8985C8.75355 11.7976 8.96179 11.6267 9.1083 11.4074C9.25481 11.1881 9.33301 10.9304 9.33301 10.6666C9.33301 10.313 9.19253 9.97389 8.94248 9.72384C8.69243 9.47379 8.3533 9.33331 7.99967 9.33331ZM26.6663 1.33331H5.33301C4.27214 1.33331 3.25473 1.75474 2.50458 2.50489C1.75444 3.25503 1.33301 4.27245 1.33301 5.33331V16C1.33301 17.0608 1.75444 18.0783 2.50458 18.8284C3.25473 19.5786 4.27214 20 5.33301 20H26.6663C27.7272 20 28.7446 19.5786 29.4948 18.8284C30.2449 18.0783 30.6663 17.0608 30.6663 16V5.33331C30.6663 4.27245 30.2449 3.25503 29.4948 2.50489C28.7446 1.75474 27.7272 1.33331 26.6663 1.33331ZM27.9997 16C27.9997 16.3536 27.8592 16.6927 27.6091 16.9428C27.3591 17.1928 27.02 17.3333 26.6663 17.3333H5.33301C4.97939 17.3333 4.64025 17.1928 4.3902 16.9428C4.14015 16.6927 3.99967 16.3536 3.99967 16V5.33331C3.99967 4.97969 4.14015 4.64055 4.3902 4.3905C4.64025 4.14046 4.97939 3.99998 5.33301 3.99998H26.6663C27.02 3.99998 27.3591 4.14046 27.6091 4.3905C27.8592 4.64055 27.9997 4.97969 27.9997 5.33331V16ZM15.9997 6.66665C15.2085 6.66665 14.4352 6.90124 13.7774 7.34077C13.1196 7.78029 12.6069 8.40501 12.3042 9.13591C12.0014 9.86682 11.9222 10.6711 12.0765 11.447C12.2309 12.2229 12.6118 12.9357 13.1712 13.4951C13.7307 14.0545 14.4434 14.4354 15.2193 14.5898C15.9952 14.7441 16.7995 14.6649 17.5304 14.3622C18.2613 14.0594 18.886 13.5467 19.3256 12.8889C19.7651 12.2311 19.9997 11.4578 19.9997 10.6666C19.9997 9.60578 19.5782 8.58836 18.8281 7.83822C18.078 7.08807 17.0605 6.66665 15.9997 6.66665ZM15.9997 12C15.736 12 15.4782 11.9218 15.2589 11.7753C15.0396 11.6288 14.8688 11.4205 14.7678 11.1769C14.6669 10.9333 14.6405 10.6652 14.692 10.4065C14.7434 10.1479 14.8704 9.91031 15.0569 9.72384C15.2433 9.53737 15.4809 9.41038 15.7396 9.35893C15.9982 9.30749 16.2663 9.33389 16.5099 9.43481C16.7536 9.53572 16.9618 9.70662 17.1083 9.92589C17.2548 10.1452 17.333 10.4029 17.333 10.6666C17.333 11.0203 17.1925 11.3594 16.9425 11.6095C16.6924 11.8595 16.3533 12 15.9997 12ZM23.9997 9.33331C23.736 9.33331 23.4782 9.41151 23.2589 9.55802C23.0396 9.70453 22.8687 9.91277 22.7678 10.1564C22.6669 10.4 22.6405 10.6681 22.692 10.9268C22.7434 11.1854 22.8704 11.423 23.0569 11.6095C23.2433 11.7959 23.4809 11.9229 23.7396 11.9744C23.9982 12.0258 24.2663 11.9994 24.5099 11.8985C24.7536 11.7976 24.9618 11.6267 25.1083 11.4074C25.2548 11.1881 25.333 10.9304 25.333 10.6666C25.333 10.313 25.1925 9.97389 24.9425 9.72384C24.6924 9.47379 24.3533 9.33331 23.9997 9.33331Z" fill="#FF6664"/>
</svg>
