<svg width="32" height="32" viewBox="0 0 32 32" fill="none" xmlns="http://www.w3.org/2000/svg">
<path d="M15.9997 16C15.2085 16 14.4352 16.2346 13.7774 16.6741C13.1196 17.1137 12.6069 17.7384 12.3042 18.4693C12.0014 19.2002 11.9222 20.0045 12.0765 20.7804C12.2309 21.5563 12.6118 22.269 13.1712 22.8284C13.7307 23.3879 14.4434 23.7688 15.2193 23.9232C15.9952 24.0775 16.7995 23.9983 17.5304 23.6955C18.2613 23.3928 18.886 22.8801 19.3256 22.2223C19.7651 21.5645 19.9997 20.7911 19.9997 20C19.9997 18.9392 19.5782 17.9217 18.8281 17.1716C18.078 16.4214 17.0605 16 15.9997 16ZM15.9997 21.3334C15.736 21.3334 15.4782 21.2552 15.2589 21.1086C15.0396 20.9621 14.8688 20.7539 14.7678 20.5103C14.6669 20.2666 14.6405 19.9985 14.692 19.7399C14.7434 19.4813 14.8704 19.2437 15.0569 19.0572C15.2433 18.8707 15.4809 18.7438 15.7396 18.6923C15.9982 18.6409 16.2663 18.6673 16.5099 18.7682C16.7536 18.8691 16.9618 19.04 17.1083 19.2593C17.2548 19.4785 17.333 19.7363 17.333 20C17.333 20.3536 17.1925 20.6928 16.9425 20.9428C16.6924 21.1929 16.3533 21.3334 15.9997 21.3334ZM15.053 12.9467C15.1798 13.0681 15.3293 13.1632 15.493 13.2267C15.6526 13.2972 15.8252 13.3337 15.9997 13.3337C16.1742 13.3337 16.3467 13.2972 16.5063 13.2267C16.67 13.1632 16.8195 13.0681 16.9463 12.9467L19.9997 9.94669C20.2578 9.68854 20.4028 9.33842 20.4028 8.97335C20.4028 8.60828 20.2578 8.25816 19.9997 8.00002C19.7415 7.74188 19.3914 7.59685 19.0263 7.59685C18.6613 7.59685 18.3112 7.74188 18.053 8.00002L17.333 8.78669V4.00002C17.333 3.6464 17.1925 3.30726 16.9425 3.05721C16.6924 2.80716 16.3533 2.66669 15.9997 2.66669C15.6461 2.66669 15.3069 2.80716 15.0569 3.05721C14.8068 3.30726 14.6663 3.6464 14.6663 4.00002V8.78669L13.9463 8.00002C13.6882 7.74188 13.3381 7.59685 12.973 7.59685C12.6079 7.59685 12.2578 7.74188 11.9997 8.00002C11.7415 8.25816 11.5965 8.60828 11.5965 8.97335C11.5965 9.33842 11.7415 9.68854 11.9997 9.94669L15.053 12.9467ZM25.333 20C25.333 19.7363 25.2548 19.4785 25.1083 19.2593C24.9618 19.04 24.7536 18.8691 24.5099 18.7682C24.2663 18.6673 23.9982 18.6409 23.7396 18.6923C23.4809 18.7438 23.2433 18.8707 23.0569 19.0572C22.8704 19.2437 22.7434 19.4813 22.692 19.7399C22.6405 19.9985 22.6669 20.2666 22.7678 20.5103C22.8687 20.7539 23.0396 20.9621 23.2589 21.1086C23.4782 21.2552 23.736 21.3334 23.9997 21.3334C24.3533 21.3334 24.6924 21.1929 24.9425 20.9428C25.1925 20.6928 25.333 20.3536 25.333 20ZM26.6663 10.6667H22.6663C22.3127 10.6667 21.9736 10.8072 21.7235 11.0572C21.4735 11.3073 21.333 11.6464 21.333 12C21.333 12.3536 21.4735 12.6928 21.7235 12.9428C21.9736 13.1929 22.3127 13.3334 22.6663 13.3334H26.6663C27.02 13.3334 27.3591 13.4738 27.6091 13.7239C27.8592 13.9739 27.9997 14.3131 27.9997 14.6667V25.3334C27.9997 25.687 27.8592 26.0261 27.6091 26.2762C27.3591 26.5262 27.02 26.6667 26.6663 26.6667H5.33301C4.97939 26.6667 4.64025 26.5262 4.3902 26.2762C4.14015 26.0261 3.99967 25.687 3.99967 25.3334V14.6667C3.99967 14.3131 4.14015 13.9739 4.3902 13.7239C4.64025 13.4738 4.97939 13.3334 5.33301 13.3334H9.33301C9.68663 13.3334 10.0258 13.1929 10.2758 12.9428C10.5259 12.6928 10.6663 12.3536 10.6663 12C10.6663 11.6464 10.5259 11.3073 10.2758 11.0572C10.0258 10.8072 9.68663 10.6667 9.33301 10.6667H5.33301C4.27214 10.6667 3.25473 11.0881 2.50458 11.8383C1.75444 12.5884 1.33301 13.6058 1.33301 14.6667V25.3334C1.33301 26.3942 1.75444 27.4116 2.50458 28.1618C3.25473 28.9119 4.27214 29.3334 5.33301 29.3334H26.6663C27.7272 29.3334 28.7446 28.9119 29.4948 28.1618C30.2449 27.4116 30.6663 26.3942 30.6663 25.3334V14.6667C30.6663 13.6058 30.2449 12.5884 29.4948 11.8383C28.7446 11.0881 27.7272 10.6667 26.6663 10.6667ZM6.66634 20C6.66634 20.2637 6.74454 20.5215 6.89105 20.7408C7.03756 20.96 7.24579 21.1309 7.48943 21.2319C7.73306 21.3328 8.00115 21.3592 8.25979 21.3077C8.51844 21.2563 8.75601 21.1293 8.94248 20.9428C9.12895 20.7564 9.25594 20.5188 9.30739 20.2601C9.35884 20.0015 9.33243 19.7334 9.23151 19.4898C9.1306 19.2461 8.9597 19.0379 8.74043 18.8914C8.52117 18.7449 8.26338 18.6667 7.99967 18.6667C7.64605 18.6667 7.30691 18.8072 7.05687 19.0572C6.80682 19.3073 6.66634 19.6464 6.66634 20Z" fill="#FF6664"/>
</svg>
