<svg width="32" height="32" viewBox="0 0 32 32" fill="none" xmlns="http://www.w3.org/2000/svg">
<path d="M13.9463 7.99999L14.6663 7.21333V12C14.6663 12.3536 14.8068 12.6928 15.0569 12.9428C15.3069 13.1929 15.6461 13.3333 15.9997 13.3333C16.3533 13.3333 16.6924 13.1929 16.9425 12.9428C17.1925 12.6928 17.333 12.3536 17.333 12V7.21333L18.053 7.94666C18.174 8.08336 18.3218 8.19374 18.4873 8.27097C18.6527 8.3482 18.8323 8.39063 19.0148 8.39563C19.1973 8.40063 19.3789 8.36809 19.5483 8.30004C19.7177 8.23198 19.8713 8.12986 19.9997 7.99999C20.1246 7.87604 20.2238 7.72858 20.2915 7.5661C20.3592 7.40362 20.3941 7.22934 20.3941 7.05333C20.3941 6.87731 20.3592 6.70304 20.2915 6.54056C20.2238 6.37808 20.1246 6.23061 19.9997 6.10666L16.9463 3.05333C16.8195 2.93194 16.67 2.83679 16.5063 2.77333C16.1817 2.63997 15.8176 2.63997 15.493 2.77333C15.3293 2.83679 15.1798 2.93194 15.053 3.05333L11.9997 6.05333C11.7415 6.31147 11.5965 6.66159 11.5965 7.02666C11.5965 7.39173 11.7415 7.74185 11.9997 7.99999C12.2578 8.25814 12.6079 8.40316 12.973 8.40316C13.3381 8.40316 13.6882 8.25814 13.9463 7.99999ZM15.9997 16C15.2085 16 14.4352 16.2346 13.7774 16.6741C13.1196 17.1136 12.6069 17.7384 12.3042 18.4693C12.0014 19.2002 11.9222 20.0044 12.0765 20.7804C12.2309 21.5563 12.6118 22.269 13.1712 22.8284C13.7307 23.3878 14.4434 23.7688 15.2193 23.9231C15.9952 24.0775 16.7995 23.9983 17.5304 23.6955C18.2613 23.3928 18.886 22.8801 19.3256 22.2223C19.7651 21.5645 19.9997 20.7911 19.9997 20C19.9997 18.9391 19.5782 17.9217 18.8281 17.1716C18.078 16.4214 17.0605 16 15.9997 16ZM15.9997 21.3333C15.736 21.3333 15.4782 21.2551 15.2589 21.1086C15.0396 20.9621 14.8688 20.7539 14.7678 20.5102C14.6669 20.2666 14.6405 19.9985 14.692 19.7399C14.7434 19.4812 14.8704 19.2437 15.0569 19.0572C15.2433 18.8707 15.4809 18.7437 15.7396 18.6923C15.9982 18.6408 16.2663 18.6672 16.5099 18.7682C16.7536 18.8691 16.9618 19.04 17.1083 19.2592C17.2548 19.4785 17.333 19.7363 17.333 20C17.333 20.3536 17.1925 20.6928 16.9425 20.9428C16.6924 21.1929 16.3533 21.3333 15.9997 21.3333ZM6.66634 20C6.66634 20.2637 6.74454 20.5215 6.89105 20.7408C7.03756 20.96 7.24579 21.1309 7.48943 21.2318C7.73306 21.3328 8.00115 21.3592 8.25979 21.3077C8.51844 21.2563 8.75601 21.1293 8.94248 20.9428C9.12895 20.7563 9.25594 20.5188 9.30739 20.2601C9.35884 20.0015 9.33243 19.7334 9.23151 19.4897C9.1306 19.2461 8.9597 19.0379 8.74043 18.8914C8.52117 18.7449 8.26338 18.6667 7.99967 18.6667C7.64605 18.6667 7.30691 18.8071 7.05687 19.0572C6.80682 19.3072 6.66634 19.6464 6.66634 20ZM25.333 20C25.333 19.7363 25.2548 19.4785 25.1083 19.2592C24.9618 19.04 24.7536 18.8691 24.5099 18.7682C24.2663 18.6672 23.9982 18.6408 23.7396 18.6923C23.4809 18.7437 23.2433 18.8707 23.0569 19.0572C22.8704 19.2437 22.7434 19.4812 22.692 19.7399C22.6405 19.9985 22.6669 20.2666 22.7678 20.5102C22.8687 20.7539 23.0396 20.9621 23.2589 21.1086C23.4782 21.2551 23.736 21.3333 23.9997 21.3333C24.3533 21.3333 24.6924 21.1929 24.9425 20.9428C25.1925 20.6928 25.333 20.3536 25.333 20ZM26.6663 10.6667H21.333C20.9794 10.6667 20.6402 10.8071 20.3902 11.0572C20.1402 11.3072 19.9997 11.6464 19.9997 12C19.9997 12.3536 20.1402 12.6928 20.3902 12.9428C20.6402 13.1929 20.9794 13.3333 21.333 13.3333H26.6663C27.02 13.3333 27.3591 13.4738 27.6091 13.7239C27.8592 13.9739 27.9997 14.313 27.9997 14.6667V25.3333C27.9997 25.687 27.8592 26.0261 27.6091 26.2761C27.3591 26.5262 27.02 26.6667 26.6663 26.6667H5.33301C4.97939 26.6667 4.64025 26.5262 4.3902 26.2761C4.14015 26.0261 3.99967 25.687 3.99967 25.3333V14.6667C3.99967 14.313 4.14015 13.9739 4.3902 13.7239C4.64025 13.4738 4.97939 13.3333 5.33301 13.3333H10.6663C11.02 13.3333 11.3591 13.1929 11.6091 12.9428C11.8592 12.6928 11.9997 12.3536 11.9997 12C11.9997 11.6464 11.8592 11.3072 11.6091 11.0572C11.3591 10.8071 11.02 10.6667 10.6663 10.6667H5.33301C4.27214 10.6667 3.25473 11.0881 2.50458 11.8382C1.75444 12.5884 1.33301 13.6058 1.33301 14.6667V25.3333C1.33301 26.3942 1.75444 27.4116 2.50458 28.1618C3.25473 28.9119 4.27214 29.3333 5.33301 29.3333H26.6663C27.7272 29.3333 28.7446 28.9119 29.4948 28.1618C30.2449 27.4116 30.6663 26.3942 30.6663 25.3333V14.6667C30.6663 13.6058 30.2449 12.5884 29.4948 11.8382C28.7446 11.0881 27.7272 10.6667 26.6663 10.6667Z" fill="#FF6664"/>
</svg>
