<svg width="32" height="32" viewBox="0 0 32 32" fill="none" xmlns="http://www.w3.org/2000/svg">
<path d="M16.3997 16.2934C17.1111 15.6775 17.6817 14.9159 18.0728 14.0601C18.4639 13.2042 18.6664 12.2743 18.6663 11.3334C18.6663 9.56524 17.964 7.86955 16.7137 6.61931C15.4635 5.36907 13.7678 4.66669 11.9997 4.66669C10.2316 4.66669 8.53587 5.36907 7.28563 6.61931C6.03539 7.86955 5.33301 9.56524 5.33301 11.3334C5.333 12.2743 5.53541 13.2042 5.92651 14.0601C6.31761 14.9159 6.88824 15.6775 7.59967 16.2934C5.73319 17.1385 4.14963 18.5034 3.03831 20.2247C1.927 21.9461 1.33497 23.9511 1.33301 26C1.33301 26.3536 1.47348 26.6928 1.72353 26.9428C1.97358 27.1929 2.31272 27.3334 2.66634 27.3334C3.01996 27.3334 3.3591 27.1929 3.60915 26.9428C3.8592 26.6928 3.99967 26.3536 3.99967 26C3.99967 23.8783 4.84253 21.8435 6.34282 20.3432C7.84311 18.8429 9.87794 18 11.9997 18C14.1214 18 16.1562 18.8429 17.6565 20.3432C19.1568 21.8435 19.9997 23.8783 19.9997 26C19.9997 26.3536 20.1402 26.6928 20.3902 26.9428C20.6402 27.1929 20.9794 27.3334 21.333 27.3334C21.6866 27.3334 22.0258 27.1929 22.2758 26.9428C22.5259 26.6928 22.6663 26.3536 22.6663 26C22.6644 23.9511 22.0723 21.9461 20.961 20.2247C19.8497 18.5034 18.2662 17.1385 16.3997 16.2934ZM11.9997 15.3334C11.2085 15.3334 10.4352 15.0988 9.77739 14.6592C9.1196 14.2197 8.60691 13.595 8.30416 12.8641C8.00141 12.1332 7.92219 11.3289 8.07653 10.553C8.23087 9.77707 8.61184 9.06434 9.17125 8.50493C9.73066 7.94552 10.4434 7.56455 11.2193 7.41021C11.9952 7.25587 12.7995 7.33509 13.5304 7.63784C14.2613 7.94059 14.886 8.45328 15.3256 9.11107C15.7651 9.76887 15.9997 10.5422 15.9997 11.3334C15.9997 12.3942 15.5782 13.4116 14.8281 14.1618C14.078 14.9119 13.0605 15.3334 11.9997 15.3334ZM24.9863 15.76C25.8396 14.7991 26.397 13.6121 26.5914 12.3418C26.7858 11.0715 26.6089 9.77212 26.082 8.60002C25.5551 7.42792 24.7007 6.43308 23.6216 5.73525C22.5425 5.03742 21.2847 4.66634 19.9997 4.66669C19.6461 4.66669 19.3069 4.80716 19.0569 5.05721C18.8068 5.30726 18.6663 5.6464 18.6663 6.00002C18.6663 6.35364 18.8068 6.69278 19.0569 6.94283C19.3069 7.19288 19.6461 7.33335 19.9997 7.33335C21.0605 7.33335 22.078 7.75478 22.8281 8.50493C23.5782 9.25507 23.9997 10.2725 23.9997 11.3334C23.9978 12.0337 23.8121 12.7212 23.4611 13.3272C23.1101 13.9333 22.6062 14.4365 21.9997 14.7867C21.802 14.9007 21.6369 15.0636 21.5202 15.2597C21.4034 15.4558 21.339 15.6786 21.333 15.9067C21.3274 16.133 21.3796 16.3571 21.4846 16.5577C21.5895 16.7583 21.7439 16.9289 21.933 17.0534L22.453 17.4L22.6263 17.4934C24.2335 18.2556 25.5894 19.4613 26.5343 20.9684C27.4792 22.4755 27.9737 24.2213 27.9597 26C27.9597 26.3536 28.1002 26.6928 28.3502 26.9428C28.6002 27.1929 28.9394 27.3334 29.293 27.3334C29.6466 27.3334 29.9858 27.1929 30.2358 26.9428C30.4859 26.6928 30.6263 26.3536 30.6263 26C30.6372 23.9539 30.1248 21.939 29.1376 20.1468C28.1505 18.3545 26.7215 16.8444 24.9863 15.76Z" fill="#FF6664"/>
</svg>
