<svg width="23" height="23" viewBox="0 0 23 23" fill="none" xmlns="http://www.w3.org/2000/svg">
<path fill-rule="evenodd" clip-rule="evenodd" d="M0.0258789 11.2987C0.0258789 5.0586 5.08448 0 11.3246 0C17.5647 0 22.6233 5.0586 22.6233 11.2987C22.6233 17.5388 17.5647 22.5974 11.3246 22.5974C9.33995 22.5974 7.47483 22.0857 5.85395 21.1871C5.55452 21.0211 5.19906 20.9796 4.87625 21.0936L2.02605 22.1008C0.951396 22.4805 -0.0837915 21.4453 0.295947 20.3707L1.34478 17.4025C1.45447 17.0921 1.42044 16.7507 1.26991 16.458C0.474713 14.9114 0.0258789 13.1574 0.0258789 11.2987ZM5.73119 12.7671C6.5112 12.7671 7.14352 12.1347 7.14352 11.3547C7.14352 10.5747 6.5112 9.94238 5.73119 9.94238C4.95117 9.94238 4.31885 10.5747 4.31885 11.3547C4.31885 12.1347 4.95117 12.7671 5.73119 12.7671ZM12.7929 11.3547C12.7929 12.1347 12.1605 12.7671 11.3805 12.7671C10.6005 12.7671 9.9682 12.1347 9.9682 11.3547C9.9682 10.5747 10.6005 9.94238 11.3805 9.94238C12.1605 9.94238 12.7929 10.5747 12.7929 11.3547ZM17.03 12.7671C17.81 12.7671 18.4424 12.1347 18.4424 11.3547C18.4424 10.5747 17.81 9.94238 17.03 9.94238C16.25 9.94238 15.6177 10.5747 15.6177 11.3547C15.6177 12.1347 16.25 12.7671 17.03 12.7671Z" fill="white"/>
</svg>
