<svg width="25" height="23" viewBox="0 0 25 23" fill="none" xmlns="http://www.w3.org/2000/svg">
<path fill-rule="evenodd" clip-rule="evenodd" d="M22.4156 6.02046C20.3391 6.02046 18.6558 4.33716 18.6558 2.26072C18.6558 1.48859 18.8886 0.770817 19.2877 0.173747C18.8425 0.0609249 18.3761 0.000976562 17.8958 0.000976562H16.7659H6.59711C3.47705 0.000976562 0.947754 2.53028 0.947754 5.65033V16.949C0.947754 20.0691 3.47705 22.5984 6.59711 22.5984H17.8958C21.0159 22.5984 23.5452 20.0691 23.5452 16.949V7.91007V5.84781C23.1886 5.95998 22.8091 6.02046 22.4156 6.02046ZM20.7261 0.759994C22.037 1.52031 23.014 2.79259 23.3835 4.30322C23.0901 4.44252 22.7619 4.52046 22.4156 4.52046C21.1675 4.52046 20.1558 3.50874 20.1558 2.26072C20.1558 1.68474 20.3713 1.15909 20.7261 0.759994ZM6.10342 14.9712C5.79169 14.6984 5.7601 14.2246 6.03286 13.9129L9.98741 9.39338C10.2555 9.08695 10.7192 9.05042 11.032 9.31109L13.8591 11.6671L17.3316 7.69857C17.6043 7.38685 18.0781 7.35526 18.3899 7.62802C18.7016 7.90078 18.7332 8.3746 18.4604 8.68633L14.5059 13.2058C14.2378 13.5122 13.7741 13.5488 13.4613 13.2881L10.6342 10.9321L7.16173 14.9006C6.88897 15.2123 6.41514 15.2439 6.10342 14.9712Z" fill="white"/>
<circle cx="2.25974" cy="2.25974" r="2.25974" transform="matrix(-1 0 0 1 24.4673 0)" fill="white"/>
</svg>
