<svg width="23" height="23" viewBox="0 0 23 23" fill="none" xmlns="http://www.w3.org/2000/svg">
<path fill-rule="evenodd" clip-rule="evenodd" d="M22.8699 11.2987C22.8699 17.5388 17.8113 22.5974 11.5712 22.5974C5.33106 22.5974 0.272461 17.5388 0.272461 11.2987C0.272461 5.0586 5.33106 0 11.5712 0C17.8113 0 22.8699 5.0586 22.8699 11.2987ZM11.9761 8.34114C10.8772 8.79824 8.68078 9.74431 5.38698 11.1794C4.85212 11.3921 4.57194 11.6001 4.54643 11.8036C4.50332 12.1475 4.93392 12.2829 5.52029 12.4672C5.60005 12.4923 5.68269 12.5183 5.76741 12.5458C6.34431 12.7334 7.12033 12.9527 7.52375 12.9615C7.88969 12.9694 8.29813 12.8185 8.74905 12.5089C11.8266 10.4315 13.4152 9.38145 13.5149 9.35881C13.5853 9.34284 13.6828 9.32276 13.7488 9.38148C13.8149 9.4402 13.8084 9.55141 13.8014 9.58124C13.7588 9.76309 12.0685 11.3345 11.1938 12.1477C10.9211 12.4012 10.7277 12.5811 10.6881 12.6221C10.5996 12.7141 10.5093 12.8012 10.4225 12.8848C9.88657 13.4015 9.48466 13.7889 10.4448 14.4216C10.9062 14.7256 11.2753 14.9771 11.6437 15.2279C12.0459 15.5018 12.4472 15.7751 12.9663 16.1153C13.0985 16.202 13.2248 16.2921 13.3479 16.3798C13.816 16.7135 14.2366 17.0133 14.7561 16.9655C15.0581 16.9378 15.3699 16.6539 15.5283 15.8072C15.9026 13.8061 16.6384 9.47056 16.8084 7.68397C16.8233 7.52745 16.8046 7.32712 16.7895 7.23918C16.7745 7.15124 16.743 7.02595 16.6287 6.9332C16.4933 6.82336 16.2843 6.80019 16.1909 6.80184C15.7659 6.80932 15.1139 7.03603 11.9761 8.34114Z" fill="white"/>
</svg>
