<svg width="23" height="23" viewBox="0 0 23 23" fill="none" xmlns="http://www.w3.org/2000/svg">
<path fill-rule="evenodd" clip-rule="evenodd" d="M1.58847 1.58847C0 3.17694 0 5.73353 0 10.8468V11.7507C0 16.8639 0 19.4204 1.58847 21.0089C3.17694 22.5974 5.73353 22.5974 10.8468 22.5974H11.7507C16.8639 22.5974 19.4204 22.5974 21.0089 21.0089C22.5974 19.4204 22.5974 16.8639 22.5974 11.7507V10.8468C22.5974 5.73353 22.5974 3.17694 21.0089 1.58847C19.4204 0 16.8639 0 11.7507 0H10.8468C5.73353 0 3.17694 0 1.58847 1.58847ZM3.81337 6.87342C3.93577 12.7487 6.87342 16.2796 12.0237 16.2796H12.3157V12.9182C14.2082 13.1065 15.6393 14.4906 16.2136 16.2796H18.8877C18.1533 13.6056 16.223 12.1273 15.0178 11.5624C16.223 10.8656 17.9178 9.17083 18.3227 6.87342H15.8934C15.3661 8.73771 13.8033 10.4325 12.3157 10.5926V6.87342H9.88636V13.389C8.37987 13.0124 6.47797 11.1858 6.39323 6.87342H3.81337Z" fill="#FF6664"/>
</svg>
