<svg width="24" height="17" viewBox="0 0 24 17" fill="none" xmlns="http://www.w3.org/2000/svg">
<path d="M23.4909 3.6008C23.4909 3.6008 23.2592 1.96491 22.5455 1.24661C21.6419 0.301225 20.6316 0.296591 20.1682 0.24098C16.8501 -1.32586e-07 11.8683 0 11.8683 0H11.859C11.859 0 6.8772 -1.32586e-07 3.55909 0.24098C3.09567 0.296591 2.0854 0.301225 1.18173 1.24661C0.468058 1.96491 0.24098 3.6008 0.24098 3.6008C0.24098 3.6008 0 5.52401 0 7.44258V9.24066C0 11.1592 0.236346 13.0824 0.236346 13.0824C0.236346 13.0824 0.468057 14.7183 1.1771 15.4366C2.08077 16.382 3.26713 16.3496 3.79544 16.4515C5.69547 16.6323 11.8636 16.6879 11.8636 16.6879C11.8636 16.6879 16.8501 16.6786 20.1682 16.4423C20.6316 16.3866 21.6419 16.382 22.5455 15.4366C23.2592 14.7183 23.4909 13.0824 23.4909 13.0824C23.4909 13.0824 23.7273 11.1639 23.7273 9.24066V7.44258C23.7273 5.52401 23.4909 3.6008 23.4909 3.6008ZM9.41213 11.4234V4.75472L15.8213 8.10064L9.41213 11.4234Z" fill="white"/>
</svg>
