<svg width="8" height="5" viewBox="0 0 8 5" fill="none" xmlns="http://www.w3.org/2000/svg">
<path d="M3.98321 3.06631L1.29524 0.232761C1.15297 0.0836791 0.960521 4.34851e-07 0.759921 4.4362e-07C0.55932 4.52388e-07 0.366871 0.0836792 0.224604 0.232761C0.153434 0.307172 0.0969456 0.395701 0.0583962 0.493242C0.0198468 0.590783 -1.8816e-07 0.695405 -1.83541e-07 0.801072C-1.78922e-07 0.906739 0.0198468 1.01136 0.0583962 1.1089C0.0969456 1.20644 0.153434 1.29497 0.224604 1.36938L3.4441 4.76323C3.51469 4.83826 3.59867 4.8978 3.6912 4.93844C3.78373 4.97908 3.88297 5 3.98321 5C4.08345 5 4.1827 4.97908 4.27523 4.93844C4.36776 4.8978 4.45174 4.83826 4.52233 4.76323L7.77978 1.36938C7.85016 1.29459 7.90584 1.20589 7.94362 1.10836C7.98141 1.01084 8.00056 0.906414 7.99999 0.801071C8.00056 0.695728 7.98141 0.591302 7.94362 0.493778C7.90584 0.396255 7.85016 0.307554 7.77978 0.232761C7.63752 0.0836789 7.44507 1.51403e-07 7.24447 1.60171e-07C7.04387 1.6894e-07 6.85142 0.0836789 6.70915 0.232761L3.98321 3.06631Z" fill="#FF6664"/>
</svg>
