<svg width="38" height="23" viewBox="0 0 38 23" fill="none" xmlns="http://www.w3.org/2000/svg">
<path fill-rule="evenodd" clip-rule="evenodd" d="M26.5046 0.531833C27.1965 -0.177277 28.3183 -0.177278 29.0102 0.531832L36.7892 8.5041C38.4036 10.1587 38.4036 12.8413 36.7892 14.4959L29.0102 22.4682C28.3183 23.1773 27.1965 23.1773 26.5046 22.4682C25.8127 21.7591 25.8127 20.6094 26.5046 19.9003L32.9294 13.3158L1.77175 13.3158C0.79324 13.3158 1.40806e-07 12.5028 0 11.5C-1.40806e-07 10.4972 0.793239 9.68421 1.77175 9.68421L32.9294 9.68421L26.5046 3.09975C25.8127 2.39064 25.8127 1.24094 26.5046 0.531833Z" fill="white"/>
</svg>
