<svg width="25" height="24" viewBox="0 0 25 24" fill="none" xmlns="http://www.w3.org/2000/svg">
<path fill-rule="evenodd" clip-rule="evenodd" d="M11.1457 0.0429264C7.43353 0.368818 4.09134 2.33119 2.01754 5.40256C-1.17038 10.1239 -0.524124 16.4457 3.55789 20.4714C5.48773 22.3746 7.90359 23.5436 10.7182 23.9363C11.455 24.0391 13.1411 24.0138 13.9804 23.8872C17.9224 23.2931 21.2936 20.8881 23.0898 17.3885C24.056 15.506 24.4898 13.4402 24.3655 11.3145C24.3191 10.5209 24.1892 9.64197 24.08 9.3826C23.9055 8.96801 23.3861 8.67566 22.9629 8.7538C22.6662 8.80855 22.3448 9.04191 22.2219 9.29178C22.0916 9.55671 22.0852 9.79885 22.1922 10.4181C22.2354 10.6681 22.2841 11.225 22.3005 11.6556C22.4326 15.131 20.7465 18.3561 17.7699 20.3213C14.8896 22.223 11.0326 22.4957 7.89543 21.0194C4.53415 19.4376 2.34297 16.2894 2.0997 12.6924C1.8262 8.64859 4.00373 4.91619 7.70318 3.08763C9.11969 2.38751 10.5701 2.05752 12.222 2.05964C13.7448 2.06156 14.9537 2.31371 16.3474 2.92013C17.1655 3.27608 17.5755 3.25886 17.9373 2.85341C18.1449 2.62066 18.2293 2.36124 18.1988 2.04919C18.161 1.66152 17.9619 1.4261 17.4671 1.1838C15.6278 0.283051 13.2659 -0.143203 11.1457 0.0429264ZM23.164 1.08076C23.0793 1.1241 20.2098 3.91311 16.7873 7.2786L10.5646 13.3977L9.39678 12.2537C8.75453 11.6246 8.15513 11.0735 8.0648 11.0291C7.83287 10.9152 7.37369 10.9249 7.12652 11.049C6.71747 11.2544 6.48986 11.7657 6.61103 12.207C6.66435 12.4013 6.85543 12.6138 8.08671 13.8486C8.86461 14.6287 9.60294 15.3389 9.7275 15.4268C10.1432 15.7202 10.7365 15.7689 11.1988 15.5477C11.3456 15.4775 13.4334 13.4543 17.9637 8.99231C24.0021 3.04494 24.5211 2.5207 24.5768 2.31169C24.7589 1.62859 24.2754 0.994487 23.5765 0.999942C23.4343 1.00105 23.2486 1.03742 23.164 1.08076Z" fill="#FF6664"/>
</svg>
