<svg width="198" height="198" viewBox="0 0 198 198" fill="none" xmlns="http://www.w3.org/2000/svg">
<g opacity="0.3">
<path d="M174.653 16.9953C168.739 15.9767 162.751 15.4524 156.75 15.4278C136.277 15.411 116.23 21.2818 99.0001 32.3403C81.7258 21.4269 61.6825 15.7003 41.2501 15.8403C35.2494 15.8649 29.2612 16.3892 23.3476 17.4078C21.4105 17.7417 19.6564 18.7563 18.401 20.2688C17.1456 21.7813 16.4715 23.6924 16.5001 25.6578V124.658C16.4824 125.87 16.7321 127.071 17.2315 128.176C17.7308 129.281 18.4674 130.262 19.389 131.049C20.3106 131.837 21.3945 132.412 22.5635 132.733C23.7325 133.054 24.9579 133.114 26.1526 132.908C37.975 130.861 50.0875 131.2 61.7766 133.907C73.4658 136.613 84.4951 141.631 94.2151 148.665L95.2051 149.243H96.1126C97.0275 149.624 98.0089 149.82 99.0001 149.82C99.9913 149.82 100.973 149.624 101.888 149.243H102.795L103.785 148.665C113.437 141.474 124.435 136.293 136.126 133.43C147.818 130.568 159.965 130.081 171.848 132C173.042 132.206 174.268 132.147 175.437 131.826C176.606 131.505 177.69 130.93 178.611 130.142C179.533 129.354 180.269 128.373 180.769 127.268C181.268 126.164 181.518 124.962 181.5 123.75V24.7503C181.414 22.8705 180.688 21.0766 179.443 19.6661C178.197 18.2556 176.507 17.3132 174.653 16.9953ZM90.7501 126.638C75.4866 118.608 58.4969 114.417 41.2501 114.428C38.5276 114.428 35.8051 114.428 33.0001 114.428V31.9278C35.7478 31.7694 38.5024 31.7694 41.2501 31.9278C58.8505 31.9083 76.0669 37.0732 90.7501 46.7778V126.638ZM165 114.758C162.195 114.758 159.473 114.758 156.75 114.758C139.503 114.747 122.514 118.938 107.25 126.968V46.7778C121.933 37.0732 139.15 31.9083 156.75 31.9278C159.498 31.7694 162.252 31.7694 165 31.9278V114.758ZM174.653 148.995C168.739 147.977 162.751 147.452 156.75 147.428C136.277 147.411 116.23 153.282 99.0001 164.34C81.7701 153.282 61.7236 147.411 41.2501 147.428C35.2494 147.452 29.2612 147.977 23.3476 148.995C22.2737 149.166 21.244 149.547 20.3179 150.116C19.3917 150.686 18.5873 151.433 17.951 152.315C17.3146 153.197 16.8588 154.196 16.6098 155.254C16.3608 156.313 16.3235 157.41 16.5001 158.483C16.9193 160.625 18.1706 162.514 19.9799 163.736C21.7891 164.957 24.0087 165.412 26.1526 165C37.975 162.953 50.0875 163.293 61.7766 165.999C73.4658 168.705 84.4951 173.723 94.2151 180.758C95.6123 181.753 97.2849 182.287 99.0001 182.287C100.715 182.287 102.388 181.753 103.785 180.758C113.505 173.723 124.534 168.705 136.224 165.999C147.913 163.293 160.025 162.953 171.848 165C173.991 165.412 176.211 164.957 178.02 163.736C179.83 162.514 181.081 160.625 181.5 158.483C181.677 157.41 181.639 156.313 181.39 155.254C181.141 154.196 180.686 153.197 180.049 152.315C179.413 151.433 178.608 150.686 177.682 150.116C176.756 149.547 175.727 149.166 174.653 148.995Z" fill="#777C8B"/>
</g>
</svg>
