<svg width="25" height="24" viewBox="0 0 25 24" fill="none" xmlns="http://www.w3.org/2000/svg">
<path d="M19.584 8H18.584V5C18.584 4.20435 18.2679 3.44129 17.7053 2.87868C17.1427 2.31607 16.3796 2 15.584 2H5.58398C4.78833 2 4.02527 2.31607 3.46266 2.87868C2.90005 3.44129 2.58398 4.20435 2.58398 5V17C2.58497 17.1974 2.64437 17.3901 2.75471 17.5539C2.86504 17.7176 3.02137 17.845 3.20398 17.92C3.32266 17.976 3.45281 18.0034 3.58398 18C3.71559 18.0008 3.84605 17.9755 3.96789 17.9258C4.08973 17.876 4.20054 17.8027 4.29398 17.71L7.10398 14.89H8.58398V16.33C8.58398 17.1256 8.90005 17.8887 9.46266 18.4513C10.0253 19.0139 10.7883 19.33 11.584 19.33H18.504L20.874 21.71C20.9674 21.8027 21.0782 21.876 21.2001 21.9258C21.3219 21.9755 21.4524 22.0008 21.584 22C21.7152 22.0034 21.8453 21.976 21.964 21.92C22.1466 21.845 22.3029 21.7176 22.4133 21.5539C22.5236 21.3901 22.583 21.1974 22.584 21V11C22.584 10.2044 22.2679 9.44129 21.7053 8.87868C21.1427 8.31607 20.3796 8 19.584 8ZM8.58398 11V12.89H6.69398C6.56238 12.8892 6.43192 12.9145 6.31008 12.9642C6.18824 13.014 6.07742 13.0873 5.98398 13.18L4.58398 14.59V5C4.58398 4.73478 4.68934 4.48043 4.87688 4.29289C5.06441 4.10536 5.31877 4 5.58398 4H15.584C15.8492 4 16.1036 4.10536 16.2911 4.29289C16.4786 4.48043 16.584 4.73478 16.584 5V8H11.584C10.7883 8 10.0253 8.31607 9.46266 8.87868C8.90005 9.44129 8.58398 10.2044 8.58398 11ZM20.584 18.59L19.584 17.59C19.4914 17.4955 19.3809 17.4203 19.2591 17.3688C19.1372 17.3173 19.0063 17.2906 18.874 17.29H11.584C11.3188 17.29 11.0644 17.1846 10.8769 16.9971C10.6893 16.8096 10.584 16.5552 10.584 16.29V11C10.584 10.7348 10.6893 10.4804 10.8769 10.2929C11.0644 10.1054 11.3188 10 11.584 10H19.584C19.8492 10 20.1036 10.1054 20.2911 10.2929C20.4786 10.4804 20.584 10.7348 20.584 11V18.59Z" fill="#FF6664"/>
</svg>
