<svg width="20" height="20" viewBox="0 0 20 20" fill="none" xmlns="http://www.w3.org/2000/svg">
<path d="M9.16602 7.50002H12.4993C12.7204 7.50002 12.9323 7.41222 13.0886 7.25594C13.2449 7.09966 13.3327 6.8877 13.3327 6.66669C13.3327 6.44567 13.2449 6.23371 13.0886 6.07743C12.9323 5.92115 12.7204 5.83335 12.4993 5.83335H10.8327V5.00002C10.8327 4.77901 10.7449 4.56705 10.5886 4.41076C10.4323 4.25448 10.2204 4.16669 9.99935 4.16669C9.77834 4.16669 9.56637 4.25448 9.41009 4.41076C9.25381 4.56705 9.16602 4.77901 9.16602 5.00002V5.83335C8.50297 5.83335 7.86709 6.09675 7.39825 6.56559C6.92941 7.03443 6.66602 7.67031 6.66602 8.33335C6.66602 8.9964 6.92941 9.63228 7.39825 10.1011C7.86709 10.57 8.50297 10.8334 9.16602 10.8334H10.8327C11.0537 10.8334 11.2657 10.9212 11.4219 11.0774C11.5782 11.2337 11.666 11.4457 11.666 11.6667C11.666 11.8877 11.5782 12.0997 11.4219 12.2559C11.2657 12.4122 11.0537 12.5 10.8327 12.5H7.49935C7.27834 12.5 7.06637 12.5878 6.91009 12.7441C6.75381 12.9004 6.66602 13.1123 6.66602 13.3334C6.66602 13.5544 6.75381 13.7663 6.91009 13.9226C7.06637 14.0789 7.27834 14.1667 7.49935 14.1667H9.16602V15C9.16602 15.221 9.25381 15.433 9.41009 15.5893C9.56637 15.7456 9.77834 15.8334 9.99935 15.8334C10.2204 15.8334 10.4323 15.7456 10.5886 15.5893C10.7449 15.433 10.8327 15.221 10.8327 15V14.1667C11.4957 14.1667 12.1316 13.9033 12.6005 13.4345C13.0693 12.9656 13.3327 12.3297 13.3327 11.6667C13.3327 11.0036 13.0693 10.3678 12.6005 9.89892C12.1316 9.43008 11.4957 9.16669 10.8327 9.16669H9.16602C8.945 9.16669 8.73304 9.07889 8.57676 8.92261C8.42048 8.76633 8.33268 8.55437 8.33268 8.33335C8.33268 8.11234 8.42048 7.90038 8.57676 7.7441C8.73304 7.58782 8.945 7.50002 9.16602 7.50002ZM15.8327 1.66669H4.16602C3.50297 1.66669 2.86709 1.93008 2.39825 2.39892C1.92941 2.86776 1.66602 3.50365 1.66602 4.16669V15.8334C1.66602 16.4964 1.92941 17.1323 2.39825 17.6011C2.86709 18.07 3.50297 18.3334 4.16602 18.3334H15.8327C16.4957 18.3334 17.1316 18.07 17.6005 17.6011C18.0693 17.1323 18.3327 16.4964 18.3327 15.8334V4.16669C18.3327 3.50365 18.0693 2.86776 17.6005 2.39892C17.1316 1.93008 16.4957 1.66669 15.8327 1.66669ZM16.666 15.8334C16.666 16.0544 16.5782 16.2663 16.4219 16.4226C16.2657 16.5789 16.0537 16.6667 15.8327 16.6667H4.16602C3.945 16.6667 3.73304 16.5789 3.57676 16.4226C3.42048 16.2663 3.33268 16.0544 3.33268 15.8334V4.16669C3.33268 3.94567 3.42048 3.73371 3.57676 3.57743C3.73304 3.42115 3.945 3.33335 4.16602 3.33335H15.8327C16.0537 3.33335 16.2657 3.42115 16.4219 3.57743C16.5782 3.73371 16.666 3.94567 16.666 4.16669V15.8334Z" fill="#777C8B"/>
</svg>
