<svg width="18" height="11" viewBox="0 0 18 11" fill="none" xmlns="http://www.w3.org/2000/svg">
<path fill-rule="evenodd" clip-rule="evenodd" d="M8.26027 0.0102176C6.77184 0.14739 5.54724 0.491588 4.32472 1.11634C2.61331 1.99098 1.20389 3.30888 0.208427 4.96539C0.0219804 5.27567 0 5.33234 0 5.50299C0 5.67363 0.0219804 5.7303 0.208427 6.04058C0.83656 7.08583 1.73307 8.10673 2.65949 8.83168C4.10513 9.96295 5.81816 10.6789 7.69667 10.9369C8.30938 11.021 9.69062 11.021 10.3033 10.9369C11.528 10.7687 12.617 10.4304 13.6753 9.88963C15.3867 9.01499 16.7961 7.69709 17.7916 6.04058C17.978 5.7303 18 5.67363 18 5.50299C18 5.33234 17.978 5.27567 17.7916 4.96539C17.1634 3.92014 16.2669 2.89924 15.3405 2.17429C13.9054 1.05127 12.17 0.322854 10.3386 0.0748329C9.94872 0.0220102 8.59033 -0.0201997 8.26027 0.0102176ZM9.6337 1.32357C11.9767 1.67009 13.596 3.82407 13.2447 6.12694C12.8928 8.43387 10.7051 10.0283 8.3663 9.6824C6.02334 9.33588 4.40405 7.1819 4.75531 4.87903C5.10724 2.57214 7.2949 0.97771 9.6337 1.32357ZM8.60372 3.37745C8.48557 3.39507 8.48374 3.42008 8.58942 3.57341C8.69883 3.73216 8.76885 4.06595 8.73722 4.27818C8.66191 4.78417 8.27105 5.16891 7.75606 5.244C7.54059 5.27543 7.20183 5.20668 7.04029 5.09872C6.97336 5.05401 6.90552 5.01742 6.88953 5.01742C6.84842 5.01742 6.81689 5.23568 6.81643 5.52345C6.81594 5.82953 6.91971 6.23834 7.06928 6.51969C7.22025 6.80368 7.67899 7.25536 7.96741 7.40401C8.59921 7.72966 9.40079 7.72966 10.0326 7.40401C10.321 7.25536 10.7797 6.80368 10.9307 6.51969C11.2614 5.89761 11.2614 5.10836 10.9307 4.48628C10.7797 4.20229 10.321 3.75061 10.0326 3.60196C9.63338 3.39621 9.07073 3.30781 8.60372 3.37745Z" fill="#FF6664"/>
</svg>
