<svg width="32" height="32" viewBox="0 0 32 32" fill="none" xmlns="http://www.w3.org/2000/svg">
<path d="M15.9994 14.6667C15.6457 14.6667 15.3066 14.8072 15.0565 15.0573C14.8065 15.3073 14.666 15.6465 14.666 16.0001V21.3334C14.666 21.687 14.8065 22.0262 15.0565 22.2762C15.3066 22.5263 15.6457 22.6667 15.9994 22.6667C16.353 22.6667 16.6921 22.5263 16.9422 22.2762C17.1922 22.0262 17.3327 21.687 17.3327 21.3334V16.0001C17.3327 15.6465 17.1922 15.3073 16.9422 15.0573C16.6921 14.8072 16.353 14.6667 15.9994 14.6667ZM16.506 9.44008C16.1814 9.30672 15.8173 9.30672 15.4927 9.44008C15.329 9.50354 15.1795 9.59869 15.0527 9.72008C14.9349 9.84968 14.8402 9.9985 14.7727 10.1601C14.698 10.3183 14.6615 10.4918 14.666 10.6667C14.665 10.8422 14.6986 11.0162 14.765 11.1786C14.8313 11.3411 14.9291 11.4888 15.0527 11.6134C15.1823 11.7312 15.3311 11.8259 15.4927 11.8934C15.6947 11.9764 15.914 12.0085 16.1313 11.9869C16.3486 11.9653 16.5573 11.8906 16.739 11.7695C16.9207 11.6484 17.0698 11.4845 17.1734 11.2922C17.2769 11.0999 17.3316 10.8851 17.3327 10.6667C17.3278 10.3137 17.1897 9.97559 16.946 9.72008C16.8192 9.59869 16.6697 9.50354 16.506 9.44008ZM15.9994 2.66675C13.3623 2.66675 10.7844 3.44873 8.59175 4.91382C6.3991 6.37891 4.69013 8.46129 3.68096 10.8976C2.67179 13.334 2.40775 16.0149 2.92222 18.6013C3.43669 21.1877 4.70656 23.5635 6.57126 25.4282C8.43597 27.2929 10.8117 28.5627 13.3982 29.0772C15.9846 29.5917 18.6655 29.3276 21.1018 28.3185C23.5382 27.3093 25.6205 25.6003 27.0856 23.4077C28.5507 21.215 29.3327 18.6372 29.3327 16.0001C29.3327 14.2491 28.9878 12.5153 28.3177 10.8976C27.6477 9.27996 26.6656 7.81011 25.4274 6.57199C24.1893 5.33388 22.7195 4.35175 21.1018 3.68169C19.4841 3.01162 17.7503 2.66675 15.9994 2.66675ZM15.9994 26.6667C13.8897 26.6667 11.8274 26.0412 10.0733 24.8691C8.31915 23.697 6.95198 22.0311 6.14464 20.082C5.33731 18.133 5.12607 15.9882 5.53765 13.9191C5.94922 11.85 6.96512 9.94937 8.45688 8.45761C9.94864 6.96585 11.8493 5.94995 13.9184 5.53837C15.9875 5.1268 18.1322 5.33803 20.0813 6.14537C22.0304 6.9527 23.6963 8.31987 24.8684 10.074C26.0404 11.8281 26.666 13.8904 26.666 16.0001C26.666 18.8291 25.5422 21.5422 23.5418 23.5426C21.5414 25.5429 18.8283 26.6667 15.9994 26.6667Z" fill="#FF6664"/>
</svg>
