<svg width="20" height="20" viewBox="0 0 20 20" fill="none" xmlns="http://www.w3.org/2000/svg">
<circle cx="10" cy="10" r="10" fill="#FF6664"/>
<path d="M4.33398 13.3337V12.392C4.46176 12.4003 4.5701 12.3892 4.65898 12.3587C4.74787 12.3281 4.82287 12.2726 4.88398 12.192C4.94787 12.1087 5.00343 11.9948 5.05065 11.8503C5.09787 11.7031 5.14232 11.5198 5.18398 11.3003C5.25065 10.9531 5.30621 10.5878 5.35065 10.2045C5.39787 9.81839 5.43676 9.44061 5.46732 9.07116C5.49787 8.70172 5.52148 8.36561 5.53815 8.06283C5.55482 7.75727 5.56732 7.51422 5.57565 7.33366H9.66732V13.3337H8.53399V8.392H6.61732C6.60621 8.54755 6.59093 8.75033 6.57148 9.00033C6.55482 9.25033 6.53121 9.52672 6.50065 9.8295C6.4701 10.1323 6.4326 10.4462 6.38815 10.7712C6.34371 11.0962 6.28954 11.4114 6.22565 11.717C6.16732 12.0142 6.09648 12.2781 6.01315 12.5087C5.92982 12.7364 5.81871 12.9239 5.67982 13.0712C5.54371 13.2156 5.36732 13.3114 5.15065 13.3587C4.93398 13.4059 4.66176 13.3976 4.33398 13.3337Z" fill="white"/>
<path d="M13.4129 13.4587C12.8129 13.4587 12.2948 13.3281 11.8587 13.067C11.4254 12.8059 11.0907 12.4406 10.8546 11.9712C10.6212 11.5017 10.5046 10.9559 10.5046 10.3337C10.5046 9.71144 10.6212 9.16561 10.8546 8.69616C11.0907 8.22672 11.4254 7.86144 11.8587 7.60033C12.2948 7.33922 12.8129 7.20866 13.4129 7.20866C14.1018 7.20866 14.6796 7.3795 15.1462 7.72116C15.6157 8.06283 15.9462 8.52533 16.1379 9.10866L14.9962 9.42533C14.8851 9.06144 14.6976 8.7795 14.4337 8.5795C14.1698 8.37672 13.8296 8.27533 13.4129 8.27533C13.0323 8.27533 12.7143 8.36005 12.4587 8.5295C12.2059 8.69894 12.0157 8.93783 11.8879 9.24616C11.7601 9.5545 11.6962 9.917 11.6962 10.3337C11.6962 10.7503 11.7601 11.1128 11.8879 11.4212C12.0157 11.7295 12.2059 11.9684 12.4587 12.1378C12.7143 12.3073 13.0323 12.392 13.4129 12.392C13.8296 12.392 14.1698 12.2906 14.4337 12.0878C14.6976 11.8851 14.8851 11.6031 14.9962 11.242L16.1379 11.5587C15.9462 12.142 15.6157 12.6045 15.1462 12.9462C14.6796 13.2878 14.1018 13.4587 13.4129 13.4587Z" fill="white"/>
</svg>
