<svg width="198" height="198" viewBox="0 0 198 198" fill="none" xmlns="http://www.w3.org/2000/svg">
<g opacity="0.3">
<path d="M173.25 16.5C171.062 16.5 168.964 17.3692 167.416 18.9164C165.869 20.4635 165 22.562 165 24.75V41.25H148.5V24.75C148.5 22.562 147.631 20.4635 146.084 18.9164C144.536 17.3692 142.438 16.5 140.25 16.5C138.062 16.5 135.964 17.3692 134.416 18.9164C132.869 20.4635 132 22.562 132 24.75V33H66V24.75C66 22.562 65.1308 20.4635 63.5836 18.9164C62.0365 17.3692 59.938 16.5 57.75 16.5C55.562 16.5 53.4635 17.3692 51.9164 18.9164C50.3692 20.4635 49.5 22.562 49.5 24.75V41.25H33V24.75C33 22.562 32.1308 20.4635 30.5836 18.9164C29.0365 17.3692 26.938 16.5 24.75 16.5C22.562 16.5 20.4635 17.3692 18.9164 18.9164C17.3692 20.4635 16.5 22.562 16.5 24.75V173.25C16.5 175.438 17.3692 177.536 18.9164 179.084C20.4635 180.631 22.562 181.5 24.75 181.5C26.938 181.5 29.0365 180.631 30.5836 179.084C32.1308 177.536 33 175.438 33 173.25V156.75H49.5V173.25C49.5 175.438 50.3692 177.536 51.9164 179.084C53.4635 180.631 55.562 181.5 57.75 181.5C59.938 181.5 62.0365 180.631 63.5836 179.084C65.1308 177.536 66 175.438 66 173.25V165H132V173.25C132 175.438 132.869 177.536 134.416 179.084C135.964 180.631 138.062 181.5 140.25 181.5C142.438 181.5 144.536 180.631 146.084 179.084C147.631 177.536 148.5 175.438 148.5 173.25V156.75H165V173.25C165 175.438 165.869 177.536 167.416 179.084C168.964 180.631 171.062 181.5 173.25 181.5C175.438 181.5 177.536 180.631 179.084 179.084C180.631 177.536 181.5 175.438 181.5 173.25V24.75C181.5 22.562 180.631 20.4635 179.084 18.9164C177.536 17.3692 175.438 16.5 173.25 16.5ZM49.5 140.25H33V123.75H49.5V140.25ZM49.5 107.25H33V90.75H49.5V107.25ZM49.5 74.25H33V57.75H49.5V74.25ZM132 148.5H66V107.25H132V148.5ZM132 90.75H66V49.5H132V90.75ZM165 140.25H148.5V123.75H165V140.25ZM165 107.25H148.5V90.75H165V107.25ZM165 74.25H148.5V57.75H165V74.25Z" fill="#777C8B"/>
</g>
</svg>
