<svg width="198" height="198" viewBox="0 0 198 198" fill="none" xmlns="http://www.w3.org/2000/svg">
<g opacity="0.3">
<path d="M178.613 18.4795C177.713 17.7078 176.658 17.1388 175.519 16.8114C174.38 16.484 173.184 16.4057 172.013 16.582L64.7625 33.082C62.8094 33.3784 61.0275 34.3656 59.7406 35.8645C58.4537 37.3633 57.7474 39.2741 57.75 41.2495V126.637C53.8953 124.754 49.6649 123.767 45.375 123.75C39.6641 123.75 34.0814 125.443 29.3329 128.616C24.5845 131.789 20.8835 136.298 18.698 141.575C16.5125 146.851 15.9407 152.657 17.0548 158.258C18.169 163.859 20.9191 169.004 24.9573 173.042C28.9955 177.08 34.1406 179.831 39.7418 180.945C45.343 182.059 51.1488 181.487 56.425 179.302C61.7012 177.116 66.2109 173.415 69.3837 168.667C72.5565 163.918 74.25 158.335 74.25 152.625V89.5945L165 75.652V110.137C161.145 108.254 156.915 107.267 152.625 107.25C146.914 107.25 141.331 108.943 136.583 112.116C131.834 115.289 128.133 119.798 125.948 125.075C123.763 130.351 123.191 136.157 124.305 141.758C125.419 147.359 128.169 152.504 132.207 156.542C136.246 160.58 141.391 163.331 146.992 164.445C152.593 165.559 158.399 164.987 163.675 162.802C168.951 160.616 173.461 156.915 176.634 152.167C179.807 147.418 181.5 141.835 181.5 136.125V24.7495C181.5 23.5579 181.242 22.3804 180.744 21.298C180.245 20.2156 179.518 19.2541 178.613 18.4795ZM45.375 165C42.9275 165 40.5349 164.274 38.4998 162.914C36.4648 161.554 34.8786 159.621 33.942 157.36C33.0054 155.099 32.7603 152.611 33.2378 150.21C33.7153 147.81 34.8939 145.605 36.6246 143.874C38.3552 142.143 40.5603 140.965 42.9608 140.487C45.3613 140.01 47.8495 140.255 50.1107 141.192C52.372 142.128 54.3047 143.714 55.6644 145.749C57.0242 147.784 57.75 150.177 57.75 152.625C57.75 155.907 56.4462 159.054 54.1255 161.375C51.8047 163.696 48.6571 165 45.375 165ZM152.625 148.5C150.177 148.5 147.785 147.774 145.75 146.414C143.715 145.054 142.129 143.121 141.192 140.86C140.255 138.599 140.01 136.111 140.488 133.71C140.965 131.31 142.144 129.105 143.875 127.374C145.605 125.643 147.81 124.465 150.211 123.987C152.611 123.51 155.099 123.755 157.361 124.692C159.622 125.628 161.555 127.214 162.914 129.249C164.274 131.284 165 133.677 165 136.125C165 139.407 163.696 142.554 161.375 144.875C159.055 147.196 155.907 148.5 152.625 148.5ZM165 58.9045L74.25 72.847V48.097L165 34.402V58.9045Z" fill="#777C8B"/>
</g>
</svg>
