<svg width="25" height="24" viewBox="0 0 25 24" fill="none" xmlns="http://www.w3.org/2000/svg">
<path d="M19.584 7H18.584V6C18.584 5.20435 18.2679 4.44129 17.7053 3.87868C17.1427 3.31607 16.3796 3 15.584 3H5.58398C4.78833 3 4.02527 3.31607 3.46266 3.87868C2.90005 4.44129 2.58398 5.20435 2.58398 6V18C2.58398 18.7956 2.90005 19.5587 3.46266 20.1213C4.02527 20.6839 4.78833 21 5.58398 21H19.584C20.3796 21 21.1427 20.6839 21.7053 20.1213C22.2679 19.5587 22.584 18.7956 22.584 18V10C22.584 9.20435 22.2679 8.44129 21.7053 7.87868C21.1427 7.31607 20.3796 7 19.584 7ZM5.58398 5H15.584C15.8492 5 16.1036 5.10536 16.2911 5.29289C16.4786 5.48043 16.584 5.73478 16.584 6V7H5.58398C5.31877 7 5.06441 6.89464 4.87688 6.70711C4.68934 6.51957 4.58398 6.26522 4.58398 6C4.58398 5.73478 4.68934 5.48043 4.87688 5.29289C5.06441 5.10536 5.31877 5 5.58398 5ZM20.584 15H19.584C19.3188 15 19.0644 14.8946 18.8769 14.7071C18.6893 14.5196 18.584 14.2652 18.584 14C18.584 13.7348 18.6893 13.4804 18.8769 13.2929C19.0644 13.1054 19.3188 13 19.584 13H20.584V15ZM20.584 11H19.584C18.7883 11 18.0253 11.3161 17.4627 11.8787C16.9001 12.4413 16.584 13.2044 16.584 14C16.584 14.7956 16.9001 15.5587 17.4627 16.1213C18.0253 16.6839 18.7883 17 19.584 17H20.584V18C20.584 18.2652 20.4786 18.5196 20.2911 18.7071C20.1036 18.8946 19.8492 19 19.584 19H5.58398C5.31877 19 5.06441 18.8946 4.87688 18.7071C4.68934 18.5196 4.58398 18.2652 4.58398 18V8.83C4.90525 8.94302 5.24342 9.00051 5.58398 9H19.584C19.8492 9 20.1036 9.10536 20.2911 9.29289C20.4786 9.48043 20.584 9.73478 20.584 10V11Z" fill="#FF6664"/>
</svg>
