<svg width="25" height="24" viewBox="0 0 25 24" fill="none" xmlns="http://www.w3.org/2000/svg">
<path d="M21.904 9.55L20.014 8.92L20.904 7.14C20.9942 6.95369 21.0244 6.74397 20.9904 6.53978C20.9563 6.33558 20.8598 6.14699 20.714 6L18.584 3.87C18.4362 3.72209 18.2458 3.62421 18.0395 3.59013C17.8333 3.55605 17.6215 3.58748 17.434 3.68L15.654 4.57L15.024 2.68C14.9575 2.483 14.8312 2.31163 14.6627 2.18975C14.4942 2.06787 14.2919 2.00155 14.084 2H11.084C10.8743 1.99946 10.6698 2.06482 10.4994 2.18685C10.3289 2.30887 10.2011 2.48138 10.134 2.68L9.50399 4.57L7.72399 3.68C7.53767 3.58978 7.32795 3.55961 7.12376 3.59364C6.91957 3.62767 6.73097 3.72423 6.58399 3.87L4.45399 6C4.30607 6.14777 4.20819 6.33818 4.17411 6.54446C4.14003 6.75074 4.17146 6.96251 4.26399 7.15L5.15399 8.93L3.26399 9.56C3.06698 9.62654 2.89561 9.75283 2.77374 9.92131C2.65186 10.0898 2.58553 10.2921 2.58399 10.5V13.5C2.58345 13.7096 2.64881 13.9142 2.77083 14.0846C2.89285 14.2551 3.06537 14.3829 3.26399 14.45L5.15399 15.08L4.26399 16.86C4.17377 17.0463 4.14359 17.256 4.17762 17.4602C4.21166 17.6644 4.30822 17.853 4.45399 18L6.58399 20.13C6.73175 20.2779 6.92216 20.3758 7.12844 20.4099C7.33472 20.444 7.5465 20.4125 7.73399 20.32L9.51399 19.43L10.144 21.32C10.2111 21.5186 10.3389 21.6911 10.5094 21.8132C10.6798 21.9352 10.8843 22.0005 11.094 22H14.094C14.3036 22.0005 14.5081 21.9352 14.6786 21.8132C14.8491 21.6911 14.9769 21.5186 15.044 21.32L15.674 19.43L17.454 20.32C17.6391 20.4079 17.8468 20.4369 18.0489 20.4029C18.251 20.3689 18.4378 20.2737 18.584 20.13L20.714 18C20.8619 17.8522 20.9598 17.6618 20.9939 17.4555C21.0279 17.2493 20.9965 17.0375 20.904 16.85L20.014 15.07L21.904 14.44C22.101 14.3735 22.2724 14.2472 22.3942 14.0787C22.5161 13.9102 22.5824 13.7079 22.584 13.5V10.5C22.5845 10.2904 22.5192 10.0858 22.3971 9.91537C22.2751 9.7449 22.1026 9.61709 21.904 9.55ZM20.584 12.78L19.384 13.18C19.108 13.2695 18.8549 13.418 18.642 13.6151C18.4292 13.8122 18.2618 14.0533 18.1514 14.3216C18.0411 14.5899 17.9904 14.879 18.0029 15.1688C18.0155 15.4586 18.0909 15.7422 18.224 16L18.794 17.14L17.694 18.24L16.584 17.64C16.3275 17.5122 16.0466 17.4411 15.7603 17.4313C15.474 17.4215 15.1889 17.4734 14.9243 17.5834C14.6598 17.6934 14.4219 17.8589 14.2269 18.0688C14.0319 18.2787 13.8843 18.5281 13.794 18.8L13.394 20H11.804L11.404 18.8C11.3145 18.5241 11.166 18.2709 10.9689 18.0581C10.7718 17.8452 10.5307 17.6778 10.2624 17.5675C9.99412 17.4571 9.70504 17.4064 9.41521 17.419C9.12539 17.4315 8.84175 17.5069 8.58399 17.64L7.44399 18.21L6.34399 17.11L6.94399 16C7.07708 15.7422 7.15251 15.4586 7.16503 15.1688C7.17756 14.879 7.12688 14.5899 7.01653 14.3216C6.90617 14.0533 6.73877 13.8122 6.52593 13.6151C6.3131 13.418 6.05993 13.2695 5.78399 13.18L4.58399 12.78V11.22L5.78399 10.82C6.05993 10.7305 6.3131 10.582 6.52593 10.3849C6.73877 10.1878 6.90617 9.94671 7.01653 9.67842C7.12688 9.41014 7.17756 9.12105 7.16503 8.83123C7.15251 8.5414 7.07708 8.25777 6.94399 8L6.37399 6.89L7.47399 5.79L8.58399 6.36C8.84175 6.4931 9.12539 6.56852 9.41521 6.58105C9.70504 6.59358 9.99412 6.5429 10.2624 6.43254C10.5307 6.32218 10.7718 6.15478 10.9689 5.94195C11.166 5.72912 11.3145 5.47595 11.404 5.2L11.804 4H13.364L13.764 5.2C13.8535 5.47595 14.002 5.72912 14.1991 5.94195C14.3962 6.15478 14.6373 6.32218 14.9056 6.43254C15.1739 6.5429 15.4629 6.59358 15.7528 6.58105C16.0426 6.56852 16.3262 6.4931 16.584 6.36L17.724 5.79L18.824 6.89L18.224 8C18.0962 8.25645 18.0251 8.53735 18.0153 8.82369C18.0055 9.11003 18.0574 9.39513 18.1674 9.65969C18.2774 9.92424 18.4429 10.1621 18.6528 10.3571C18.8627 10.5521 19.1121 10.6997 19.384 10.79L20.584 11.19V12.78ZM12.584 8C11.7929 8 11.0195 8.2346 10.3617 8.67413C9.70391 9.11365 9.19122 9.73836 8.88847 10.4693C8.58572 11.2002 8.50651 12.0044 8.66085 12.7804C8.81519 13.5563 9.19615 14.269 9.75556 14.8284C10.315 15.3878 11.0277 15.7688 11.8036 15.9231C12.5795 16.0775 13.3838 15.9983 14.1147 15.6955C14.8456 15.3928 15.4703 14.8801 15.9099 14.2223C16.3494 13.5645 16.584 12.7911 16.584 12C16.584 10.9391 16.1626 9.92172 15.4124 9.17158C14.6623 8.42143 13.6449 8 12.584 8ZM12.584 14C12.1884 14 11.8017 13.8827 11.4728 13.6629C11.1439 13.4432 10.8876 13.1308 10.7362 12.7654C10.5849 12.3999 10.5452 11.9978 10.6224 11.6098C10.6996 11.2219 10.8901 10.8655 11.1698 10.5858C11.4495 10.3061 11.8058 10.1156 12.1938 10.0384C12.5818 9.96126 12.9839 10.0009 13.3494 10.1522C13.7148 10.3036 14.0272 10.56 14.2469 10.8889C14.4667 11.2178 14.584 11.6044 14.584 12C14.584 12.5304 14.3733 13.0391 13.9982 13.4142C13.6231 13.7893 13.1144 14 12.584 14Z" fill="#FF6664"/>
</svg>
