<svg width="20" height="20" viewBox="0 0 20 20" fill="none" xmlns="http://www.w3.org/2000/svg">
<path d="M11.366 8.11666L11.1243 9.55833C11.0842 9.80035 11.1139 10.0488 11.2098 10.2746C11.3057 10.5004 11.464 10.6942 11.666 10.8333C11.8551 10.9711 12.0798 11.0514 12.3133 11.0647C12.5468 11.078 12.7792 11.0237 12.9827 10.9083L14.166 10.2333L15.366 10.8917C15.566 11.006 15.7943 11.0612 16.0245 11.0509C16.2546 11.0406 16.4771 10.9651 16.666 10.8333C16.8622 10.6934 17.0153 10.5014 17.1081 10.2791C17.2008 10.0567 17.2296 9.81283 17.191 9.575L16.9493 8.13333L17.9494 7.11666C18.1144 6.94894 18.2301 6.73907 18.2839 6.51C18.3377 6.28093 18.3275 6.04148 18.2544 5.81783C18.1812 5.59418 18.048 5.39494 17.8693 5.24188C17.6906 5.08883 17.4733 4.98785 17.241 4.95L15.891 4.75L15.2827 3.45833C15.1822 3.24243 15.0222 3.05972 14.8214 2.93169C14.6206 2.80366 14.3875 2.73564 14.1493 2.73564C13.9112 2.73564 13.6781 2.80366 13.4773 2.93169C13.2765 3.05972 13.1165 3.24243 13.016 3.45833L12.4077 4.75L11.0577 4.95C10.8254 4.98785 10.6081 5.08883 10.4294 5.24188C10.2507 5.39494 10.1175 5.59418 10.0443 5.81783C9.97123 6.04148 9.96101 6.28093 10.0148 6.51C10.0686 6.73907 10.1843 6.94894 10.3493 7.11666L11.366 8.11666ZM12.891 6.34167C13.0954 6.31069 13.2889 6.22987 13.4546 6.10633C13.6203 5.98279 13.753 5.82034 13.841 5.63333L14.166 4.94166L14.491 5.63333C14.5803 5.8202 14.7132 5.98286 14.8786 6.10758C15.0439 6.23231 15.2368 6.31545 15.441 6.35L16.2744 6.46667L15.666 7.08333C15.525 7.22952 15.42 7.40653 15.3592 7.60035C15.2985 7.79417 15.2837 7.99947 15.316 8.2L15.4494 9.03333L14.791 8.675C14.6075 8.57283 14.401 8.51921 14.191 8.51921C13.981 8.51921 13.7745 8.57283 13.591 8.675L12.9327 9.03333L13.066 8.2C13.099 8.00075 13.0845 7.79653 13.0237 7.60394C12.9629 7.41135 12.8575 7.23583 12.716 7.09166L12.1077 6.46667L12.891 6.34167ZM17.4993 12.7167C17.2783 12.7167 17.0664 12.8045 16.9101 12.9607C16.7538 13.117 16.666 13.329 16.666 13.55V16.05C16.666 16.271 16.5782 16.483 16.4219 16.6393C16.2657 16.7955 16.0537 16.8833 15.8327 16.8833H4.16602C3.945 16.8833 3.73304 16.7955 3.57676 16.6393C3.42048 16.483 3.33268 16.271 3.33268 16.05V8.05833L8.23268 12.9583C8.46097 13.1908 8.73332 13.3754 9.03381 13.5013C9.3343 13.6272 9.65688 13.6919 9.98268 13.6917H10.2077C10.4275 13.6726 10.6307 13.5671 10.7729 13.3984C10.915 13.2297 10.9845 13.0115 10.966 12.7917C10.9566 12.6821 10.9256 12.5754 10.8747 12.4779C10.8239 12.3803 10.7542 12.2938 10.6698 12.2233C10.5854 12.1528 10.4878 12.0997 10.3827 12.0671C10.2777 12.0345 10.1672 12.023 10.0577 12.0333C9.94005 12.0454 9.82122 12.0307 9.71009 11.9903C9.59896 11.9498 9.49842 11.8848 9.41602 11.8L4.50768 6.88333H7.49935C7.72036 6.88333 7.93232 6.79553 8.0886 6.63925C8.24488 6.48297 8.33268 6.27101 8.33268 6.05C8.33268 5.82898 8.24488 5.61702 8.0886 5.46074C7.93232 5.30446 7.72036 5.21667 7.49935 5.21667H4.16602C3.50297 5.21667 2.86709 5.48006 2.39825 5.9489C1.92941 6.41774 1.66602 7.05362 1.66602 7.71666V16.05C1.66602 16.713 1.92941 17.3489 2.39825 17.8178C2.86709 18.2866 3.50297 18.55 4.16602 18.55H15.8327C16.4957 18.55 17.1316 18.2866 17.6005 17.8178C18.0693 17.3489 18.3327 16.713 18.3327 16.05V13.55C18.3327 13.329 18.2449 13.117 18.0886 12.9607C17.9323 12.8045 17.7204 12.7167 17.4993 12.7167Z" fill="#777C8B"/>
</svg>
