<svg width="84" height="94" viewBox="0 0 84 94" fill="none" xmlns="http://www.w3.org/2000/svg">
<path d="M81.4541 3.91064H63.9758C64.0365 7.46092 64.1215 14.6161 63.9758 14.8346C63.7938 15.1077 74.8998 15.1987 75.446 15.3807C75.8829 15.5264 79.9369 14.7739 81.9093 14.3794L77.8128 9.19053L81.4541 5.7313V3.91064Z" fill="#FF6664"/>
<path fill-rule="evenodd" clip-rule="evenodd" d="M63.3825 0.663752C62.7394 0.922831 62.703 1.4084 62.6107 10.9814L62.5197 20.4189L57.0581 23.39C54.054 25.0243 51.5348 26.3233 51.4596 26.2767C51.3842 26.2303 51.3227 26.073 51.3227 25.9271C51.3227 25.3949 49.1552 21.3726 48.5633 20.8065C47.1275 19.4329 45.3697 19.247 43.2654 20.2461C40.949 21.3462 39.8586 22.9707 40.0953 24.9691C40.2289 26.0981 42.2305 30.0312 43.0272 30.7309L43.594 31.2285L43.1082 32.2007C42.3997 33.6186 41.5993 36.4545 41.7446 37.0327C41.8196 37.3322 42.0929 37.621 42.4725 37.802C42.9977 38.0525 43.1512 38.0579 43.6055 37.8422C44.0397 37.6361 44.2043 37.355 44.5518 36.2273C45.2695 33.8985 45.529 33.2833 46.0217 32.7435C46.2933 32.4458 50.2907 30.1632 55.3281 27.4295C64.9495 22.2079 64.5983 22.3381 63.9711 24.2264C63.3949 25.961 62.4407 26.7064 55.2371 31.0486C51.6322 33.2217 48.5804 35.1276 48.4551 35.2842C48.3301 35.4406 48.2276 35.8338 48.2276 36.1579C48.2276 36.8712 48.9911 37.5722 49.6346 37.4493C49.868 37.4047 50.0426 37.4584 50.0353 37.5726C50.028 37.6838 49.516 39.2445 48.8974 41.0405L47.7724 44.3062L44.7776 45.5408C43.1305 46.2197 41.7511 46.7435 41.7122 46.7046C41.6732 46.6656 41.9483 45.5208 42.3234 44.1606C42.8923 42.0969 42.9708 41.6115 42.7966 41.2295C42.3966 40.3516 41.0036 40.23 40.4958 41.0289C40.3603 41.2419 39.7836 43.0547 39.2141 45.0574C38.0867 49.0219 38.1091 48.8442 37.69 57.1648L37.5205 60.533L34.5659 66.7232C32.9408 70.1278 31.5302 73.0159 31.4311 73.141C31.3017 73.3045 30.4988 73.3686 28.578 73.3686C26.067 73.3686 25.8477 73.3971 24.9587 73.8401C22.968 74.8322 22.3743 76.1523 22.3743 79.5866V81.9165L21.9073 81.739C21.6348 81.6354 18.6742 81.5615 14.8009 81.5615C7.40527 81.5615 7.39599 81.5628 6.10332 82.7994C4.86364 83.9852 4.72254 84.5128 4.71799 87.9793L4.71399 91.0289H2.79411C0.998218 91.0289 0.845101 91.0578 0.427261 91.4759C-0.14242 92.0454 -0.14242 92.7434 0.427261 93.3129L0.874049 93.7599H41.6332H82.3923L82.7883 93.3386C83.3141 92.7787 83.3028 91.9321 82.7628 91.4247C82.3819 91.0669 82.1452 91.0289 80.3049 91.0289H78.2683V72.8581V54.6874L77.7968 53.741C77.5373 53.2205 77.0299 52.5512 76.6691 52.2537C75.459 51.2564 74.8395 51.1566 69.8609 51.1566H65.3417V39.3683V27.5797L66.0687 26.123C66.9297 24.3976 67.225 22.8156 66.9912 21.1803C66.7895 19.7697 66.5803 19.3819 65.8917 19.1417C65.3552 18.9547 65.3417 18.9207 65.3417 17.7571V16.5642H73.7225C83.1 16.5642 83.0634 16.5686 83.6289 15.377C84.2 14.1734 83.8881 13.6321 81.364 11.4466C79.7006 10.0064 79.2362 9.51121 79.4191 9.37266C79.5513 9.27252 80.5339 8.42337 81.6028 7.48555C83.832 5.52963 84.1831 4.90059 83.6602 3.79873C83.0912 2.59965 83.4268 2.64153 73.9443 2.58399L65.3417 2.53174V1.93293C65.3417 0.939945 64.3276 0.283054 63.3825 0.663752ZM79.7248 5.45826C79.7248 5.55839 79.6635 5.64178 79.5883 5.64342C79.5131 5.64524 78.7282 6.32106 77.8439 7.14545C76.3925 8.49856 76.2261 8.72214 76.1323 9.44421L76.0285 10.244L77.9222 12.0399L79.8159 13.836L72.6243 13.789L65.4327 13.7422L65.3836 9.74116C65.3564 7.54054 65.3745 5.63559 65.4232 5.50814C65.5367 5.21265 79.7248 5.16331 79.7248 5.45826ZM46.7585 22.8708C47.3489 23.6214 48.7738 26.5237 48.7738 26.9758C48.7738 27.6247 48.3018 28.1727 47.3107 28.6748C46.3079 29.183 45.567 29.2476 45.0365 28.8733C44.839 28.734 44.2354 27.7214 43.6952 26.6233C42.5768 24.3493 42.5648 23.9754 43.586 23.1965C44.8976 22.1961 46.1283 22.0697 46.7585 22.8708ZM62.6107 40.5058V51.1566L62.11 51.1584C61.3889 51.161 59.8839 51.9138 59.2054 52.6115C57.9988 53.8521 57.9737 53.9897 57.9145 59.6682C57.885 62.4969 57.8031 64.811 57.7325 64.8104C57.6618 64.8099 57.2993 64.7248 56.9272 64.6214C56.3227 64.4536 56.2595 64.3807 56.3373 63.9398C56.6022 62.4372 57.3508 55.8299 57.355 54.9572C57.3623 53.4548 56.8673 52.6477 53.4425 48.5788L50.43 44.9995L52.0699 40.0836L53.7097 35.1677L57.1132 33.1129C58.9852 31.9828 60.9266 30.7915 61.4273 30.4658C61.928 30.1399 62.399 29.8692 62.4742 29.8643C62.5494 29.8592 62.6107 34.6479 62.6107 40.5058ZM45.9401 54.0773C44.9451 59.5032 44.6853 60.6315 44.3064 61.1687C44.0588 61.5199 41.9106 64.3882 39.533 67.5425C35.7466 72.5657 34.5727 73.908 34.5727 73.2147C34.5727 73.1153 35.8054 70.44 37.312 67.2699C40.4585 60.6489 40.2269 61.562 40.5921 54.3428C40.7086 52.0396 40.8561 50.1307 40.92 50.1005C41.468 49.8419 47.0532 47.5712 47.0836 47.5945C47.1055 47.6111 46.5908 50.5285 45.9401 54.0773ZM51.9681 51.0752C54.4582 54.0369 54.5998 54.2576 54.5998 55.1741C54.5998 55.8656 53.8466 62.3487 53.5912 63.8557C53.51 64.3352 53.4062 64.4474 53.0441 64.4474C52.7983 64.4474 52.5948 64.4268 52.5918 64.4019C52.5887 64.3769 52.397 62.5129 52.1656 60.2599C51.8734 57.4135 51.6489 55.9782 51.4303 55.5564C51.2402 55.1899 50.6614 54.6601 49.9692 54.2188L48.8229 53.488L49.0505 52.2767C49.1756 51.6107 49.3795 50.4558 49.5035 49.7107C49.6819 48.6372 49.7715 48.4122 49.9341 48.6279C50.0469 48.7776 50.9622 49.8789 51.9681 51.0752ZM74.5025 54.091C74.7211 54.2028 75.0416 54.4691 75.2147 54.6827C75.5078 55.0446 75.5295 56.2901 75.5333 73.0499L75.5373 91.0289H68.0727H60.608V86.8294C60.608 81.8763 60.5261 81.5706 59.197 81.5642C58.8451 81.5626 58.4578 81.709 58.2411 81.9256C57.8972 82.2696 57.877 82.5325 57.877 86.6593V91.0289H50.3148H42.7525L42.8046 79.7864C42.8617 67.4409 42.8082 68.0049 43.9749 67.4514C44.8315 67.0449 56.0037 67.0476 56.7906 67.4545C57.7853 67.9689 57.877 68.4067 57.877 72.6396C57.877 76.4746 57.8777 76.481 58.324 76.927C58.5698 77.1728 58.9831 77.374 59.2425 77.374C59.5019 77.374 59.9152 77.1728 60.161 76.927L60.608 76.4802V65.8028V55.1256L61.227 54.5066L61.846 53.8876H67.9754C72.1311 53.8876 74.2328 53.9531 74.5025 54.091ZM48.7952 56.6723C49.0256 56.8478 49.1696 57.7093 49.4565 60.6266C49.6582 62.6779 49.8032 64.3795 49.7782 64.4077C49.7534 64.4359 48.7441 64.4359 47.5352 64.4077L45.3373 64.3563L46.2248 63.1729C47.1861 61.891 47.4707 61.0846 47.975 58.2116C48.1465 57.2352 48.3348 56.4391 48.3936 56.4423C48.4526 56.4454 48.6332 56.549 48.7952 56.6723ZM40.0346 72.5637V73.5796L39.4429 73.4529C39.1176 73.3831 38.8221 73.2996 38.7864 73.2673C38.7199 73.2071 39.8662 71.5479 39.9745 71.5479C40.0075 71.5479 40.0346 72.0051 40.0346 72.5637ZM39.5024 76.6317L40.0346 77.1639V84.0964V91.0289H32.57H25.1053V84.2805C25.1053 77.2609 25.1268 77.0488 25.9004 76.4222C26.2514 76.1378 26.8966 76.1072 32.6295 76.1036L38.9703 76.0995L39.5024 76.6317ZM21.474 84.48C22.2112 84.8744 22.3743 85.5813 22.3743 88.3798V91.0289H14.9096H7.44496V88.1929V85.3568L7.97714 84.8247L8.50932 84.2925H14.8166C18.7944 84.2925 21.2531 84.3617 21.474 84.48Z" fill="#595F6F"/>
</svg>
