<svg width="85" height="94" viewBox="0 0 85 94" fill="none" xmlns="http://www.w3.org/2000/svg">
<path d="M26.7247 22.2253L4.23964 43.2538L1.14453 39.9766L25.0861 16.1261L33.6432 18.766L43.2016 8.11523L37.2845 5.74839L38.1038 1.83398L54.0345 2.92638V16.1261L51.8497 18.766C51 18.2805 49.2097 17.2367 48.8456 16.9454C48.4815 16.6541 48.1477 13.3041 48.0263 11.6655C43.414 16.0654 34.0801 24.8652 33.6432 24.8652C33.2062 24.8652 28.8488 23.1053 26.7247 22.2253Z" fill="#FF6664"/>
<path fill-rule="evenodd" clip-rule="evenodd" d="M38.6501 0.987878C37.5637 1.50567 37.0699 2.00945 36.5716 3.10857C35.9296 4.52468 36.1973 6.60149 37.1542 7.62725C37.7479 8.26357 38.8219 8.75769 39.8856 8.88368L40.8232 8.99474L36.7342 12.9521L32.6452 16.9097L30.0946 15.585C27.1377 14.0492 26.447 13.8772 24.9564 14.3054C23.9095 14.606 23.8292 14.6821 12.4327 26.1739C6.12412 32.5352 0.772863 38.0538 0.540912 38.4378C0.308415 38.8225 0.0740967 39.5726 0.0187489 40.1097C-0.160585 41.8468 0.964031 43.674 2.64431 44.3762C3.50402 44.7352 5.05813 44.7212 5.80605 44.3474C6.14615 44.1774 11.0632 39.4076 16.7327 33.7481L27.0409 23.458L29.6424 24.7958C32.0304 26.024 32.3348 26.134 33.3532 26.1367C34.0948 26.1387 34.7016 26.0213 35.1837 25.7822C35.5857 25.5829 38.3673 23.0518 41.465 20.0665C45.5758 16.1049 47.0374 14.7982 47.0724 15.0531C47.5401 18.4618 48.7494 19.8939 51.1767 19.9136C52.9759 19.9279 54.4176 19.0178 55.1504 17.4047C55.4523 16.74 55.4834 16.0745 55.4871 10.1962L55.4911 3.72013L54.9904 2.73243C54.6144 1.99106 54.2665 1.60854 53.5942 1.1978L52.6984 0.650694L46.1295 0.602446L39.5604 0.554199L38.6501 0.987878ZM52.4735 3.7458C52.7057 4.05313 52.7494 5.05157 52.7543 10.1534L52.7601 16.1969L52.3337 16.6926C51.7487 17.3727 50.8584 17.3727 50.2735 16.6926C49.8693 16.2227 49.8471 16.0614 49.8471 13.5873C49.8471 11.309 49.8039 10.9243 49.5064 10.557C49.263 10.2565 48.9759 10.1363 48.5007 10.1363C47.9279 10.1363 47.6663 10.3014 46.6112 11.3288C39.2926 18.4554 34.0746 23.3398 33.6702 23.4425C33.2844 23.5403 32.5802 23.249 30.1471 21.9847C28.4746 21.1157 26.8934 20.4048 26.6332 20.4048C26.2498 20.4048 24.1406 22.4392 15.4956 31.1466C5.54097 41.1729 4.78922 41.8885 4.20843 41.8885C3.05268 41.8885 2.37194 40.758 2.92669 39.7605C3.0485 39.5413 8.21641 34.2774 14.411 28.0628C21.7406 20.7094 25.7999 16.7635 26.0346 16.7635C26.233 16.7635 27.7633 17.4599 29.435 18.311C31.1067 19.1622 32.7027 19.8586 32.9816 19.8586C33.4914 19.8586 34.5381 18.9004 43.4415 10.283C45.6543 8.14122 45.7131 8.06402 45.5964 7.46102C45.3794 6.33932 45.0196 6.20368 42.263 6.20368C39.9087 6.20368 39.8002 6.18693 39.3701 5.75671C38.8855 5.27224 38.789 4.48025 39.1566 4.00561C39.6882 3.31941 39.9648 3.29301 46.1526 3.33779C51.9587 3.37985 52.2095 3.39605 52.4735 3.7458ZM62.6506 11.0173C60.9909 11.5364 59.622 12.7777 58.8232 14.4876L58.3131 15.58L58.2625 36.994L58.2121 58.4081L57.1854 58.6142C56.6206 58.7277 56.0935 58.8205 56.014 58.8205C55.9342 58.8205 55.8456 52.0817 55.8166 43.8457L55.7642 28.8708L55.3485 27.8427C54.7608 26.3892 53.7065 25.2686 52.2536 24.5535C51.0487 23.9601 51.0152 23.955 48.3944 23.955C45.9015 23.955 45.6905 23.9831 44.7001 24.4473C43.3151 25.0962 41.9799 26.4814 41.4468 27.8217C41.0397 28.8455 41.028 29.0543 40.9639 36.454L40.898 44.0374L39.8397 44.6014C39.2574 44.9118 38.7409 45.1656 38.6918 45.1656C38.6428 45.1656 38.5685 43.8753 38.527 42.2981C38.4583 39.6887 38.4094 39.3405 37.9841 38.4292C37.4259 37.2334 36.4451 36.22 35.3001 35.6558C34.5212 35.272 34.2268 35.2431 31.0944 35.2431C27.7968 35.2431 27.707 35.2533 26.8158 35.7275C25.6359 36.3553 24.8564 37.1857 24.2797 38.4292L23.8154 39.4306L23.8136 46.2582L23.8118 53.086L21.5516 54.2976C19.4192 55.441 18.938 55.6096 13.04 57.2784C5.77638 59.3336 4.2849 59.9517 2.88045 61.4883C1.88182 62.5811 1.03686 64.2096 0.687656 65.7146C0.364673 67.1068 0.571316 68.7851 1.49675 72.285C2.33334 75.4489 2.60535 75.9346 3.53989 75.9346C4.04293 75.9346 4.87698 75.1914 4.87698 74.7432C4.87698 74.5793 4.50138 72.9985 4.04239 71.2301C3.34836 68.557 3.22382 67.8306 3.30357 66.9224C3.4738 64.9836 4.50119 63.2749 6.038 62.3742C6.70036 61.9861 18.8643 58.3368 18.9776 58.4922C18.9996 58.5227 21.0076 63.8679 23.4394 70.3707L27.8612 82.1942L27.7744 83.4055C27.6184 85.5883 26.2867 87.6074 24.402 88.5199C23.1357 89.1329 15.2154 90.9037 13.6161 90.9313C11.9746 90.9597 10.6497 90.4268 9.55969 89.2999C8.57181 88.2785 8.28797 87.5662 7.24437 83.4903C6.48443 80.5229 6.2279 79.7733 5.8574 79.4394C5.09491 78.7523 3.95609 79.0496 3.71813 79.9981C3.57394 80.5726 5.45394 87.701 6.13159 89.1489C6.7415 90.4525 8.22843 92.0057 9.56006 92.7305C10.5805 93.286 12.4305 93.7703 13.5467 93.7743C15.4275 93.781 24.2201 91.7497 25.9862 90.9004C27.4013 90.22 29.0816 88.5051 29.7686 87.0406C30.4336 85.6221 30.5864 84.8555 30.5755 82.9897C30.5709 82.2137 30.6132 81.5787 30.6692 81.5787C30.9869 81.5787 60.7231 74.2323 61.6893 73.915C63.191 73.4221 64.7713 72.6252 66.1419 71.6701C66.7427 71.2514 70.6753 68.0734 74.881 64.608C83.0077 57.9118 83.5184 57.4028 84.0098 55.508C84.3508 54.1939 84.3206 53.3526 83.8865 52.0641C83.4011 50.6234 82.844 49.7644 81.7977 48.8433C79.8572 47.1354 77.1872 46.8794 74.5489 48.1484C73.7959 48.5105 73.1325 48.8069 73.0746 48.8069C73.0167 48.8069 72.9693 43.6514 72.9693 37.3501V25.8931L72.4896 25.5159C71.8651 25.0245 71.466 25.0396 70.8403 25.5778L70.3294 26.0171L70.279 38.5015L70.2287 50.9857L68.4583 52.3217C65.1511 54.8174 61.5457 57.1819 61.0475 57.1819C60.9915 57.1819 60.9676 47.9035 60.9947 36.563C61.0397 17.7759 61.0708 15.8956 61.3454 15.398C62.1461 13.9464 63.2061 13.4848 65.7264 13.4903C67.9387 13.495 68.8137 13.8033 69.6223 14.8631C70.1397 15.5413 70.1488 15.5948 70.248 18.5481C70.344 21.3981 70.3695 21.5618 70.7689 21.8853C71.2805 22.2995 72.0208 22.3228 72.5646 21.9419C72.955 21.6687 72.9693 21.5518 72.9693 18.6717C72.9693 16.1266 72.9153 15.5402 72.6038 14.7076C71.9532 12.9689 70.4432 11.5673 68.6258 11.0158C67.5451 10.6878 63.7015 10.6889 62.6506 11.0173ZM51.5004 27.2331C51.9252 27.533 52.4437 28.1061 52.6529 28.5067C53.0283 29.2255 53.0339 29.4283 53.0838 44.0277L53.1344 58.8205H48.5777C46.0716 58.8205 44.021 58.7521 44.021 58.6685C44.021 58.5849 44.7636 57.916 45.6714 57.1823C46.5792 56.4486 47.7326 55.3904 48.2343 54.8309C49.2779 53.6675 50.5901 51.1044 51.0387 49.3531C51.803 46.3689 50.6356 43.7264 48.0357 42.555C47.1658 42.1632 45.2936 42.0348 44.3396 42.3016L43.8389 42.4416V35.7854C43.8389 29.514 43.8597 29.0885 44.1989 28.4236C44.5799 27.6768 45.3512 27.0272 46.1677 26.7656C46.439 26.6785 47.5762 26.6256 48.6946 26.6476C50.63 26.6858 50.7658 26.7141 51.5004 27.2331ZM34.3733 38.2927C35.6844 39.185 35.731 39.3468 35.7918 43.2212L35.8466 46.7132L31.3057 49.1255C28.8082 50.4524 26.715 51.5379 26.6538 51.5379C26.5928 51.5379 26.5427 48.8874 26.5427 45.6477C26.5427 39.8271 26.5476 39.7503 26.956 39.1389C27.6717 38.0675 28.2938 37.8836 31.204 37.8834C33.5672 37.883 33.8193 37.9156 34.3733 38.2927ZM46.9328 45.0953C48.3578 45.6656 48.8308 46.9633 48.3021 48.8528C47.5765 51.4458 46.5011 52.9886 44.0179 54.9997C41.8477 56.7572 41.4737 57.2812 41.4728 58.566C41.4719 59.6425 41.9433 60.4831 42.9144 61.1375C43.5252 61.5491 43.5655 61.5515 50.1238 61.5515C56.5403 61.5515 56.7676 61.5393 58.5174 61.0998C61.2627 60.4103 63.039 59.3989 69.4191 54.8925C72.6234 52.6292 75.5492 50.6207 75.9206 50.4293C77.4332 49.6501 79.6045 50.1706 80.6053 51.5521C81.9377 53.3913 81.6863 55.1976 79.8574 56.9259C79.1761 57.5697 67.4546 67.2161 65.1405 69.0371C64.0323 69.9094 62.8205 70.585 61.4157 71.1137C59.8377 71.7076 29.7737 79.0571 29.6087 78.8892C29.537 78.8162 27.705 74.0064 25.5375 68.2007C23.3702 62.3948 21.5678 57.5976 21.5323 57.5401C21.4966 57.4825 25.7779 55.1457 31.0463 52.3474C44.5189 45.1909 45.2785 44.8015 45.7646 44.8015C46.0031 44.8015 46.5288 44.9337 46.9328 45.0953ZM15.8276 77.0407C11.8557 77.8216 10.2443 83.015 13.0703 85.9269C14.0693 86.9563 15.115 87.4428 16.5503 87.5458C19.4245 87.7521 21.811 85.8193 22.2766 82.9079C22.6797 80.3869 20.7909 77.7039 18.1799 77.0893C17.0482 76.8228 16.9464 76.8207 15.8276 77.0407ZM18.0767 79.9401C19.9829 80.8628 20.1025 83.3744 18.2944 84.5105C17.4832 85.0202 15.9873 84.9114 15.327 84.2945C14.5825 83.5989 14.2928 82.8899 14.3924 82.0063C14.5108 80.9569 14.9428 80.3455 15.8606 79.9288C16.8266 79.4902 17.1507 79.4918 18.0767 79.9401Z" fill="#595F6F"/>
</svg>
