<svg width="94" height="94" viewBox="0 0 94 94" fill="none" xmlns="http://www.w3.org/2000/svg">
<rect x="1.27148" y="22.7666" width="30.5119" height="12.189" transform="rotate(-44.6679 1.27148 22.7666)" fill="#FF6664"/>
<rect x="69.2319" y="1.09229" width="30.5119" height="12.189" transform="rotate(45.3321 69.2319 1.09229)" fill="#FF6664"/>
<rect x="62.062" y="83.3521" width="30.5119" height="12.189" transform="rotate(-44.6679 62.062 83.3521)" fill="#FF6664"/>
<rect x="11.7417" y="62.9946" width="30.5119" height="12.189" transform="rotate(45.3321 11.7417 62.9946)" fill="#FF6664"/>
<path fill-rule="evenodd" clip-rule="evenodd" d="M22.6152 0.468454C22.2255 0.858073 22.1647 1.04888 22.2541 1.59944C22.345 2.15966 22.8823 2.78305 25.7343 5.63819L29.1072 9.01459L19.0474 19.0731L8.98759 29.1317L5.72043 25.8607C3.92344 24.0617 2.22405 22.4949 1.94385 22.3787C0.922098 21.9556 -0.234198 22.9863 0.0412663 24.0747C0.0987989 24.3019 1.97607 26.3106 4.21311 28.5387C8.08636 32.3965 8.3134 32.5897 8.9732 32.5897C9.5864 32.5897 9.82181 32.4387 11.0194 31.2775L12.3727 29.9652L15.8261 33.4186L19.2795 36.872L19.6592 39.237C19.9455 41.0207 20.132 41.7026 20.4178 42.0115C20.8275 42.4543 21.6111 42.549 22.2106 42.228C22.9101 41.8537 22.9451 41.2946 22.4582 38.2679L21.9987 35.4117L18.2263 31.6331L14.4541 27.8547L20.595 21.7136L26.736 15.5728L30.4256 19.2379L34.1151 22.9029L35.5717 23.0076C40.6635 23.3735 40.8459 23.3701 41.3997 22.8936C42.0654 22.321 42.0965 21.4598 41.4737 20.8459C41.066 20.4441 40.8288 20.4008 38.2473 20.2548L35.461 20.0973L32.1539 16.7902L28.8469 13.4832L30.7072 11.5928C33.4351 8.82069 33.5855 9.31063 28.4212 4.14635C24.704 0.42931 24.2131 0 23.6792 0C23.2821 0 22.9274 0.156212 22.6152 0.468454ZM62.9965 4.26324C57.9589 9.30062 58.125 8.88369 60.2888 11.0625L61.6019 12.3844L58.1452 15.8395L54.6885 19.2945L50.1798 20.0175C47.6999 20.415 45.557 20.8051 45.4176 20.8843C45.2783 20.9637 44.2962 22.0002 43.2355 23.188C41.2936 25.362 41.0782 25.7744 41.4198 26.6644C41.5885 27.1039 42.5089 27.517 43.029 27.3864C43.2785 27.3238 44.1074 26.5695 44.8841 25.6985C45.6564 24.8322 46.4169 23.9833 46.574 23.8119C46.7854 23.5813 47.926 23.3315 50.9562 22.8523C53.2092 22.496 55.2984 22.1564 55.5988 22.0978C55.9975 22.0199 57.1653 20.9776 59.9256 18.2356L63.7062 14.4802L69.8471 20.6212L75.9881 26.7623L72.2567 30.4968L68.5254 34.2313L68.4124 37.7346C68.274 42.0223 68.3984 42.4212 69.874 42.4212C70.1695 42.4212 70.5458 42.238 70.7947 41.9729C71.1922 41.55 71.2206 41.3526 71.3001 38.4682L71.3844 35.4117L74.6827 32.093L77.981 28.7743L79.9169 30.682C82.7156 33.4397 82.2568 33.5637 87.1174 28.7368C89.2512 26.6176 91.1236 24.6172 91.2781 24.2915C91.6106 23.5909 91.4394 22.9517 90.7995 22.5034C89.9014 21.8744 89.6694 22.0275 86.011 25.6685L82.5379 29.1251L72.4379 19.0238L62.3376 8.92229L65.7502 5.50638C68.9376 2.31551 69.1627 2.04623 69.1627 1.42248C69.1627 0.917973 69.0454 0.662535 68.6829 0.377421C67.6961 -0.398905 67.5771 -0.317522 62.9965 4.26324ZM48.8118 27.3844C47.7462 27.7322 46.8682 28.4404 46.2987 29.4121L45.8208 30.2277L45.2 29.6824C44.241 28.8406 43.5082 28.5369 42.2116 28.444C41.2519 28.3754 40.8359 28.4379 40.075 28.7652C39.2193 29.1333 37.988 30.225 37.5543 30.9999C37.4014 31.273 37.2962 31.257 36.4339 30.8304C34.4993 29.8729 32.1299 30.3708 30.7061 32.0342C30.1228 32.7155 29.8259 33.3959 29.569 34.6379C29.4867 35.0359 29.3636 35.1389 28.9683 35.1404C28.186 35.1431 26.7064 35.9246 26.0347 36.6896C25.1907 37.6509 24.8675 38.4975 24.8549 39.7812C24.8347 41.8353 24.8222 41.8186 30.9911 48.0197C34.5499 51.5973 36.5271 53.7092 36.3174 53.7092C35.7574 53.7092 31.5902 55.1656 31.2021 55.4971C30.5971 56.0136 30.354 56.3978 30.1998 57.0813C29.877 58.5125 29.9801 58.6445 36.6176 65.3026C40.569 69.2663 43.1241 71.6894 43.6566 71.9784C44.9272 72.6671 46.1946 72.8162 52.2037 72.9837L57.7299 73.1378L61.028 76.4359L64.3263 79.7342L62.466 81.6245C59.7381 84.3967 59.5877 83.9067 64.752 89.071C68.3183 92.6373 68.975 93.2174 69.4452 93.2174C70.6085 93.2174 71.2766 92.1153 70.7341 91.0914C70.5842 90.8086 69.0221 89.1442 67.2626 87.3926L64.0636 84.2077L74.1199 74.15L84.1765 64.0922L87.6496 67.5489C90.7245 70.6091 91.1904 71.0054 91.7122 71.0054C92.5047 71.0054 93.1953 70.3119 93.1953 69.5161C93.1953 68.9821 92.766 68.4913 89.0489 64.7741C85.0843 60.8096 84.872 60.6277 84.2047 60.6277C83.5855 60.6277 83.3547 60.7754 82.1538 61.9398L80.8005 63.2522L77.3461 59.7977L73.8916 56.3433L73.1619 51.7946L72.4322 47.2459L62.8321 37.6382C56.5257 31.3267 52.9787 27.9071 52.4937 27.671C51.5113 27.1929 49.8057 27.0602 48.8118 27.3844ZM51.2018 30.3131C51.5173 30.4628 55.8067 34.6208 60.7338 39.5529L69.6919 48.5204L70.4328 53.163L71.1734 57.8057L74.9463 61.5843L78.7191 65.3627L72.5782 71.5037L66.4372 77.6446L62.7476 73.9818L59.0581 70.319L57.0553 70.21C55.9538 70.1501 53.1273 70.0516 50.7741 69.991C48.4209 69.9305 46.1678 69.7996 45.7673 69.7C45.1452 69.5456 44.1837 68.6668 39.1702 63.6689C35.9422 60.4513 33.3614 57.7651 33.4351 57.6997C33.8424 57.3383 36.5073 56.6225 37.4395 56.6241C39.1734 56.627 40.126 57.2045 42.8583 59.9102C44.9272 61.9588 45.3149 62.2663 45.8294 62.2663C46.2148 62.2663 46.5768 62.1104 46.8679 61.8193C47.8441 60.8433 48.1198 61.1761 37.5935 50.6212C27.4324 40.4329 27.3949 40.3895 27.8151 39.2842C28.1288 38.4593 28.7304 38.0516 29.6343 38.0516H30.4558L36.3909 43.9687C42.9123 50.4703 42.8197 50.4037 43.8696 49.3537C44.1624 49.0609 44.4018 48.636 44.4018 48.4093C44.4018 48.1116 42.7636 46.35 38.5056 42.0685C33.9657 37.5036 32.5807 36.0058 32.4849 35.5568C32.1912 34.182 33.6223 32.8588 34.8905 33.3325C35.1649 33.435 38.0142 36.1365 41.2222 39.3355C47.6347 45.7306 47.5519 45.6714 48.6033 44.62C48.8961 44.3272 49.1355 43.901 49.1355 43.6729C49.1355 43.3752 47.9337 42.0461 44.8832 38.9707C42.5444 36.6128 40.4961 34.4808 40.3316 34.2332C39.4939 32.9735 40.3714 31.3152 41.8758 31.3152C42.6496 31.3152 42.6864 31.3463 47.0332 35.6642C49.4412 38.0562 51.5903 40.1044 51.8089 40.2158C52.43 40.5323 52.7628 40.4605 53.337 39.8863C54.296 38.9274 54.1638 38.6621 51.2518 35.7039C48.5702 32.9798 48.2112 32.424 48.5063 31.4558C48.8726 30.254 50.0371 29.7602 51.2018 30.3131ZM23.3229 43.2716C22.8615 43.4571 22.3512 44.827 22.1942 46.3014C22.107 47.1212 21.9818 50.0452 21.916 52.7989L21.7966 57.8057L18.4943 61.1244L15.1922 64.4431L13.2563 62.5354C10.4619 59.7818 10.9064 59.6653 6.1288 64.4056C4.03468 66.4835 2.15959 68.4438 1.96205 68.762C1.5251 69.4661 1.64362 70.129 2.29869 70.6442C3.23615 71.3816 3.44406 71.2492 7.1622 67.5489L10.6353 64.0922L20.7353 74.1936L30.8356 84.2951L27.423 87.711C24.2355 90.9019 24.0105 91.1711 24.0105 91.7949C24.0105 92.2994 24.1278 92.5548 24.4903 92.84C25.477 93.6163 25.5961 93.5349 30.1767 88.9541C35.2141 83.9169 35.048 84.3335 32.8849 82.1555L31.5726 80.8342L35.016 77.3872L38.4592 73.9403L39.7007 73.7309C40.6675 73.5678 41.0225 73.4191 41.3063 73.0582C41.7466 72.4987 41.7704 71.9567 41.3793 71.3985C40.9209 70.744 40.431 70.6568 38.7507 70.9299C37.9034 71.0675 37.1736 71.1818 37.129 71.1838C37.0844 71.1858 35.3422 72.8862 33.2576 74.9622L29.467 78.7372L23.3261 72.5961L17.1851 66.4551L20.9165 62.7207L24.6477 58.9864L24.7867 53.6623C24.9101 48.9282 25.0299 47.1906 25.4024 44.7303C25.4876 44.1677 25.4284 43.9511 25.0914 43.5924C24.6929 43.1682 23.9262 43.0291 23.3229 43.2716Z" fill="#595F6F"/>
</svg>
