<svg width="82" height="89" viewBox="0 0 82 89" fill="none" xmlns="http://www.w3.org/2000/svg">
<rect x="1.54736" y="54.6172" width="8.92119" height="12.0163" fill="#FF6664"/>
<rect x="65.4526" y="54.6172" width="14.9293" height="12.0163" fill="#FF6664"/>
<path fill-rule="evenodd" clip-rule="evenodd" d="M15.2228 1.19575C10.6066 2.43725 7.75051 7.217 8.92684 11.7331C10.1449 16.4095 14.9175 19.2941 19.4733 18.1074C24.136 16.8929 27.0339 12.1158 25.8547 7.58842C24.6256 2.86947 19.7965 -0.0342864 15.2228 1.19575ZM58.9185 1.19575C54.3022 2.43725 51.4462 7.217 52.6225 11.7331C53.8405 16.4095 58.6131 19.2941 63.169 18.1074C67.8317 16.8929 70.7296 12.1158 69.5503 7.58842C68.3212 2.86947 63.4921 -0.0342864 58.9185 1.19575ZM20.1277 4.56905C21.3588 5.22521 21.9148 5.80436 22.6243 7.16967C23.0349 7.95983 23.1081 8.33197 23.1115 9.64703C23.1152 11.0642 23.0633 11.2913 22.4969 12.3418C21.8079 13.6195 21.2366 14.1712 19.8646 14.8841C19.0717 15.2961 18.707 15.3673 17.3872 15.3673C16.0674 15.3673 15.7028 15.2961 14.9099 14.8841C13.5378 14.1712 12.9665 13.6195 12.2776 12.3418C11.7104 11.29 11.6595 11.066 11.6649 9.64703C11.6717 7.82091 12.1037 6.72852 13.2864 5.54674C15.1039 3.73064 17.8251 3.34157 20.1277 4.56905ZM63.8233 4.56905C65.0544 5.22521 65.6105 5.80436 66.32 7.16967C66.7305 7.95983 66.8037 8.33197 66.8072 9.64703C66.8108 11.0642 66.7589 11.2913 66.1925 12.3418C65.5036 13.6195 64.9323 14.1712 63.5602 14.8841C62.7673 15.2961 62.4027 15.3673 61.0829 15.3673C59.7631 15.3673 59.3984 15.2961 58.6055 14.8841C57.2335 14.1712 56.6621 13.6195 55.9732 12.3418C55.4061 11.29 55.3551 11.066 55.3606 9.64703C55.3673 7.82091 55.7993 6.72852 56.982 5.54674C58.7996 3.73064 61.5207 3.34157 63.8233 4.56905ZM12.3098 21.587C9.23234 22.4145 6.81852 24.8628 6.00669 27.9797C5.77911 28.8536 5.73505 30.9893 5.73505 41.1665V53.3104L3.74508 53.3722C1.59471 53.4386 1.18943 53.5968 0.375418 54.6872C0.0158397 55.1688 0 55.4197 0 60.6253C0 65.8309 0.0158397 66.0818 0.375418 66.5633C1.27591 67.7695 1.43085 67.8116 5.2016 67.8735L8.6481 67.9299V77.6677V87.4054L9.09507 87.8522C9.68623 88.4436 10.523 88.4436 11.1142 87.8522L11.5611 87.4054V70.8209V54.2364L11.1142 53.7896C10.7466 53.4219 10.4873 53.3427 9.65164 53.3427H8.63608L8.6876 40.9167L8.73913 28.4908L9.18992 27.5804C9.76488 26.4196 10.856 25.3287 12.0163 24.7544C12.8735 24.3302 13.1018 24.304 15.9307 24.3036C18.8305 24.3033 18.9665 24.32 19.8451 24.7857C20.9226 25.3569 22.0313 26.4198 22.4756 27.3074C22.6509 27.6578 23.8818 30.6892 25.2107 34.0438C26.5396 37.3983 27.7604 40.278 27.9235 40.4434C28.0866 40.6085 30.7599 41.6641 33.8641 42.7891C36.9683 43.9141 39.6136 44.8745 39.7425 44.9232C40.1346 45.0714 40.5266 46.0198 40.4015 46.518C40.259 47.0858 39.674 47.5166 39.0451 47.5166C38.6626 47.5166 31.4086 44.9686 26.6551 43.1643C25.4653 42.7128 25.7704 43.2639 23.3684 37.2299C22.3257 34.6109 21.3972 32.543 21.1813 32.3597C20.6049 31.8701 19.6725 31.9467 19.2212 32.5208C19.0136 32.7846 18.8436 33.1739 18.8434 33.3856C18.8432 33.5973 19.7572 36.0647 20.8745 38.8685C22.7498 43.5749 22.9701 44.0293 23.7424 44.7856C24.5395 45.5665 24.895 45.7203 31.3152 48.0628C37.483 50.3133 38.1516 50.5194 39.235 50.5055C40.269 50.4923 41.1313 50.2303 46.0625 48.4315C49.1667 47.2992 51.85 46.3337 52.0251 46.2862C52.3057 46.2099 52.3443 46.349 52.3488 47.4498C52.3516 48.1374 51.3964 57.3374 50.2263 67.894C48.3336 84.969 48.1271 87.1381 48.3551 87.5423C48.9003 88.5093 50.4632 88.4323 50.8672 87.4187C50.9735 87.152 52.0049 78.413 53.159 67.9989C55.1929 49.6467 55.2575 48.942 55.2571 45.096L55.2568 41.1277L54.8098 40.6809C54.2186 40.0896 53.3819 40.0896 52.7907 40.6809C52.4295 41.042 52.3434 41.3127 52.3415 42.092L52.3394 43.056L48.0512 44.6035C45.6927 45.4547 43.6864 46.1784 43.5928 46.2117C43.4992 46.2452 43.4225 46.0337 43.4225 45.742C43.4225 45.4501 43.2263 44.8237 42.9863 44.3496L42.5499 43.4878L42.9408 43.3437C43.1556 43.2645 44.8862 42.6365 46.7864 41.9487C48.6868 41.2606 50.3725 40.5666 50.5329 40.4062C50.6931 40.246 51.9164 37.3765 53.2513 34.0297C54.586 30.6828 55.8297 27.6394 56.0149 27.2667C56.4793 26.3317 57.4574 25.3973 58.5855 24.8109C59.4319 24.371 59.7749 24.3096 61.7367 24.2468C65.2174 24.1354 66.9279 24.7333 68.7114 26.6849C69.5928 27.6493 70.2194 28.9292 70.4501 30.2353C70.5532 30.8198 72.553 52.5574 72.553 53.094C72.553 53.295 71.9285 53.3427 69.3027 53.3427C66.2235 53.3427 66.0201 53.3645 65.4382 53.7567C65.1003 53.9843 64.6375 54.4471 64.4099 54.785C64.0032 55.3885 63.9959 55.491 63.9959 60.6253C63.9959 65.7595 64.0032 65.862 64.4099 66.4656C64.9181 67.2199 65.9061 67.9079 66.4807 67.9079H66.9089V77.6566V87.4054L67.3559 87.8522C67.6376 88.134 68.0108 88.2992 68.3655 88.2992C68.7201 88.2992 69.0934 88.134 69.375 87.8522L69.822 87.4054V77.6566V67.9079H74.6198C79.3087 67.9079 79.4316 67.8984 80.0318 67.4939C80.3698 67.2663 80.8326 66.8035 81.0601 66.4656C81.4669 65.862 81.4742 65.7595 81.4742 60.6253C81.4742 55.491 81.4669 55.3885 81.0601 54.785C80.2461 53.577 79.6582 53.3427 77.4418 53.3427C75.6348 53.3427 75.466 53.3137 75.466 53.0029C75.466 52.0602 73.4473 30.5243 73.2719 29.5957C72.6744 26.4334 70.7656 23.8789 67.9312 22.4486C66.2801 21.6154 64.7256 21.3063 62.168 21.3023C59.857 21.2988 58.5387 21.5601 57.0439 22.3175C55.9151 22.8895 54.2882 24.3885 53.7056 25.3931C53.4725 25.7951 52.2024 28.8276 50.8834 32.1321C49.5643 35.4366 48.3936 38.1968 48.2819 38.2659C47.9982 38.4415 39.5314 41.5077 39.3181 41.5121C39.2223 41.5141 37.0885 40.7705 34.5762 39.8598L30.0083 38.2041L27.6796 32.346C26.3987 29.1242 25.1416 26.1194 24.8856 25.6688C23.7706 23.705 21.736 22.1673 19.4733 21.5779C18.0649 21.2111 13.6869 21.2165 12.3098 21.587ZM23.6603 47.9636C23.4145 48.2093 23.2131 48.5574 23.2129 48.7373C23.2119 49.7421 27.4418 87.0147 27.6029 87.4187C28.0069 88.4323 29.5697 88.5093 30.115 87.5423C30.343 87.138 30.1351 84.9619 28.2296 67.8132C27.0516 57.2121 26.0486 48.4364 26.0007 48.3117C25.8616 47.9486 25.0877 47.5166 24.577 47.5166C24.3184 47.5166 23.9061 47.7178 23.6603 47.9636ZM14.9212 55.2462C14.6754 55.4919 14.4742 55.861 14.4742 56.0664C14.4742 56.553 21.3366 86.7859 21.5887 87.4107C21.7905 87.9101 22.4295 88.2992 23.0482 88.2992C23.5876 88.2992 24.307 87.4924 24.2988 86.8964C24.2948 86.6165 22.7063 79.4275 20.7685 70.9209C17.7242 57.5562 17.1904 55.4097 16.841 55.1267C16.2661 54.6612 15.4555 54.7116 14.9212 55.2462ZM8.6481 60.6253V64.9948H5.73505H2.82201V60.6253V56.2557H5.73505H8.6481V60.6253ZM78.5611 60.6253V64.9948H72.735H66.9089V60.6253V56.2557H72.735H78.5611V60.6253ZM57.4416 58.4405C57.2118 58.6703 57.0774 59.0473 57.0774 59.4626C57.0774 60.8532 60.9268 87.302 61.1879 87.7046C61.5258 88.226 62.2231 88.3989 62.8835 88.1255C63.9531 87.6823 63.9841 88.1481 61.9011 73.3072C60.8449 65.7814 59.9399 59.4375 59.89 59.2097C59.6558 58.1417 58.1982 57.6838 57.4416 58.4405Z" fill="#595F6F"/>
</svg>
