
<svg width="146" height="131" viewBox="0 0 146 131" fill="none" xmlns="http://www.w3.org/2000/svg">
<path fill-rule="evenodd" clip-rule="evenodd" d="M2.70898 0.529415C1.57349 1.23066 0.676961 2.22907 0.304262 3.20735C0.0932461 3.76114 0 18.3645 0 50.8717V97.7376L0.662988 98.9875C1.07618 99.7665 1.74744 100.476 2.44521 100.871C3.56331 101.503 3.57871 101.504 18.3159 101.509L33.0673 101.513L33.2401 102.293C34.1381 106.342 35.0808 107.825 37.5314 109.044C38.4542 109.503 39.2366 109.884 39.2703 109.892C39.3039 109.899 39.0042 110.712 38.6042 111.696C36.5445 116.767 37.8599 122.789 41.8926 126.754C44.8961 129.706 48.0118 131.01 52.0296 130.997C56.0343 130.983 59.3005 129.644 62.0899 126.874C66.191 122.801 67.5204 116.441 65.3316 111.367L64.7507 110.02H70.6101C75.1871 110.02 76.4367 110.098 76.3198 110.374C76.2377 110.57 75.8898 111.603 75.547 112.67C74.7069 115.287 74.8515 119.575 75.859 121.929C78.2782 127.584 83.388 131.01 89.3851 131C99.138 130.984 105.946 121.442 102.817 112.173C102.403 110.948 102.102 109.922 102.147 109.892C102.192 109.863 102.755 109.688 103.399 109.505C104.884 109.082 106.967 107.271 107.593 105.86C107.859 105.263 111.584 88.5049 115.872 68.6203L123.669 32.4664L132.697 32.3916L141.725 32.3167L141.653 64.7174L141.58 97.118L129.318 97.2598C122.574 97.3378 116.849 97.5042 116.596 97.6298C116.114 97.8692 115.488 99.0065 115.488 99.6451C115.488 99.8507 115.754 100.355 116.079 100.766L116.67 101.513L129.553 101.509C142.356 101.504 142.442 101.5 143.555 100.871C144.253 100.476 144.924 99.7665 145.337 98.9875L146 97.7376V50.8717C146 18.4481 145.906 3.75972 145.697 3.20735C145.325 2.22935 144.125 0.936039 143.091 0.398977C142.435 0.0578551 132.109 -0.000841644 72.943 9.03479e-06C5.7593 0.000859713 3.53736 0.0175899 2.70898 0.529415ZM141.654 16.2327L141.729 28.0713H138.73H135.731L136.561 26.9319C138.729 23.9551 138.28 20.0151 135.487 17.5053C133.8 15.9899 132.107 15.5938 127.342 15.5995C120.775 15.6077 117.793 16.5346 114.51 19.5886C112.532 21.4278 111.228 23.5961 110.472 26.3002L109.977 28.0713H99.6387C93.9527 28.0713 89.0928 28.1507 88.839 28.2474C88.5849 28.3443 88.1794 28.804 87.9376 29.269C87.3907 30.321 87.7953 31.5225 88.859 32.0042C89.34 32.2223 92.6595 32.3247 99.2478 32.3247C107.524 32.3247 108.93 32.3845 108.93 32.7367C108.93 33.128 107.34 40.7112 107.041 41.7473C106.907 42.2087 104.548 42.2422 67.2082 42.3145C29.6893 42.3868 27.4551 42.4191 26.377 42.9017C24.9409 43.5445 23.4977 44.9087 22.7717 46.3092C21.6596 48.4555 21.7446 49.1741 24.7558 63.0693C27.7879 77.0616 27.8101 77.1271 29.5582 77.1271C30.3677 77.1271 31.6509 75.9639 31.6555 75.2258C31.6572 74.9459 30.4216 68.9759 28.91 61.9589L26.1614 49.201L26.6972 48.2063C27.0528 47.5464 27.5692 47.0975 28.2308 46.873C28.9844 46.6175 39.0738 46.5307 69.4626 46.5185C107.774 46.5035 109.719 46.4783 110.16 45.9942C110.448 45.6778 111.385 41.9577 112.644 36.1405C113.903 30.321 114.931 26.2451 115.368 25.3372C116.243 23.5218 118.17 21.7266 120.286 20.7571C121.761 20.0814 122.297 20.0051 126.327 19.8997C131.502 19.7641 132.571 20.0298 133.346 21.6455C133.874 22.7466 133.741 23.6843 132.912 24.7037C132.386 25.3514 132.184 25.3828 127.705 25.5192C122.444 25.6792 121.478 25.9871 120.544 27.8002C120.266 28.3392 116.448 45.496 112.058 65.9265C107.669 86.3569 103.885 103.494 103.649 104.01C103.127 105.151 101.798 105.767 99.8523 105.767C98.9227 105.767 98.2283 105.59 97.7758 105.238C96.4795 104.23 94.0211 103.167 91.9988 102.741C88.4951 102.003 85.1106 102.626 81.7817 104.623L79.8751 105.767H70.6016H61.3277L59.6319 104.677C55.127 101.781 48.7221 101.818 44.2457 104.765C43.1384 105.494 42.4119 105.767 41.5798 105.767C40.172 105.767 38.6891 105.099 38.2469 104.265C38.0644 103.921 36.956 99.1738 35.784 93.7153C34.6117 88.2568 33.586 83.5072 33.5047 83.1607C33.3045 82.3094 32.2554 81.3805 31.4944 81.3805C31.153 81.3805 30.5357 81.645 30.1225 81.9683C29.0939 82.7727 29.1415 83.4317 30.7661 90.8797L32.1268 97.118L18.5585 97.1917C11.096 97.2326 4.82998 97.2045 4.63379 97.1299C4.35148 97.0222 4.27734 90.2655 4.27734 64.6592V32.3247L42.417 32.3156C71.9483 32.3088 80.6587 32.2285 81.0092 31.9611C81.746 31.3986 82.1515 30.4016 81.9568 29.63C81.539 27.9751 83.9797 28.0713 42.4247 28.0713H4.27734V16.3509C4.27734 9.90446 4.36318 4.5449 4.46811 4.44083C4.57305 4.33649 35.466 4.28318 73.1195 4.32259L141.58 4.39405L141.654 16.2327ZM13.9929 12.4052C12.6301 13.0959 11.9172 14.1845 11.7784 15.7863C11.408 20.0553 17.1248 21.7765 19.392 18.0783C21.4956 14.6476 17.6141 10.5688 13.9929 12.4052ZM26.491 12.5135C22.6708 14.7168 24.5776 20.551 28.9576 20.0599C30.5713 19.879 31.7653 18.9883 32.3535 17.5257C33.8118 13.9018 29.8932 10.5515 26.491 12.5135ZM39.3718 12.4052C36.5331 13.8445 36.3509 17.7032 39.0373 19.4879C41.6525 21.2253 45.3378 19.197 45.3378 16.02C45.3378 12.978 42.105 11.0191 39.3718 12.4052ZM34.9316 52.3712C33.075 52.8504 32.9695 53.6676 34.0927 58.8712C34.8492 62.3749 35.1994 63.4845 35.6713 63.8707C36.2183 64.3178 37.092 64.3669 44.5289 64.3669H52.7799L53.4796 63.6707C54.2858 62.8694 54.2806 62.9723 53.7856 57.6122C53.2526 51.8406 54.1574 52.3267 43.8354 52.2697C39.252 52.2447 35.2453 52.2904 34.9316 52.3712ZM60.5344 52.585C59.959 52.8385 59.5478 53.265 59.4306 53.73C59.1996 54.6451 59.8452 62.6233 60.2048 63.297C60.7371 64.2946 61.4566 64.3669 70.8425 64.3669C79.7488 64.3669 80.1523 64.3436 80.6992 63.7998C81.0129 63.4879 81.2749 63.1368 81.2812 63.02C81.2878 62.9032 81.464 60.8933 81.673 58.5539C82.0614 54.2044 81.9893 53.4527 81.1133 52.7293C80.3736 52.1183 61.8886 51.9887 60.5344 52.585ZM89.0828 52.5788C87.957 53.0659 87.8834 53.2817 87.5444 57.091C87.1115 61.9518 87.1617 63.1371 87.8281 63.7998C88.3733 64.3419 88.7785 64.3669 97.0461 64.3669C105.649 64.3669 105.697 64.3635 106.284 63.7289C106.708 63.2712 107.139 61.8282 107.808 58.6251C108.85 53.6373 108.785 53.0429 107.135 52.471C105.788 52.0037 90.1958 52.097 89.0828 52.5788ZM49.439 57.3133C49.5371 57.8008 49.6172 58.6302 49.6172 59.1565V60.1135H44.2103H38.8032L38.5263 59.0501C38.2517 57.9953 38.1151 57.0485 38.1781 56.6399C38.1961 56.5231 40.6972 56.4272 43.7358 56.4272H49.2607L49.439 57.3133ZM77.4587 57.7429C77.3589 58.4663 77.2773 59.2957 77.2773 59.5861C77.2773 60.0854 76.9198 60.1135 70.5762 60.1135H63.875V58.2704V56.4272H70.7575H77.6401L77.4587 57.7429ZM103.797 56.6634C103.797 56.7933 103.651 57.6227 103.472 58.5066L103.148 60.1135H97.3318H91.5155L91.6908 58.6248C91.7875 57.8062 91.9161 56.9768 91.9769 56.7817C92.0607 56.5131 93.5076 56.4272 97.9423 56.4272C101.162 56.4272 103.797 56.5336 103.797 56.6634ZM37.7704 70.7342C37.3854 71.117 37.0703 71.723 37.0703 72.0808C37.0703 72.439 37.4655 74.5821 37.9486 76.8435C39.1865 82.6389 38.4844 82.2311 47.2222 82.2311H54.2056L54.9054 81.535C55.2904 81.1522 55.6055 80.5167 55.6055 80.1226C55.6055 78.299 54.9676 72.0862 54.7121 71.4219C54.2208 70.1438 53.5341 70.0381 45.7411 70.0381H38.4701L37.7704 70.7342ZM61.4383 70.7342C60.6413 71.5265 60.6313 71.6654 61.0334 76.3694C61.3979 80.6339 61.4711 80.975 62.1712 81.6711C62.7047 82.2016 63.1481 82.2311 70.5602 82.2311C80.3031 82.2311 79.6795 82.5272 80.1169 77.6942C80.606 72.2927 80.543 71.3144 79.6627 70.6259C78.9412 70.0616 78.5774 70.0381 70.5248 70.0381H62.1381L61.4383 70.7342ZM87.1204 70.6761C86.4206 71.2798 86.3601 71.5554 85.988 75.819C85.562 80.7002 85.6587 81.3652 86.8749 81.9164C87.8344 82.3511 100.95 82.3463 101.911 81.9107C102.806 81.5052 103.02 80.9324 103.959 76.4457C104.914 71.8787 104.914 71.5083 103.959 70.692C103.202 70.0443 103.123 70.0381 95.5273 70.0381C87.9852 70.0381 87.8478 70.0486 87.1204 70.6761ZM50.8699 74.7401C50.9651 74.9868 51.043 75.8162 51.043 76.5832V77.9777H46.805H42.567L42.2425 76.3708C42.064 75.487 41.918 74.6575 41.918 74.5277C41.918 74.3978 43.8932 74.2915 46.3074 74.2915C50.0469 74.2915 50.7225 74.3578 50.8699 74.7401ZM76.0298 75.1776C75.9317 75.665 75.8516 76.4944 75.8516 77.0207V77.9777H70.7493C65.0016 77.9777 65.3008 78.1036 65.3008 75.686V74.2915H70.7544H76.208L76.0298 75.1776ZM99.7722 75.4966C99.1771 78.2851 99.8141 77.9777 94.6277 77.9777H90.0318L90.2132 76.662C90.313 75.9387 90.3945 75.1093 90.3945 74.8189C90.3945 74.3255 90.7051 74.2915 95.212 74.2915H100.029L99.7722 75.4966ZM41.831 88.2174C40.7517 88.8418 40.7411 89.6865 41.7534 94.3241C42.4643 97.5814 42.8792 98.9087 43.3246 99.3519C43.9032 99.927 44.1947 99.9536 49.9354 99.9536H55.9411L56.5214 99.2447C57.0481 98.6013 57.0846 98.2868 56.916 95.842C56.5034 89.8473 56.4028 89.2365 55.7144 88.5522C55.0719 87.9131 54.9562 87.9026 48.7033 87.9108C44.7949 87.9162 42.1472 88.0342 41.831 88.2174ZM62.8641 88.5985C62.058 89.3998 62.0757 89.053 62.5616 94.5164C63.0777 100.322 62.5356 99.9298 70.1998 100.041C76.4555 100.131 77.5865 99.9763 78.1368 98.9538C78.2837 98.6807 78.5608 96.4049 78.7527 93.8959L79.1015 89.3349L78.4248 88.6186L77.7481 87.9023H70.656H63.5639L62.8641 88.5985ZM85.5628 88.4536C84.9167 89.0961 84.8146 89.6357 84.4137 94.5396C84.0829 98.58 84.2537 99.2691 85.7228 99.8246C86.1169 99.9735 88.8755 100.095 91.8531 100.095C98.106 100.095 98.7448 99.9292 99.2116 98.1794C99.7414 96.1936 100.945 90.4113 100.945 89.8518C100.945 89.5453 100.63 88.9813 100.245 88.5985L99.5455 87.9023H92.8312C86.5615 87.9023 86.0804 87.9389 85.5628 88.4536ZM52.4688 93.9989V95.842H49.48H46.4913L46.3168 95.0622C46.0901 94.0496 45.8988 93.2684 45.7257 92.652C45.5988 92.1991 45.8876 92.1557 49.0278 92.1557H52.4688V93.9989ZM74.5051 93.6444C74.3137 95.975 74.5487 95.842 70.6207 95.842H67.083L66.9048 94.9559C66.8067 94.4684 66.7266 93.639 66.7266 93.1127V92.1557H70.6768H74.6271L74.5051 93.6444ZM96.0922 92.5102C96.0891 92.7053 95.9206 93.5026 95.7175 94.2824L95.3485 95.7002L92.0159 95.7802L88.6836 95.8599L88.6867 95.0713C88.6884 94.6374 88.7694 93.8041 88.8667 93.2191L89.0435 92.1557H92.5706C95.2051 92.1557 96.0962 92.2453 96.0922 92.5102ZM54.2216 107.003C59.7668 108.301 63.2676 114 61.7483 119.255C60.7748 122.624 58.6039 124.985 55.3639 126.2C52.909 127.121 49.7968 126.897 47.4021 125.628C45.2705 124.498 43.8336 122.996 42.8119 120.829C42.1663 119.46 42.0637 118.876 42.0825 116.684C42.109 113.593 42.6828 112.116 44.6834 109.989C46.1551 108.425 48.1344 107.28 50.0036 106.912C51.7416 106.57 52.4354 106.585 54.2216 107.003ZM91.6891 107.054C99.0975 108.958 101.78 117.873 96.6306 123.475C95.7826 124.398 94.5527 125.344 93.5854 125.816C92.1548 126.514 91.6424 126.608 89.2539 126.608C86.8654 126.608 86.353 126.514 84.9224 125.816C82.8105 124.785 80.6482 122.438 79.8366 120.298C78.9669 118.005 79.1314 114.48 80.205 112.4C81.6553 109.591 83.7726 107.853 86.6969 107.071C88.7295 106.528 89.6303 106.525 91.6891 107.054ZM50.3155 113.563C48.4107 114.533 47.827 117.432 49.2077 119.064C51.4761 121.744 55.6055 120.123 55.6055 116.552C55.6055 114.082 52.6153 112.393 50.3155 113.563ZM87.312 113.714C86.3359 114.305 85.5469 115.737 85.5469 116.916C85.5469 117.934 86.7012 119.453 87.9311 120.052C88.8478 120.499 89.1946 120.534 90.0777 120.271C91.4411 119.865 92.655 118.59 92.8571 117.353C93.2045 115.223 91.4231 113.141 89.2539 113.141C88.705 113.141 87.831 113.399 87.312 113.714Z" fill="#E4E5F0"/>
</svg>
