<svg width="146" height="146" viewBox="0 0 146 146" fill="none" xmlns="http://www.w3.org/2000/svg">
<path fill-rule="evenodd" clip-rule="evenodd" d="M71.2844 0.171867C70.7354 0.235426 68.4255 0.48795 66.1513 0.733063C57.8481 1.62744 46.9457 3.76364 41.3562 5.59116C35.4928 7.50846 29.6544 10.8118 26.1319 14.2049C20.2348 19.8856 15.8109 28.0627 13.5081 37.5386C12.6281 41.16 12.1171 42.6472 10.4015 46.5824C7.9655 52.1699 8.28974 54.3494 12.1239 58.1558C13.2931 59.3164 14.2496 60.4963 14.2496 60.7777C14.2496 62.5217 7.56625 73.6949 3.12438 79.3764C1.05031 82.0296 -0.00483133 84.0991 1.66299e-05 85.5042C0.0080015 87.853 1.99452 90.2321 5.46794 92.0525C8.35505 93.5659 9.11646 94.2343 9.11646 95.256C9.11646 95.7514 8.52986 97.2868 7.78783 98.733C6.84077 100.579 6.45179 101.681 6.43326 102.57C6.40873 103.742 6.50911 103.91 8.09297 105.349C9.67198 106.783 9.75753 106.926 9.44755 107.606C9.26532 108.006 9.11646 108.95 9.11646 109.705C9.11646 111.452 9.71732 112.239 12.3292 113.912L14.312 115.182L14.1398 117.23C13.6208 123.401 13.6188 123.831 14.0996 125.674C15.3917 130.627 18.3076 133.327 22.6622 133.602C24.3744 133.71 25.348 133.544 29.5064 132.431C34.684 131.044 37.9926 130.042 42.7322 128.425L45.6917 127.415L46.486 127.98C49.5681 130.173 53.2394 136.422 55.0346 142.53C55.4364 143.896 55.9195 144.885 56.3992 145.323L57.1418 146L88.4393 145.878C118.967 145.759 119.752 145.742 120.353 145.2C121.879 143.826 121.484 142.143 118.547 137.499C115.031 131.939 112.498 123.058 111.495 112.767C111.076 108.47 111.489 103.48 112.63 99.0659C114.162 93.1361 116.168 89.2872 121.482 82.0809C123.16 79.8062 125.019 77.1846 125.613 76.2555C128.44 71.8386 131.213 64.4561 130.626 62.9113C130.203 61.8009 129.09 61.177 127.921 61.3959C127.388 61.4962 126.816 61.7404 126.651 61.9391C126.486 62.1378 125.908 63.6523 125.366 65.3046C123.726 70.3092 122.116 73.126 116.902 80.1163C111.926 86.7879 109.624 91.326 107.954 97.7599C106.858 101.982 106.535 104.67 106.548 109.446C106.576 119.068 109.64 131.924 113.504 138.632C114.128 139.715 114.581 140.657 114.511 140.727C114.441 140.797 102.085 140.925 87.0537 141.012L59.7237 141.169L59.2033 139.487C58.0349 135.71 54.9955 130.155 52.3896 127.034C51.7628 126.283 51.3031 125.616 51.3678 125.551C51.4329 125.486 53.7268 124.643 56.4659 123.677C59.205 122.711 62.2159 121.533 63.1569 121.06C68.9306 118.153 72.124 114.304 72.2414 110.111C72.2925 108.284 71.4375 107.165 69.99 107.165C68.9009 107.165 67.5771 108.124 67.5771 108.913C67.5771 111.92 65.3094 114.591 61.0036 116.655C56.1097 119.001 31.7134 127.07 25.048 128.546C21.8321 129.259 20.0429 128.256 19.1024 125.213C18.4109 122.975 18.3863 121.83 18.9715 119.083C19.4366 116.9 19.3414 115.149 18.6704 113.538C18.1493 112.288 16.4206 110.449 15.2411 109.889C14.109 109.352 14.0351 109.023 14.8199 108.02C15.3658 107.323 15.5557 105.933 15.2232 105.067C15.1314 104.828 14.3294 104.091 13.4408 103.43C12.5525 102.769 11.7746 102.188 11.7124 102.137C11.6502 102.087 12.0806 101.098 12.6692 99.9397C15.2503 94.857 13.9889 90.9668 8.92653 88.3974C7.00902 87.4241 4.83885 85.9027 4.83885 85.5316C4.83885 85.3919 6.14523 83.5077 7.74164 81.3441C11.6482 76.0508 14.2082 71.9665 16.8723 66.7767C18.7411 63.1365 19.097 62.2238 19.0947 61.0764C19.0904 58.9878 17.9968 56.9627 15.6715 54.7379C13.2888 52.458 13.2395 52.1596 14.705 48.8797C16.3468 45.205 17.301 42.4705 18.2172 38.8149C19.7974 32.5089 21.5475 28.3121 24.3487 24.1118C30.3029 15.1828 37.1833 11.0532 50.9686 8.13322C61.2554 5.95427 72.1533 4.66999 78.0818 4.9379C80.0164 5.0254 81.9151 4.97724 82.301 4.83045C83.159 4.5044 83.8301 3.0263 83.5666 2.04214C83.4605 1.6454 83.0293 1.06368 82.6087 0.749594C81.9234 0.238561 81.3445 0.172437 77.0629 0.117429C74.4339 0.083512 71.8334 0.108023 71.2844 0.171867ZM110.064 0.527282C108.523 1.34556 107.904 2.5184 107.35 5.67268C107.076 7.22801 106.774 8.62174 106.678 8.76994C106.582 8.91787 105.907 9.30064 105.178 9.62043L103.854 10.2016L101.329 8.51656C97.1765 5.74564 95.6308 5.69719 93.1073 8.25777L91.6957 9.68998H87.9491C83.874 9.68998 82.6914 9.94364 81.4548 11.0826C80.2982 12.148 80.1887 12.4276 79.4081 16.3103C78.4528 21.0641 78.4454 21.0906 78.0875 21.0906C77.9141 21.0906 77.0178 21.4289 76.0959 21.8425L74.4196 22.5944L70.88 20.251C65.5287 16.7082 64.5127 16.7669 60.2744 20.8649C57.3177 23.7236 56.7405 24.6827 56.7405 26.7365C56.7405 28.0473 56.9347 28.458 59.1226 31.7736L61.5046 35.3833L60.6448 37.4711L59.785 39.5588L55.8183 40.3423C51.5603 41.1837 50.5018 41.6716 49.4041 43.2996C48.8013 44.1934 48.7557 44.562 48.7557 48.5268C48.7557 52.4005 48.8135 52.8953 49.3865 53.9139C50.3096 55.5553 51.3935 56.0712 55.7604 56.9459C58.2773 57.4501 59.7628 57.8819 59.9057 58.151C60.028 58.3815 60.4424 59.2916 60.8262 60.1731L61.524 61.7764L59.1323 65.4009C56.9456 68.7151 56.7405 69.1466 56.7405 70.4337C56.7405 72.5383 57.2638 73.4207 60.2191 76.3002C63.0782 79.086 63.804 79.5189 65.6137 79.5189C66.9783 79.5189 67.7035 79.1623 71.4681 76.6397L74.3609 74.7013L76.316 75.5244C77.3914 75.977 78.3638 76.516 78.4768 76.7217C78.59 76.9278 79.0061 78.7468 79.4013 80.7638C80.599 86.8754 81.3636 87.4993 87.6577 87.4993C94.3042 87.4993 94.5184 87.2671 96.368 78.0599L96.6897 76.4587L98.5673 75.6612C99.5999 75.2226 100.589 74.8646 100.765 74.8657C100.941 74.8666 102.668 75.914 104.603 77.1932C107.823 79.3222 108.24 79.5189 109.54 79.5189C110.322 79.5189 111.241 79.3767 111.584 79.2028C111.927 79.0287 113.526 77.5859 115.137 75.9964C119.536 71.6576 119.605 70.8079 116.01 65.3573L113.719 61.8838L114.554 59.8086L115.388 57.7331L119.273 56.955C123.491 56.11 124.532 55.7041 125.441 54.5489L126.035 53.7939L128.246 55.2224C132.058 57.6844 133.047 57.5336 136.661 53.9401C140.415 50.2073 140.506 49.1787 137.483 44.6532L135.802 42.137L136.394 40.7356C137.053 39.176 136.895 39.2592 140.439 38.6148C145.132 37.7612 146 36.6625 146 31.5718C146 26.4939 145.237 25.5813 140.136 24.5598C138.449 24.2221 137.042 23.9126 137.009 23.8721C136.976 23.8313 136.688 23.2023 136.37 22.4741L135.792 21.1499L137.478 18.6264C140.498 14.1066 140.403 12.8916 136.752 9.24222C133.119 5.61111 132.048 5.51392 127.591 8.41025L124.836 10.2007L123.512 9.62328C122.784 9.30577 122.155 9.01876 122.114 8.98542C122.074 8.95235 121.764 7.5458 121.426 5.8605C120.395 0.717672 119.528 0.000572402 114.341 2.37041e-06C111.692 -0.000567662 110.865 0.101468 110.064 0.527282ZM116.944 8.3085C117.331 10.313 117.827 12.0451 118.121 12.4196C118.401 12.7756 119.303 13.2866 120.124 13.5554C120.945 13.8241 122.223 14.3469 122.963 14.7171C124.93 15.7018 125.595 15.5938 128.179 13.8709C132.381 11.0692 131.721 11.2131 133.249 12.7633L134.584 14.118L132.593 17.1055C130.37 20.4411 130.25 20.9795 131.274 23.0239C131.645 23.7632 132.168 25.0401 132.437 25.8609C132.705 26.6821 133.217 27.5827 133.573 27.8629C133.948 28.1573 135.681 28.6529 137.686 29.0391L141.152 29.7066V31.6128V33.519L137.726 34.1788C135.633 34.5816 134.032 35.0487 133.612 35.3785C133.234 35.6757 132.705 36.5904 132.437 37.4115C132.168 38.2323 131.645 39.5092 131.274 40.2485C130.239 42.3149 130.361 42.8584 132.61 46.1712L134.619 49.1316L133.252 50.4943L131.884 51.8569L129.281 50.1135L126.678 48.3703L126.544 46.282C126.441 44.676 126.243 43.9423 125.69 43.107L124.971 42.0205L125.925 40.8898C127.095 39.5035 128.469 36.7779 128.865 35.0564C129.357 32.9213 129.239 29.3381 128.609 27.2991C127.54 23.8404 124.789 20.4972 121.573 18.7486C118.772 17.2252 115.148 16.7339 111.511 17.384C110.639 17.5399 109.447 17.7374 108.862 17.8232C108.189 17.9218 106.529 18.8176 104.337 20.2652L100.875 22.5513L98.9839 21.7698C97.9436 21.34 96.996 20.9082 96.8782 20.8107C96.7601 20.713 96.3224 18.9313 95.9058 16.8516L95.1478 13.0697L95.9802 12.2377L96.8126 11.4061L99.8044 13.3977C103.145 15.6212 103.683 15.7411 105.729 14.7171C106.468 14.3469 107.746 13.8241 108.567 13.5554C109.389 13.2866 110.304 12.7579 110.601 12.3802C110.931 11.961 111.399 10.3603 111.802 8.26917L112.462 4.8447H114.369H116.276L116.944 8.3085ZM48.0427 13.7993C39.769 15.9193 34.5734 18.8581 30.7897 23.5589C26.8223 28.4879 24.7774 32.6711 23.094 39.3009C22.76 40.6165 22.5904 41.7825 22.717 41.8922C22.8439 42.0019 23.7174 42.2493 24.6584 42.442C25.5995 42.6347 26.5942 42.8561 26.8685 42.934C27.2179 43.0329 27.3676 42.9134 27.3676 42.5355C27.3676 41.4795 29.1169 35.7915 30.087 33.6929C31.3349 30.9932 33.7609 27.3595 35.5703 25.4796C38.5901 22.3421 43.0855 20.0685 49.3887 18.491C51.3148 18.009 53.1299 17.4028 53.4225 17.1437C54.7837 15.9384 54.4925 13.9031 52.8613 13.2219C52.3386 13.0039 51.8746 12.8306 51.8304 12.8374C51.7862 12.8442 50.0817 13.2772 48.0427 13.7993ZM91.4448 19.3805C92.4917 24.6336 92.539 24.7149 95.0308 25.5218C95.851 25.7871 97.4694 26.4478 98.6272 26.9893C100.007 27.6349 100.961 27.9167 101.397 27.8073C101.763 27.7155 103.763 26.4868 105.843 25.0768L109.625 22.5134L111.676 24.5501L113.727 26.5866L111.042 30.6062C109.565 32.817 108.357 34.9079 108.357 35.2531C108.357 35.5979 108.806 36.7745 109.355 37.8678C109.904 38.9611 110.353 39.9253 110.353 40.0103C110.353 40.7456 111.66 43.3917 112.156 43.6607C112.498 43.8457 114.766 44.3958 117.197 44.8832L121.618 45.769L121.698 48.6354L121.779 51.5018L117.136 52.4244C113.745 53.0979 112.322 53.5049 111.86 53.9327C111.513 54.2548 110.949 55.3661 110.608 56.4018C110.267 57.4376 109.621 59.0191 109.173 59.9158C108.724 60.8127 108.357 61.7972 108.357 62.1033C108.357 62.4091 109.512 64.4036 110.924 66.535C112.335 68.6666 113.49 70.5075 113.49 70.6258C113.49 70.7444 112.606 71.7183 111.525 72.7905L109.56 74.7395L105.712 72.1415C102.999 70.3094 101.614 69.5433 101.015 69.5433C100.548 69.5433 99.0894 70.043 97.7736 70.6537C96.4581 71.2645 94.9807 71.8483 94.4907 71.9511C92.7976 72.3063 92.3876 73.1126 91.4083 78.012L90.5091 82.5116L87.6317 82.5925C84.8396 82.6709 84.7497 82.6541 84.6006 82.0225C84.5159 81.6645 84.105 79.64 83.6875 77.5238C83.27 75.4075 82.757 73.4079 82.5476 73.0798C82.3209 72.725 81.2635 72.1638 79.934 71.6929C78.7058 71.258 77.0954 70.5965 76.3556 70.2228C74.1724 69.1198 73.7075 69.2478 69.3851 72.139L65.5045 74.7349L63.4946 72.7261L61.4847 70.7173L64.1031 66.7715C65.8088 64.201 66.7216 62.553 66.7216 62.0437C66.7216 61.6136 66.3546 60.5277 65.906 59.6308C65.4574 58.7341 64.8035 57.1295 64.4531 56.0652C64.0558 54.859 63.5747 53.9723 63.1752 53.7107C62.8224 53.4798 60.5248 52.8887 58.0689 52.3973L53.6036 51.5038L53.6045 48.6243L53.6053 45.7445L58.2134 44.8205C60.8131 44.2995 63.0363 43.7024 63.3144 43.451C63.5853 43.2059 64.1536 42.0185 64.5774 40.8123C65.0009 39.6061 65.6565 38.0579 66.0346 37.3719C67.1354 35.3733 66.9994 34.8862 64.1551 30.6386C62.7434 28.5307 61.5885 26.7029 61.5885 26.5772C61.5885 26.4512 62.4717 25.4722 63.5511 24.4016L65.5136 22.4553L69.5434 25.1931C71.7598 26.6989 73.8316 27.931 74.147 27.931C74.4627 27.931 75.5837 27.5001 76.6385 26.9733C77.6934 26.4466 79.2621 25.7937 80.1248 25.522C82.4127 24.8021 82.7761 24.264 83.5226 20.4892C83.8757 18.7036 84.2938 16.6293 84.4517 15.8794L84.7389 14.5159L87.6235 14.5968L90.5077 14.6778L91.4448 19.3805ZM119.143 23.1051C121.051 24.0585 122.534 25.5822 123.541 27.6243C124.073 28.7034 124.183 29.3963 124.18 31.6362C124.174 34.8974 123.555 36.4347 121.396 38.547C119.725 40.1821 119.106 40.3657 117 39.8521L115.376 39.4559L114.527 37.4106L113.678 35.3651L115.993 31.9472C117.315 29.9937 118.391 28.0838 118.502 27.4901C118.76 26.116 118.235 24.4527 117.155 23.2234C116.387 22.3492 116.349 22.2307 116.837 22.2307C117.142 22.2307 118.18 22.6243 119.143 23.1051ZM83.3193 32.2125C80.311 33.0003 77.9888 34.343 75.6903 36.624C72.2694 40.0185 70.6855 43.8469 70.6784 48.7372C70.665 58.0176 78.2007 65.5531 87.4951 65.5531C90.4162 65.5531 92.3046 65.1529 94.8113 64.0029C101.769 60.8107 105.831 52.7738 104.254 45.317C102.231 35.749 92.6702 29.7642 83.3193 32.2125ZM90.1632 36.7976C96.3004 38.0807 100.62 44.3622 99.5702 50.4783C98.8821 54.4882 96.3732 57.8505 92.7457 59.6236C90.9209 60.5154 90.6526 60.5653 87.6819 60.5653C84.7517 60.5653 84.4195 60.506 82.64 59.6632C79.4022 58.1301 77.0575 55.4983 75.9901 52.199C75.2053 49.7732 75.4747 45.9896 76.602 43.6069C79.1033 38.3198 84.4957 35.6125 90.1632 36.7976ZM86.5412 46.5012C84.3263 47.712 85.133 51.0173 87.6437 51.0173C89.0014 51.0173 90.2334 49.605 89.989 48.329C89.6701 46.6648 87.9294 45.7422 86.5412 46.5012ZM20.4986 49.1026C18.7277 50.4615 19.3505 53.0201 21.5597 53.4619C22.8151 53.7127 24.2307 52.4726 24.2307 51.1216C24.2307 49.2687 21.9148 48.0158 20.4986 49.1026Z" fill="#E4E5F0"/>
</svg>
