<svg width="137" height="137" viewBox="0 0 137 137" fill="none" xmlns="http://www.w3.org/2000/svg">
<path fill-rule="evenodd" clip-rule="evenodd" d="M34.9065 0.700648C34.521 1.08593 34.2055 1.60222 34.2055 1.84851C34.2055 3.08257 32.422 6.11633 30.6628 7.87494C28.9033 9.63327 25.868 11.4159 24.6333 11.4159C23.8589 11.4159 22.7839 12.7432 22.7839 13.699C22.7839 14.7059 23.8726 15.9822 24.7313 15.9822C25.9936 15.9822 29.3125 18.0045 30.948 19.7703C32.4771 21.421 34.2055 24.4876 34.2055 25.5495C34.2055 26.3235 35.5335 27.3981 36.4898 27.3981C37.4803 27.3981 38.7741 26.3147 38.7744 25.4845C38.7747 24.5347 40.4408 21.4427 41.6821 20.0876C43.2551 18.3713 45.8912 16.6583 47.824 16.0964C49.4502 15.624 50.1957 14.8703 50.1957 13.699C50.1957 12.5278 49.4502 11.774 47.824 11.3017C45.8335 10.7232 43.2106 9.00198 41.6601 7.25706C40.3863 5.82323 38.7747 2.83912 38.7744 1.91358C38.7741 1.08336 37.4803 0 36.4898 0C35.9336 0 35.3482 0.258855 34.9065 0.700648ZM42.8445 33.7496C10.9722 65.6055 9.07793 67.5545 9.07793 68.4906C9.07793 69.4184 9.97596 70.3799 23.0666 83.4722L37.0552 97.4623L38.6979 95.8207L40.3403 94.1788L27.4939 81.3366L14.6477 68.4946L46.6268 36.5305L78.6061 4.56634H97.5235H116.441V9.13269V13.699H113.871C111.73 13.699 111.301 13.6245 111.301 13.2524C111.301 12.475 108.405 9.85702 107.128 9.47973C104.451 8.68918 102.316 9.24656 100.298 11.2635C97.4096 14.1508 97.4096 17.8136 100.298 20.7009C102.316 22.7178 104.451 23.2752 107.128 22.4847C108.405 22.1074 111.301 19.4894 111.301 18.712C111.301 18.3399 111.73 18.2654 113.871 18.2654H116.441V30.3228V42.3799L93.9568 64.8543L71.4722 87.329L73.1146 88.9704L74.7568 90.6117L97.8833 67.4917L121.01 44.3717V38.1975V32.0232L125.65 31.9116C130.003 31.8071 130.38 31.7532 131.748 31.042C133.901 29.9227 134.796 29.0582 135.876 27.0559C136.762 25.4137 136.847 25.0472 136.847 22.8317C136.847 20.6145 136.763 20.2506 135.873 18.6007C134.817 16.6435 133.605 15.4845 131.584 14.4996C130.451 13.9476 129.713 13.8549 125.65 13.7547L121.01 13.6402V7.52077C121.01 1.40387 121.009 1.40073 120.309 0.700648L119.608 0H98.1094H76.6108L42.8445 33.7496ZM37.7153 9.69806C38.2993 10.4798 39.4509 11.6519 40.2746 12.3026C41.0984 12.9536 41.7723 13.5817 41.7723 13.699C41.7723 13.8163 41.0984 14.4445 40.2746 15.0955C39.4509 15.7462 38.2993 16.9183 37.7153 17.7C37.1311 18.482 36.5798 19.1216 36.4898 19.1216C36.3999 19.1216 35.8485 18.482 35.2643 17.7C34.6803 16.9183 33.5288 15.7462 32.705 15.0955C31.8812 14.4445 31.2073 13.8163 31.2073 13.699C31.2073 13.5817 31.8812 12.9536 32.705 12.3026C33.5288 11.6519 34.6803 10.4798 35.2643 9.69806C35.8485 8.91607 36.3999 8.2765 36.4898 8.2765C36.5798 8.2765 37.1311 8.91607 37.7153 9.69806ZM105.019 15.9822C105.019 17.8513 104.94 18.2654 104.578 18.2654C103.809 18.2654 102.735 16.9346 102.735 15.9822C102.735 15.0298 103.809 13.699 104.578 13.699C104.94 13.699 105.019 14.1131 105.019 15.9822ZM79.7697 18.6723C78.5742 19.1167 77.032 20.1361 76.6805 20.7146C76.5328 20.9575 75.9529 21.0189 74.7928 20.9136C72.6818 20.7224 70.6878 21.3465 69.1168 22.6907C67.8927 23.7381 66.7571 25.793 66.7571 26.9611C66.7571 27.4942 66.4892 27.8099 65.6863 28.2234C64.4122 28.8798 63.0225 30.2988 62.3021 31.679C61.5782 33.0655 61.5731 36.2973 62.2924 37.7437C62.8118 38.7879 62.8118 38.8399 62.2924 39.8842C61.526 41.4253 61.5785 44.5621 62.3969 46.1186C63.0599 47.3792 64.5379 48.8122 65.9042 49.5183C66.5038 49.8282 66.7571 50.1696 66.7571 50.6684C66.7571 51.8351 67.8932 53.8903 69.1168 54.9371C70.6701 56.2662 72.6855 56.9052 74.7365 56.7194C76.1833 56.5881 76.4269 56.6469 77.0294 57.2728C78.3443 58.6381 79.8568 59.2066 82.1763 59.2066C84.446 59.2066 85.852 58.6932 87.2846 57.341C87.8722 56.7868 88.2897 56.6937 90.2828 56.674C92.2667 56.6546 92.7887 56.5396 93.9248 55.8721C96.0167 54.6429 97.5954 52.3882 97.5954 50.6305C97.5954 50.1738 97.8681 49.818 98.4483 49.5183C99.8147 48.8122 101.293 47.3792 101.956 46.1186C102.774 44.5621 102.827 41.4253 102.06 39.8842C101.541 38.8399 101.541 38.7879 102.06 37.7437C102.823 36.2097 102.774 33.0623 101.964 31.5363C101.254 30.2001 99.8335 28.7959 98.5234 28.1361C97.8721 27.8082 97.5954 27.4688 97.5954 26.9974C97.5954 25.2396 96.0167 22.985 93.9248 21.7558C92.7887 21.0882 92.2667 20.9732 90.2828 20.9538C88.2897 20.9341 87.8722 20.8411 87.2846 20.2868C85.4566 18.5616 82.0412 17.8279 79.7697 18.6723ZM130.324 18.9966C131.821 20.1159 132.289 21.0274 132.289 22.8317C132.289 24.636 131.821 25.5476 130.324 26.6669C129.626 27.188 129.049 27.2659 125.273 27.3473L121.01 27.4392V22.8317V18.2243L125.273 18.3162C129.049 18.3975 129.626 18.4754 130.324 18.9966ZM84.3886 23.8289C84.7424 24.2399 85.0317 24.7541 85.0317 24.9719C85.0317 26.0724 87.3717 26.6124 88.7437 25.8284C89.8747 25.1822 91.1574 25.3058 92.1716 26.1589C92.9874 26.845 93.0682 27.0564 93.0148 28.3707C92.9825 29.1701 92.972 30.0437 92.9914 30.3122C93.0456 31.0586 94.1829 31.9644 95.0661 31.9644C97.7025 31.9644 99.1462 34.8147 97.3573 36.4877C95.571 38.1581 95.5236 39.2928 97.1711 40.9395C97.7742 41.542 98.1665 42.2138 98.1665 42.6439C98.1665 44.3592 96.839 45.6634 95.0935 45.6634C94.1872 45.6634 93.0462 46.5602 92.9914 47.3156C92.972 47.5842 92.9825 48.4577 93.0148 49.2571C93.0682 50.5714 92.9874 50.7829 92.1716 51.469C91.1574 52.322 89.8747 52.4456 88.7437 51.7995C87.3717 51.0155 85.0317 51.5554 85.0317 52.6559C85.0317 53.4862 83.7644 54.5438 82.604 54.6822C81.1466 54.8561 80.1703 54.346 79.5373 53.0797C79.2637 52.5326 78.8214 51.9245 78.5547 51.7281C77.914 51.2569 76.4983 51.2912 75.6088 51.7995C74.4778 52.4456 73.1952 52.322 72.1809 51.469C71.3651 50.7829 71.2843 50.5714 71.3377 49.2571C71.37 48.4577 71.3805 47.5842 71.3611 47.3156C71.3063 46.5602 70.1653 45.6634 69.259 45.6634C67.5115 45.6634 66.186 44.3592 66.186 42.6391C66.186 42.2081 66.5852 41.5143 67.1928 40.8888C68.829 39.2049 68.7818 38.1586 66.9952 36.4877C65.2163 34.8244 66.6503 31.9644 69.263 31.9644C69.7724 31.9644 70.3418 31.6901 70.7632 31.2418C71.3509 30.6165 71.4334 30.2746 71.3754 28.7057C71.3123 26.9914 71.3568 26.8518 72.1958 26.1463C73.1949 25.3058 74.4841 25.186 75.6088 25.8284C76.4983 26.3367 77.914 26.3709 78.5547 25.8997C78.8214 25.7037 79.2637 25.0952 79.5373 24.5481C79.8108 24.001 80.3559 23.3857 80.7486 23.1813C81.8282 22.6188 83.6219 22.9379 84.3886 23.8289ZM50.1135 45.6018C49.3737 46.353 48.768 47.089 48.768 47.2377C48.768 47.3861 49.9536 48.6975 51.4024 50.1519L54.0365 52.7958L55.6873 51.163L57.338 49.5306L54.7004 46.8835C53.2499 45.4277 51.9273 44.2365 51.7611 44.2365C51.5952 44.2365 50.8536 44.8509 50.1135 45.6018ZM58.6797 54.1637C57.9399 54.9148 57.3342 55.6543 57.3342 55.807C57.3342 55.9597 60.482 59.2292 64.3294 63.072L71.3249 70.0594L72.9644 68.4207L74.604 66.7819L67.6131 59.79C63.7683 55.9446 60.488 52.7983 60.3239 52.7983C60.1597 52.7983 59.4198 53.4128 58.6797 54.1637ZM45.5449 54.7345C44.805 55.4856 44.1994 56.2248 44.1994 56.3772C44.1994 56.5299 48.2466 60.6981 53.1933 65.6406L62.187 74.6263L63.8272 72.987L65.4673 71.3477L56.4771 62.3586C51.5321 57.4143 47.3523 53.3691 47.1884 53.3691C47.0245 53.3691 46.285 53.9836 45.5449 54.7345ZM27.9239 62.3588L21.2188 69.0651L22.8584 70.7038L24.498 72.3426L31.2076 65.6409C34.8982 61.9547 37.9175 58.8045 37.9175 58.6404C37.9175 58.2663 35.2843 55.6523 34.9073 55.6523C34.7543 55.6523 31.6119 58.6701 27.9239 62.3588ZM114.726 57.7948L112.597 59.9373L114.231 61.5711L115.866 63.205L118.01 61.0768C119.189 59.9064 120.153 58.8122 120.153 58.6453C120.153 58.2648 117.521 55.6523 117.138 55.6523C116.982 55.6523 115.897 56.6164 114.726 57.7948ZM34.7769 69.2084L28.0718 75.9146L29.7114 77.5534L31.3509 79.1921L38.0606 72.4904C41.7512 68.8042 44.7705 65.654 44.7705 65.4899C44.7705 65.1158 42.1372 62.5018 41.7603 62.5018C41.6073 62.5018 38.4649 65.5196 34.7769 69.2084ZM100.591 71.9225L92.0323 80.4804L93.673 82.1203L95.3137 83.7601L103.883 75.1954L112.452 66.6304L110.801 64.9976L109.15 63.3646L100.591 71.9225ZM41.6298 76.0579L34.9248 82.7641L36.5643 84.4029L38.2039 86.0416L44.9135 79.3399C48.6041 75.6537 51.6234 72.5035 51.6234 72.3394C51.6234 71.9653 48.9902 69.3513 48.6133 69.3513C48.4602 69.3513 45.3179 72.3691 41.6298 76.0579ZM48.4828 82.9074L41.7777 89.6136L43.4173 91.2524L45.0569 92.8911L51.7665 86.1894C55.4571 82.5033 58.4764 79.3531 58.4764 79.189C58.4764 78.8148 55.8432 76.2009 55.4662 76.2009C55.3132 76.2009 52.1708 79.2186 48.4828 82.9074ZM58.7611 86.3333L55.4859 89.6159L57.1232 91.2524L58.7605 92.8888L62.0448 89.6153C63.8514 87.8148 65.3294 86.2063 65.3294 86.041C65.3294 85.6637 62.6967 83.0504 62.3166 83.0504C62.1625 83.0504 60.5626 84.5276 58.7611 86.3333ZM86.2241 89.3502C81.714 89.9353 77.1876 91.5235 72.6107 94.1266L69.7553 95.7505L58.6192 95.8932L47.4831 96.0359L45.5757 96.9392C42.921 98.1961 41.2677 99.814 39.9834 102.412C38.9757 104.449 38.9172 104.719 38.9198 107.294C38.9223 109.668 39.0245 110.238 39.7093 111.705C40.1416 112.631 40.4617 113.414 40.42 113.445C40.3786 113.475 34.6909 110.705 27.7808 107.289C14.3333 100.642 13.2034 100.216 9.93712 100.557C4.53956 101.121 0.470605 105.139 0.0348704 110.337C-0.262377 113.879 1.36435 117.672 4.01302 119.613C5.77509 120.905 35.752 135.766 37.7747 136.35C39.3652 136.81 42.9307 136.85 87.5381 136.922L135.589 137L136.294 136.295L137 135.589V114.159V92.7279L136.299 92.0275L135.598 91.3269H124.436H113.274L112.573 92.0275C112.011 92.5897 111.872 93.0178 111.872 94.1968V95.6657L110.659 94.9092C108.307 93.4425 103.139 91.0652 101.022 90.4761C96.3548 89.1776 90.8093 88.7554 86.2241 89.3502ZM95.1872 93.916C100.263 94.6218 105.539 96.7759 109.66 99.8254L111.867 101.458L111.87 116.947L111.872 132.437L75.823 132.359C39.8912 132.282 39.7684 132.279 38.203 131.677C37.3393 131.345 29.9344 127.725 21.7476 123.631C5.62889 115.573 5.53381 115.513 4.78598 112.843C4.05128 110.22 5.21828 107.352 7.58656 105.961C8.74556 105.28 9.2444 105.169 11.1335 105.169H13.3319L26.9162 111.947L40.5002 118.725H56.0687H71.6373L72.338 118.024C73.2654 117.098 73.2654 115.786 72.338 114.859L71.6373 114.159H60.4498C52.5009 114.159 48.9225 114.058 48.0873 113.812C45.6334 113.087 43.3428 109.948 43.3428 107.309C43.3428 104.671 45.6334 101.531 48.0873 100.807C48.9177 100.561 52.3807 100.46 59.8904 100.46H70.5182L74.443 98.3119C78.7558 95.952 82.2257 94.6437 85.7364 94.0535C88.6041 93.5715 92.3204 93.5176 95.1872 93.916ZM132.431 114.159V132.424H124.436H116.441V114.159V95.8932H124.436H132.431V114.159ZM123.151 118.983C121.88 119.541 121.153 120.7 121.153 122.167C121.153 123.366 121.286 123.699 122.086 124.499C122.889 125.302 123.217 125.432 124.436 125.432C125.655 125.432 125.983 125.302 126.787 124.499C127.59 123.696 127.72 123.368 127.72 122.15C127.72 120.947 127.587 120.601 126.837 119.851C125.894 118.908 124.219 118.514 123.151 118.983Z" fill="#E4E5F0"/>
</svg>
