<svg width="140" height="140" viewBox="0 0 140 140" fill="none" xmlns="http://www.w3.org/2000/svg">
<path fill-rule="evenodd" clip-rule="evenodd" d="M27.4432 0.0463118C22.6193 0.55251 18.9852 1.60209 15.444 3.51224C3.47754 9.9669 -2.44952 23.6069 0.95049 36.8658C3.18204 45.5681 9.79108 53.1014 18.2105 56.5388C22.1043 58.1284 24.5844 58.5777 29.4151 58.5679C33.2351 58.56 34.1337 58.465 36.5982 57.8081C39.9292 56.92 43.7205 55.1371 46.4574 53.1712L48.4292 51.7552L50.443 53.7357L52.4565 55.7166L51.1072 57.7836C48.3151 62.0606 47.0278 67.6245 47.6641 72.6631C48.0869 76.0113 49.37 79.5806 51.1072 82.2417L52.4565 84.3088L50.443 86.2896L48.4292 88.2702L46.4574 86.862C30.8382 75.7059 9.02544 82.1293 1.97218 99.9618C-0.469232 106.135 -0.625289 113.643 1.55387 120.091C7.12374 136.568 26.0193 144.645 41.6621 137.235C45.2588 135.531 47.4754 133.978 50.1258 131.306C53.9692 127.431 56.5946 122.746 57.9366 117.37C58.4292 115.396 58.5411 114.126 58.5337 110.576C58.5258 106.756 58.4309 105.858 57.774 103.393C56.8858 100.062 55.103 96.2708 53.1371 93.5339L51.721 91.562L53.7016 89.5482L55.6825 87.5347L57.772 88.8986C65.0994 93.682 74.8667 93.6761 82.2076 88.884L84.2746 87.5347L86.2555 89.5482L88.2361 91.562L86.8172 93.5339C80.7676 101.94 79.6388 113.268 83.9217 122.593C86.9422 129.17 92.8865 134.941 99.3152 137.538C110.741 142.155 123.185 139.542 131.585 130.763C134.005 128.234 135.317 126.382 136.805 123.393C144.62 107.7 136.549 88.3809 119.877 82.8733C112.079 80.2969 104.454 80.8657 97.2676 84.5592C95.9313 85.246 94.0933 86.3674 93.1831 87.0516L91.5279 88.2953L89.5141 86.302L87.5006 84.3088L88.8499 82.2417C93.642 74.9009 93.6479 65.1335 88.8645 57.8062L87.5006 55.7166L89.5141 53.7357L91.5279 51.7552L93.4997 53.1712C96.2366 55.1371 100.028 56.92 103.359 57.8081C105.823 58.465 106.722 58.56 110.542 58.5679C114.092 58.5752 115.362 58.4634 117.336 57.9707C129.739 54.8749 138.519 44.7675 139.843 32.0596C141.071 20.2802 134.406 8.36492 123.641 3.0928C110.869 -3.1613 95.6755 0.44913 87.1496 11.7641C79.4577 21.972 79.3279 35.9909 86.8279 46.4915L88.2361 48.4633L86.2555 50.4771L84.2746 52.4907L82.2076 51.1414C79.5465 49.4042 75.9771 48.1211 72.629 47.6983C67.5904 47.0619 62.0264 48.3492 57.7495 51.1414L55.6825 52.4907L53.7016 50.4771L51.721 48.4633L53.1371 46.4915C55.105 43.7515 56.887 39.9605 57.7715 36.6323C58.7515 32.9441 58.8768 26.6836 58.0419 23.1112C55.3416 11.557 46.5644 2.91505 35.1897 0.611102C33.0407 0.175608 29.0097 -0.118196 27.4432 0.0463118ZM33.6404 5.05787C38.8272 5.9852 43.0979 8.22492 46.8686 11.9956C55.2396 20.3669 56.5608 33.043 50.1022 43.027C46.7929 48.1425 41.4951 51.8777 35.1661 53.558C32.2593 54.3295 26.3703 54.2864 23.3587 53.4715C11.7378 50.3264 4.05106 39.8954 4.72177 28.1816C5.41275 16.1171 14.1322 6.69365 26.3165 4.84407C27.9421 4.59731 31.6737 4.70604 33.6404 5.05787ZM116.745 5.47478C130.791 9.24014 138.567 23.75 133.931 37.5447C131.607 44.4613 125.554 50.514 118.638 52.8383C100.752 58.8484 82.9248 43.7115 86.1498 25.2531C87.9146 15.1542 95.9302 6.98605 105.935 5.09139C108.875 4.53449 113.903 4.7128 116.745 5.47478ZM25.6379 9.82042L24.908 10.5503V16.0187V21.4869L23.7813 22.2326C22.6973 22.95 22.6545 22.9562 22.6545 22.3982C22.6545 22.079 22.3432 21.5069 21.9629 21.1266C21.2773 20.4407 21.228 20.4351 15.8939 20.4351C10.5598 20.4351 10.5105 20.4407 9.82488 21.1266L9.13333 21.8179V31.7027V41.5875L9.82488 42.2788C10.5105 42.9647 10.5598 42.9704 15.8939 42.9704C21.228 42.9704 21.2773 42.9647 21.9629 42.2788C22.3432 41.8985 22.6545 41.3256 22.6545 41.0053C22.6545 40.4856 22.8573 40.5594 24.5528 41.6968L26.4514 42.9704H35.154C41.1635 42.9704 44.2157 42.8644 45.0162 42.6278C46.5636 42.1706 48.8971 39.8371 49.3543 38.2898C49.8081 36.7537 49.8081 28.9053 49.3543 27.3692C48.8971 25.8219 46.5636 23.4883 45.0162 23.0312C44.3785 22.8427 42.6531 22.6886 41.1821 22.6886H38.5072L38.3619 20.1362C38.2365 17.9387 38.0751 17.2982 37.2002 15.5283C35.4416 11.9697 32.0776 9.62408 28.2156 9.26324C26.4894 9.10211 26.3196 9.13901 25.6379 9.82042ZM31.7669 15.7168C33.6035 17.5644 33.9221 18.5911 33.9221 22.6636C33.9221 25.6317 33.9618 25.8526 34.6137 26.5041C35.2866 27.1774 35.4182 27.1957 39.5559 27.1957C43.6937 27.1957 43.8252 27.214 44.4982 27.8872C45.1714 28.5602 45.1898 28.6917 45.1898 32.8295C45.1898 36.9672 45.1714 37.0988 44.4982 37.7718L43.8069 38.4633H35.8503H27.8937L25.2742 36.736L22.6545 35.0086V31.7039V28.3993L25.7697 26.3396C27.483 25.2069 29.0041 24.0571 29.15 23.7844C29.2956 23.512 29.4151 21.2526 29.4151 18.7635C29.4151 13.4638 29.4641 13.4001 31.7669 15.7168ZM93.2054 18.8731L92.5138 19.5644V29.4492V39.334L93.2054 40.0253L93.8966 40.7168H103.781H113.666L114.358 40.0253C114.86 39.5233 115.049 39.0275 115.049 38.2151V37.0965L120.463 38.9067C123.441 39.9022 126.172 40.7168 126.533 40.7168C126.893 40.7168 127.498 40.4056 127.879 40.0253L128.57 39.334V29.4492V19.5644L127.879 18.8731C127.498 18.4928 126.893 18.1816 126.533 18.1816C126.172 18.1816 123.441 18.9962 120.463 19.9917L115.049 21.8019V20.6833C115.049 19.8709 114.86 19.3751 114.358 18.8731L113.666 18.1816H103.781H93.8966L93.2054 18.8731ZM110.542 29.4492V36.2098H103.781H97.0209V29.4492V22.6886H103.781H110.542V29.4492ZM124.063 29.4278V35.3222L119.627 33.8399L115.19 32.3577V29.4481V26.5385L119.556 25.0582C121.958 24.2441 123.954 23.5681 123.993 23.5559C124.031 23.5436 124.063 26.1861 124.063 29.4278ZM18.1474 31.7027V38.4633H15.8939H13.6404V31.7027V24.9421H15.8939H18.1474V31.7027ZM73.7814 52.4067C80.478 53.8078 86.1834 59.5132 87.5845 66.2099C88.6161 71.1403 87.4766 76.4958 84.5312 80.5589C83.882 81.455 83.48 81.8059 83.4025 81.5448C83.3366 81.322 83.129 80.569 82.9414 79.8719C82.3738 77.7628 80.9859 75.471 79.3115 73.8775C78.4388 73.0473 77.4715 72.2251 77.1617 72.0504C76.6825 71.7806 76.6521 71.6569 76.9577 71.2248C77.1552 70.9456 77.6622 70.0197 78.0842 69.1676C78.7298 67.8639 78.8501 67.2611 78.8431 65.3648C78.8335 62.6645 78.131 60.969 76.2377 59.0746C74.4025 57.2383 72.8602 56.638 69.9785 56.638C67.0943 56.638 65.5552 57.238 63.7112 59.082C61.7543 61.0391 61.1028 62.6535 61.1188 65.5056C61.1323 67.8958 61.5149 69.0535 63.0092 71.2248C63.3036 71.6527 63.2698 71.7831 62.7954 72.0504C62.4856 72.2251 61.5182 73.0473 60.6456 73.8775C58.9712 75.471 57.5833 77.7628 57.0157 79.8719C56.8281 80.569 56.6205 81.322 56.5546 81.5448C56.4771 81.8051 56.0774 81.4524 55.4368 80.5589C53.3095 77.5921 52.2625 74.6403 52.0453 70.9986C51.3419 59.1898 62.1236 49.9676 73.7814 52.4067ZM71.7614 61.3828C74.6555 62.5921 75.3611 66.3865 73.1104 68.6375C71.2831 70.4645 68.674 70.4645 66.8467 68.6375C63.3633 65.1538 67.207 59.48 71.7614 61.3828ZM73.6808 75.3471C75.6141 76.2558 76.8374 77.4217 77.8484 79.3186C78.616 80.7586 78.8022 81.4637 78.9219 83.3823L79.0667 85.704L76.9876 86.5662C75.8439 87.0406 74.156 87.5665 73.2366 87.7347C69.7436 88.3744 66.4166 87.9958 62.9695 86.5662L60.8904 85.704L61.0332 83.4217C61.3098 78.9986 63.8109 75.8299 67.8659 74.7642C69.2478 74.4009 72.3242 74.7093 73.6808 75.3471ZM35.4714 86.5733C44.6388 89.0837 51.0715 95.5877 53.5239 104.825C54.2954 107.732 54.2523 113.621 53.4374 116.633C51.0008 125.636 44.4745 132.162 35.4714 134.598C32.4599 135.413 26.5708 135.456 23.6641 134.685C12.7838 131.796 5.4198 122.984 4.70825 112.001C4.25557 105.016 6.86881 98.2156 11.9615 93.1226C15.6725 89.4116 19.8925 87.1727 25.0489 86.1795C27.6917 85.6702 32.8911 85.8668 35.4714 86.5733ZM116.598 86.5733C125.766 89.0837 132.198 95.5877 134.651 104.825C135.422 107.732 135.379 113.621 134.564 116.633C132.128 125.636 125.602 132.162 116.598 134.598C113.587 135.413 107.698 135.456 104.791 134.685C93.9107 131.796 86.5468 122.984 85.8352 112.001C85.3825 105.016 87.9958 98.2156 93.0885 93.1226C96.7995 89.4116 101.019 87.1727 106.176 86.1795C108.819 85.6702 114.018 85.8668 116.598 86.5733ZM18.9176 97.3434C16.1319 98.0471 13.5393 100.224 12.2826 102.915C11.6367 104.299 11.5336 104.889 11.5336 107.196C11.5336 111.593 11.6987 111.839 20.7705 120.928C27.8748 128.047 28.5032 128.604 29.4151 128.604C30.3269 128.604 30.9554 128.047 38.0596 120.928C47.1315 111.839 47.2965 111.593 47.2965 107.196C47.2965 104.889 47.1934 104.299 46.5475 102.915C45.5914 100.868 43.63 98.9068 41.583 97.9508C40.1965 97.3035 39.6148 97.2023 37.3024 97.2057C34.2672 97.2102 32.7793 97.7161 30.6348 99.4736L29.4151 100.473L28.1953 99.4736C26.3446 97.957 24.5911 97.2936 22.1255 97.177C20.9446 97.1212 19.5012 97.1961 18.9176 97.3434ZM90.9518 100L90.2603 100.691V110.576V120.461L90.9518 121.152L91.6431 121.844H98.3268H105.01L107.319 124.097C109.245 125.977 109.78 126.351 110.542 126.351C111.304 126.351 111.839 125.977 113.765 124.097L116.074 121.844H122.757H129.441L130.132 121.152L130.824 120.461V110.576V100.691L130.132 100L129.441 99.3085H110.542H91.6431L90.9518 100ZM23.7077 101.994C24.2767 102.232 25.5914 103.247 26.6289 104.248C29.1739 106.705 29.6562 106.705 32.2013 104.248C34.2787 102.242 35.5709 101.562 37.3024 101.562C40.4385 101.562 42.9238 104.053 42.9238 107.196C42.9238 109.421 42.1996 110.387 35.6416 116.912L29.4151 123.107L23.1886 116.912C19.2815 113.025 16.7655 110.297 16.4342 109.59C15.4886 107.572 15.89 104.917 17.3863 103.289C18.8367 101.711 21.6505 101.135 23.7077 101.994ZM126.317 110.576V117.337H120.236H114.155L112.349 119.072L110.542 120.806L108.736 119.072L106.929 117.337H100.848H94.7673V110.576V103.816H110.542H126.317V110.576ZM99.2744 110.576V112.83H101.528H103.781V110.576V108.323H101.528H99.2744V110.576ZM108.288 110.576V112.83H110.542H112.796V110.576V108.323H110.542H108.288V110.576ZM117.303 110.576V112.83H119.556H121.81V110.576V108.323H119.556H117.303V110.576Z" fill="#E4E5F0"/>
</svg>
