<svg width="32" height="32" viewBox="0 0 32 32" fill="none" xmlns="http://www.w3.org/2000/svg">
<path d="M27.4805 25.5867C28.3161 24.4667 28.8895 23.1733 29.1584 21.802C29.4274 20.4307 29.3849 19.0165 29.0343 17.6638C28.6836 16.3111 28.0337 15.0544 27.1324 13.9864C26.2312 12.9184 25.1016 12.0665 23.8271 11.4934C23.5495 9.89621 22.9115 8.3833 21.9616 7.06963C21.0116 5.75597 19.7748 4.67611 18.3449 3.91211C16.9151 3.14811 15.3299 2.72008 13.7099 2.66052C12.0898 2.60097 10.4775 2.91146 8.99546 3.56842C7.51339 4.22537 6.20057 5.2115 5.15674 6.45187C4.1129 7.69225 3.36553 9.15423 2.9714 10.7267C2.57727 12.2992 2.54676 13.9409 2.88218 15.527C3.2176 17.113 3.91013 18.6018 4.90714 19.8801L3.05381 21.7201C2.8688 21.9076 2.74347 22.1457 2.69364 22.4043C2.64381 22.663 2.6717 22.9306 2.77381 23.1734C2.87384 23.4169 3.0437 23.6253 3.26199 23.7724C3.48029 23.9196 3.73724 23.9988 4.00048 24.0001H11.5871C12.3427 25.5929 13.5339 26.9391 15.0228 27.883C16.5118 28.8269 18.2376 29.3297 20.0005 29.3334H28.0005C28.2637 29.3321 28.5207 29.2529 28.739 29.1058C28.9573 28.9587 29.1271 28.7502 29.2271 28.5067C29.3292 28.2639 29.3571 27.9963 29.3073 27.7377C29.2575 27.479 29.1322 27.2409 28.9471 27.0534L27.4805 25.5867ZM10.6671 20.0001C10.669 20.4466 10.7046 20.8923 10.7738 21.3334H7.21381L7.68048 20.8801C7.80545 20.7561 7.90464 20.6087 7.97233 20.4462C8.04002 20.2837 8.07487 20.1094 8.07487 19.9334C8.07487 19.7574 8.04002 19.5831 7.97233 19.4206C7.90464 19.2582 7.80545 19.1107 7.68048 18.9867C6.93322 18.2477 6.34081 17.3671 5.93788 16.3964C5.53495 15.4257 5.32959 14.3844 5.33381 13.3334C5.33381 11.2117 6.17666 9.17684 7.67696 7.67655C9.17725 6.17626 11.2121 5.3334 13.3338 5.3334C14.9894 5.32345 16.6065 5.83258 17.9577 6.78922C19.309 7.74586 20.3265 9.10191 20.8671 10.6667C20.5738 10.6667 20.2938 10.6667 20.0005 10.6667C17.5251 10.6667 15.1512 11.6501 13.4008 13.4004C11.6505 15.1507 10.6671 17.5247 10.6671 20.0001ZM24.7205 26.6667L24.7871 26.7334H20.0005C18.4583 26.7306 16.9647 26.1933 15.7742 25.2129C14.5838 24.2324 13.77 22.8696 13.4717 21.3565C13.1733 19.8434 13.4088 18.2737 14.1379 16.9148C14.8671 15.5558 16.0448 14.4917 17.4705 13.9037C18.8963 13.3157 20.4818 13.2401 21.9569 13.69C23.4321 14.1398 24.7056 15.0872 25.5607 16.3707C26.4157 17.6542 26.7993 19.1944 26.6461 20.729C26.4929 22.2636 25.8124 23.6976 24.7205 24.7867C24.4693 25.0329 24.3255 25.3684 24.3205 25.7201C24.3212 25.8965 24.3569 26.071 24.4256 26.2335C24.4943 26.396 24.5945 26.5433 24.7205 26.6667Z" fill="#FF6664"/>
</svg>
