<svg width="32" height="32" viewBox="0 0 32 32" fill="none" xmlns="http://www.w3.org/2000/svg">
<path d="M17.4268 16.0003H10.7602C10.4065 16.0003 10.0674 16.1408 9.81735 16.3909C9.5673 16.6409 9.42682 16.98 9.42682 17.3337C9.42682 17.6873 9.5673 18.0264 9.81735 18.2765C10.0674 18.5265 10.4065 18.667 10.7602 18.667H17.4268C17.7804 18.667 18.1196 18.5265 18.3696 18.2765C18.6197 18.0264 18.7602 17.6873 18.7602 17.3337C18.7602 16.98 18.6197 16.6409 18.3696 16.3909C18.1196 16.1408 17.7804 16.0003 17.4268 16.0003ZM18.7602 26.667H8.09349C7.73987 26.667 7.40073 26.5265 7.15068 26.2765C6.90063 26.0264 6.76016 25.6873 6.76016 25.3337V6.66699C6.76016 6.31337 6.90063 5.97423 7.15068 5.72418C7.40073 5.47413 7.73987 5.33366 8.09349 5.33366H14.7602V9.33366C14.7602 10.3945 15.1816 11.4119 15.9317 12.1621C16.6819 12.9122 17.6993 13.3337 18.7602 13.3337H22.7602V14.667C22.7602 15.0206 22.9006 15.3598 23.1507 15.6098C23.4007 15.8598 23.7399 16.0003 24.0935 16.0003C24.4471 16.0003 24.7862 15.8598 25.0363 15.6098C25.2863 15.3598 25.4268 15.0206 25.4268 14.667V12.0003C25.4326 11.974 25.4326 11.9467 25.4268 11.9203C25.4155 11.796 25.384 11.6744 25.3335 11.5603V11.4403C25.2694 11.3032 25.1839 11.1772 25.0802 11.067L17.0802 3.06699C16.967 2.96068 16.8361 2.87495 16.6935 2.81366C16.6935 2.81366 16.6268 2.81366 16.5868 2.81366C16.4554 2.73763 16.3105 2.68782 16.1602 2.66699H8.16016C7.09929 2.66699 6.08187 3.08842 5.33173 3.83857C4.58158 4.58871 4.16016 5.60613 4.16016 6.66699V25.3337C4.16016 26.3945 4.58158 27.4119 5.33173 28.1621C6.08187 28.9122 7.09929 29.3337 8.16016 29.3337H18.8268C19.1804 29.3337 19.5196 29.1932 19.7696 28.9431C20.0197 28.6931 20.1602 28.3539 20.1602 28.0003C20.1602 27.6467 20.0197 27.3076 19.7696 27.0575C19.5196 26.8075 19.1804 26.667 18.8268 26.667H18.7602ZM17.4268 7.21366L20.8668 10.667H18.7602C18.4065 10.667 18.0674 10.5265 17.8173 10.2765C17.5673 10.0264 17.4268 9.68728 17.4268 9.33366V7.21366ZM24.8535 27.0537C24.7901 26.9963 24.7233 26.9429 24.6535 26.8937C24.507 26.7984 24.3443 26.7306 24.1735 26.6937C23.9593 26.6508 23.7378 26.6612 23.5286 26.7239C23.3193 26.7867 23.1287 26.8999 22.9735 27.0537C22.8485 27.1776 22.7493 27.3251 22.6816 27.4876C22.6139 27.65 22.5791 27.8243 22.5791 28.0003C22.5791 28.1763 22.6139 28.3506 22.6816 28.5131C22.7493 28.6756 22.8485 28.823 22.9735 28.947C23.2218 29.1933 23.557 29.3322 23.9068 29.3337C24.1263 29.3348 24.3427 29.2817 24.5368 29.179C24.7308 29.0764 24.8965 28.9275 25.0192 28.7455C25.1419 28.5635 25.2177 28.3539 25.24 28.1356C25.2622 27.9172 25.2302 27.6967 25.1468 27.4937C25.0743 27.3316 24.9752 27.1829 24.8535 27.0537ZM17.4268 21.3337H10.7602C10.4065 21.3337 10.0674 21.4741 9.81735 21.7242C9.5673 21.9742 9.42682 22.3134 9.42682 22.667C9.42682 23.0206 9.5673 23.3598 9.81735 23.6098C10.0674 23.8599 10.4065 24.0003 10.7602 24.0003H17.4268C17.7804 24.0003 18.1196 23.8599 18.3696 23.6098C18.6197 23.3598 18.7602 23.0206 18.7602 22.667C18.7602 22.3134 18.6197 21.9742 18.3696 21.7242C18.1196 21.4741 17.7804 21.3337 17.4268 21.3337ZM23.9068 17.3337C23.2042 17.3332 22.5139 17.5178 21.9054 17.8689C21.2968 18.22 20.7914 18.7252 20.4402 19.3337C20.3526 19.486 20.2959 19.6541 20.2733 19.8283C20.2507 20.0026 20.2627 20.1795 20.3085 20.3492C20.3543 20.5188 20.4331 20.6777 20.5403 20.8169C20.6476 20.9561 20.7812 21.0728 20.9335 21.1603C21.0858 21.2479 21.2539 21.3046 21.4281 21.3271C21.6024 21.3497 21.7794 21.3378 21.949 21.292C22.1186 21.2462 22.2776 21.1674 22.4167 21.0602C22.5559 20.9529 22.6726 20.8193 22.7602 20.667C22.8774 20.464 23.046 20.2955 23.2491 20.1785C23.4521 20.0614 23.6825 20 23.9169 20.0004C24.1513 20.0007 24.3814 20.0628 24.5841 20.1805C24.7868 20.2982 24.955 20.4672 25.0715 20.6705C25.1881 20.8738 25.2491 21.1043 25.2482 21.3387C25.2473 21.5731 25.1846 21.8031 25.0665 22.0056C24.9484 22.208 24.779 22.3758 24.5754 22.4919C24.3718 22.608 24.1412 22.6684 23.9068 22.667C23.5532 22.667 23.2141 22.8075 22.964 23.0575C22.714 23.3076 22.5735 23.6467 22.5735 24.0003C22.5735 24.3539 22.714 24.6931 22.964 24.9431C23.2141 25.1932 23.5532 25.3337 23.9068 25.3337C24.9677 25.3337 25.9851 24.9122 26.7352 24.1621C27.4854 23.4119 27.9068 22.3945 27.9068 21.3337C27.9068 20.2728 27.4854 19.2554 26.7352 18.5052C25.9851 17.7551 24.9677 17.3337 23.9068 17.3337ZM10.7602 13.3337H12.0935C12.4471 13.3337 12.7863 13.1932 13.0363 12.9431C13.2863 12.6931 13.4268 12.3539 13.4268 12.0003C13.4268 11.6467 13.2863 11.3076 13.0363 11.0575C12.7863 10.8075 12.4471 10.667 12.0935 10.667H10.7602C10.4065 10.667 10.0674 10.8075 9.81735 11.0575C9.5673 11.3076 9.42682 11.6467 9.42682 12.0003C9.42682 12.3539 9.5673 12.6931 9.81735 12.9431C10.0674 13.1932 10.4065 13.3337 10.7602 13.3337Z" fill="#FF6664"/>
</svg>
