<svg width="32" height="32" viewBox="0 0 32 32" fill="none" xmlns="http://www.w3.org/2000/svg">
<path d="M29.333 12.8935C29.2488 12.6496 29.0956 12.4354 28.8921 12.2769C28.6886 12.1183 28.4434 12.0222 28.1863 12.0002L20.5996 10.8935L17.1996 4.00019C17.0905 3.77477 16.92 3.58465 16.7078 3.45162C16.4955 3.3186 16.2501 3.24805 15.9996 3.24805C15.7492 3.24805 15.5038 3.3186 15.2915 3.45162C15.0793 3.58465 14.9088 3.77477 14.7996 4.00019L11.3996 10.8802L3.81298 12.0002C3.56621 12.0353 3.33421 12.1388 3.14331 12.2991C2.95241 12.4593 2.81026 12.6699 2.73298 12.9069C2.66224 13.1384 2.65589 13.3849 2.71461 13.6198C2.77334 13.8547 2.89492 14.0692 3.06631 14.2402L8.57298 19.5735L7.23964 27.1469C7.19204 27.3968 7.21697 27.6552 7.31147 27.8915C7.40598 28.1277 7.56612 28.332 7.77298 28.4802C7.9746 28.6243 8.21241 28.7094 8.45971 28.7259C8.70701 28.7424 8.95401 28.6896 9.17298 28.5735L15.9996 25.0135L22.7996 28.5869C22.9868 28.6924 23.1981 28.7476 23.413 28.7469C23.6954 28.7479 23.9709 28.6592 24.1996 28.4935C24.4065 28.3453 24.5666 28.1411 24.6611 27.9048C24.7557 27.6685 24.7806 27.4102 24.733 27.1602L23.3996 19.5869L28.9063 14.2535C29.0988 14.0904 29.2411 13.8761 29.3166 13.6353C29.3922 13.3946 29.3978 13.1374 29.333 12.8935ZM21.133 18.2269C20.9766 18.3781 20.8596 18.5653 20.7922 18.7722C20.7248 18.979 20.7091 19.1992 20.7463 19.4135L21.7063 25.0002L16.693 22.3335C16.5001 22.2308 16.2849 22.1771 16.0663 22.1771C15.8478 22.1771 15.6326 22.2308 15.4396 22.3335L10.4263 25.0002L11.3863 19.4135C11.4236 19.1992 11.4078 18.979 11.3404 18.7722C11.273 18.5653 11.156 18.3781 10.9996 18.2269L6.99964 14.2269L12.613 13.4135C12.829 13.3835 13.0343 13.3009 13.211 13.1731C13.3876 13.0452 13.5303 12.876 13.6263 12.6802L15.9996 7.60019L18.5063 12.6935C18.6024 12.8893 18.745 13.0585 18.9216 13.1864C19.0983 13.3142 19.3036 13.3968 19.5196 13.4269L25.133 14.2402L21.133 18.2269Z" fill="#FF6664"/>
</svg>
