<svg width="20" height="20" viewBox="0 0 20 20" fill="none" xmlns="http://www.w3.org/2000/svg">
<path d="M17.4993 11.6667C17.2783 11.6667 17.0664 11.7545 16.9101 11.9108C16.7538 12.067 16.666 12.279 16.666 12.5V15.8333C16.666 16.0544 16.5782 16.2663 16.4219 16.4226C16.2657 16.5789 16.0537 16.6667 15.8327 16.6667H4.16602C3.945 16.6667 3.73304 16.5789 3.57676 16.4226C3.42048 16.2663 3.33268 16.0544 3.33268 15.8333V12.5C3.33268 12.279 3.24489 12.067 3.0886 11.9108C2.93232 11.7545 2.72036 11.6667 2.49935 11.6667C2.27834 11.6667 2.06637 11.7545 1.91009 11.9108C1.75381 12.067 1.66602 12.279 1.66602 12.5V15.8333C1.66602 16.4964 1.92941 17.1323 2.39825 17.6011C2.86709 18.0699 3.50297 18.3333 4.16602 18.3333H15.8327C16.4957 18.3333 17.1316 18.0699 17.6005 17.6011C18.0693 17.1323 18.3327 16.4964 18.3327 15.8333V12.5C18.3327 12.279 18.2449 12.067 18.0886 11.9108C17.9323 11.7545 17.7204 11.6667 17.4993 11.6667ZM9.40768 13.0917C9.48694 13.1675 9.58039 13.227 9.68268 13.2667C9.78243 13.3108 9.89029 13.3335 9.99935 13.3335C10.1084 13.3335 10.2163 13.3108 10.316 13.2667C10.4183 13.227 10.5118 13.1675 10.591 13.0917L13.9243 9.75834C14.0813 9.60142 14.1694 9.38859 14.1694 9.16667C14.1694 8.94475 14.0813 8.73193 13.9243 8.57501C13.7674 8.41809 13.5546 8.32993 13.3327 8.32993C13.1108 8.32993 12.8979 8.41809 12.741 8.57501L10.8327 10.4917V2.50001C10.8327 2.27899 10.7449 2.06703 10.5886 1.91075C10.4323 1.75447 10.2204 1.66667 9.99935 1.66667C9.77834 1.66667 9.56637 1.75447 9.41009 1.91075C9.25381 2.06703 9.16602 2.27899 9.16602 2.50001V10.4917L7.25768 8.57501C7.17998 8.49731 7.08774 8.43567 6.98622 8.39362C6.88471 8.35157 6.7759 8.32993 6.66602 8.32993C6.55613 8.32993 6.44733 8.35157 6.34581 8.39362C6.24429 8.43567 6.15205 8.49731 6.07435 8.57501C5.99665 8.6527 5.93502 8.74495 5.89297 8.84646C5.85092 8.94798 5.82927 9.05679 5.82927 9.16667C5.82927 9.27655 5.85092 9.38536 5.89297 9.48688C5.93502 9.5884 5.99665 9.68064 6.07435 9.75834L9.40768 13.0917Z" fill="#777C8B"/>
</svg>
