<svg width="20" height="20" viewBox="0 0 20 20" fill="none" xmlns="http://www.w3.org/2000/svg">
<circle cx="10" cy="10" r="10" fill="#777C8B"/>
<path d="M4.75 13.3332V7.33316H9.7V13.3332H8.56667V8.39149H5.88333V13.3332H4.75Z" fill="white"/>
<path d="M10.8698 13.3332V7.33316H13.4031C13.4615 7.33316 13.5392 7.33594 13.6365 7.34149C13.7365 7.34427 13.8253 7.3526 13.9031 7.36649C14.2615 7.42205 14.5545 7.5401 14.7823 7.72066C15.0128 7.90122 15.1823 8.12899 15.2906 8.40399C15.399 8.67622 15.4531 8.98038 15.4531 9.31649C15.4531 9.6526 15.3976 9.95816 15.2865 10.2332C15.1781 10.5054 15.0087 10.7318 14.7781 10.9123C14.5503 11.0929 14.2587 11.2109 13.9031 11.2665C13.8253 11.2776 13.7365 11.2859 13.6365 11.2915C13.5365 11.297 13.4587 11.2998 13.4031 11.2998H12.0031V13.3332H10.8698ZM12.0031 10.2415H13.3531C13.4115 10.2415 13.4753 10.2387 13.5448 10.2332C13.6142 10.2276 13.6781 10.2165 13.7365 10.1998C13.8892 10.1582 14.0073 10.0887 14.0906 9.99149C14.174 9.89149 14.2309 9.78177 14.2615 9.66233C14.2948 9.5401 14.3115 9.42483 14.3115 9.31649C14.3115 9.20816 14.2948 9.09427 14.2615 8.97483C14.2309 8.8526 14.174 8.74288 14.0906 8.64566C14.0073 8.54566 13.8892 8.47483 13.7365 8.43316C13.6781 8.41649 13.6142 8.40538 13.5448 8.39983C13.4753 8.39427 13.4115 8.39149 13.3531 8.39149H12.0031V10.2415Z" fill="white"/>
</svg>
