<svg width="56" height="17" viewBox="0 0 56 17" fill="none" xmlns="http://www.w3.org/2000/svg">
<path d="M0.96 16.024V0.526H3.725V1.66H2.094V14.89H3.725V16.024H0.96ZM7.50653 13V4.299L5.60953 5.447V4.054L7.50653 2.92H8.77353V13H7.50653ZM11.157 12.993L11.164 11.873L15.637 7.848C16.0104 7.512 16.26 7.19467 16.386 6.896C16.5167 6.59267 16.582 6.28233 16.582 5.965C16.582 5.57767 16.4934 5.22767 16.316 4.915C16.1387 4.60233 15.896 4.355 15.588 4.173C15.2847 3.991 14.9394 3.9 14.552 3.9C14.1507 3.9 13.7937 3.99567 13.481 4.187C13.1684 4.37367 12.921 4.62333 12.739 4.936C12.5617 5.24867 12.4754 5.58933 12.48 5.958H11.206C11.206 5.32333 11.353 4.76333 11.647 4.278C11.941 3.788 12.34 3.40533 12.844 3.13C13.3527 2.85 13.929 2.71 14.573 2.71C15.1984 2.71 15.7584 2.85467 16.253 3.144C16.7477 3.42867 17.1374 3.81833 17.422 4.313C17.7114 4.803 17.856 5.35833 17.856 5.979C17.856 6.41767 17.8 6.798 17.688 7.12C17.5807 7.442 17.4127 7.74067 17.184 8.016C16.9554 8.28667 16.6684 8.576 16.323 8.884L12.606 12.223L12.445 11.803H17.856V12.993H11.157ZM22.2958 13.196C21.7964 13.196 21.3321 13.105 20.9028 12.923C20.4734 12.7363 20.1024 12.475 19.7898 12.139C19.4818 11.7983 19.2554 11.3947 19.1108 10.928L20.3078 10.585C20.4618 11.0517 20.7184 11.4063 21.0778 11.649C21.4371 11.8917 21.8408 12.0107 22.2888 12.006C22.6994 11.9967 23.0541 11.9033 23.3528 11.726C23.6561 11.544 23.8894 11.2967 24.0528 10.984C24.2208 10.6713 24.3048 10.3097 24.3048 9.899C24.3048 9.27367 24.1181 8.76733 23.7448 8.38C23.3714 7.988 22.8814 7.792 22.2748 7.792C22.1068 7.792 21.9294 7.81533 21.7428 7.862C21.5608 7.90867 21.3904 7.974 21.2318 8.058L20.6298 7.071L24.3678 3.69L24.5288 4.11H19.5098V2.92H25.4528V4.117L22.2678 7.169L22.2538 6.728C22.9211 6.68133 23.5044 6.791 24.0038 7.057C24.5031 7.323 24.8904 7.70333 25.1658 8.198C25.4458 8.69267 25.5858 9.25967 25.5858 9.899C25.5858 10.543 25.4411 11.1123 25.1518 11.607C24.8624 12.1017 24.4704 12.4913 23.9758 12.776C23.4811 13.056 22.9211 13.196 22.2958 13.196ZM31.7598 13V11.145H27.1258V9.962L30.4508 2.92H31.8648L28.5398 9.962H31.7598V7.127H33.0198V9.962H34.0698V11.145H33.0198V13H31.7598ZM38.7276 13.21C38.2096 13.21 37.7266 13.1027 37.2786 12.888C36.8353 12.6733 36.455 12.3793 36.1376 12.006C35.825 11.628 35.601 11.194 35.4656 10.704L36.6626 10.382C36.7466 10.7133 36.896 11.0003 37.1106 11.243C37.3253 11.481 37.575 11.6677 37.8596 11.803C38.149 11.9337 38.45 11.999 38.7626 11.999C39.1733 11.999 39.542 11.901 39.8686 11.705C40.2 11.5043 40.4613 11.2407 40.6526 10.914C40.844 10.5827 40.9396 10.221 40.9396 9.829C40.9396 9.423 40.8393 9.05667 40.6386 8.73C40.4426 8.39867 40.179 8.13733 39.8476 7.946C39.5163 7.75467 39.1546 7.659 38.7626 7.659C38.3193 7.659 37.939 7.75233 37.6216 7.939C37.309 8.121 37.0616 8.345 36.8796 8.611L35.7736 8.191L36.0816 2.92H41.4926V4.103H36.6836L37.2366 3.585L36.9776 7.806L36.7046 7.449C36.9846 7.15033 37.3183 6.91933 37.7056 6.756C38.0976 6.59267 38.4966 6.511 38.9026 6.511C39.528 6.511 40.088 6.658 40.5826 6.952C41.0773 7.24133 41.4693 7.638 41.7586 8.142C42.048 8.64133 42.1926 9.20367 42.1926 9.829C42.1926 10.4497 42.034 11.0167 41.7166 11.53C41.3993 12.0387 40.977 12.447 40.4496 12.755C39.927 13.0583 39.353 13.21 38.7276 13.21ZM47.3037 13.21C46.6644 13.21 46.0834 13.056 45.5607 12.748C45.0427 12.44 44.6297 12.02 44.3217 11.488C44.0184 10.9513 43.8667 10.347 43.8667 9.675V6.322C43.8667 5.61733 44.0184 4.99433 44.3217 4.453C44.6297 3.907 45.0497 3.48233 45.5817 3.179C46.1184 2.871 46.7297 2.717 47.4157 2.717C47.9711 2.717 48.4867 2.83133 48.9627 3.06C49.4434 3.284 49.8471 3.60833 50.1737 4.033L49.2427 4.859C49.0421 4.565 48.7807 4.33167 48.4587 4.159C48.1367 3.98633 47.7891 3.9 47.4157 3.9C46.9724 3.9 46.5781 4.00733 46.2327 4.222C45.8921 4.432 45.6237 4.712 45.4277 5.062C45.2317 5.40733 45.1337 5.78067 45.1337 6.182V8.205L44.8607 7.897C45.1547 7.477 45.5281 7.141 45.9807 6.889C46.4334 6.637 46.9234 6.511 47.4507 6.511C48.0761 6.511 48.6361 6.658 49.1307 6.952C49.6301 7.246 50.0221 7.645 50.3067 8.149C50.5961 8.64833 50.7407 9.21067 50.7407 9.836C50.7407 10.4613 50.5844 11.0283 50.2717 11.537C49.9591 12.0457 49.5414 12.4517 49.0187 12.755C48.5007 13.0583 47.9291 13.21 47.3037 13.21ZM47.3037 12.006C47.7051 12.006 48.0714 11.9103 48.4027 11.719C48.7341 11.523 48.9954 11.2617 49.1867 10.935C49.3827 10.6037 49.4807 10.2373 49.4807 9.836C49.4807 9.43467 49.3827 9.06833 49.1867 8.737C48.9954 8.40567 48.7341 8.14433 48.4027 7.953C48.0761 7.757 47.7121 7.659 47.3107 7.659C46.9094 7.659 46.5431 7.757 46.2117 7.953C45.8851 8.14433 45.6237 8.40567 45.4277 8.737C45.2317 9.06833 45.1337 9.43467 45.1337 9.836C45.1337 10.2327 45.2294 10.5967 45.4207 10.928C45.6167 11.2547 45.8781 11.516 46.2047 11.712C46.5361 11.908 46.9024 12.006 47.3037 12.006ZM55.397 16.024H52.632V14.89H54.263V1.66H52.632V0.526H55.397V16.024Z" fill="#1D2434"/>
</svg>
