<svg width="41" height="12" viewBox="0 0 41 12" fill="none" xmlns="http://www.w3.org/2000/svg">
<path d="M4.263 11.21C3.507 11.21 2.85133 11.0397 2.296 10.699C1.74067 10.3583 1.31133 9.88933 1.008 9.292C0.709333 8.69 0.56 7.997 0.56 7.213C0.56 6.42433 0.714 5.73133 1.022 5.134C1.33 4.532 1.76167 4.06533 2.317 3.734C2.87233 3.398 3.521 3.23 4.263 3.23C5.019 3.23 5.67467 3.40033 6.23 3.741C6.78533 4.08167 7.21467 4.55067 7.518 5.148C7.82133 5.74533 7.973 6.43367 7.973 7.213C7.973 8.00167 7.819 8.697 7.511 9.299C7.20767 9.89633 6.77833 10.3653 6.223 10.706C5.66767 11.042 5.01433 11.21 4.263 11.21ZM4.263 9.831C4.98633 9.831 5.52533 9.58833 5.88 9.103C6.23933 8.613 6.419 7.983 6.419 7.213C6.419 6.42433 6.237 5.79433 5.873 5.323C5.51367 4.847 4.977 4.609 4.263 4.609C3.773 4.609 3.36933 4.721 3.052 4.945C2.73467 5.16433 2.499 5.47 2.345 5.862C2.191 6.24933 2.114 6.69967 2.114 7.213C2.114 8.00633 2.296 8.641 2.66 9.117C3.024 9.593 3.55833 9.831 4.263 9.831ZM14.8173 11V7.283C14.8173 6.989 14.7916 6.688 14.7403 6.38C14.6936 6.06733 14.6003 5.778 14.4603 5.512C14.3249 5.246 14.1313 5.03133 13.8793 4.868C13.6319 4.70467 13.3076 4.623 12.9062 4.623C12.6449 4.623 12.3976 4.66733 12.1643 4.756C11.9309 4.84 11.7256 4.97767 11.5483 5.169C11.3756 5.36033 11.2379 5.61233 11.1353 5.925C11.0373 6.23767 10.9883 6.618 10.9883 7.066L10.0783 6.723C10.0783 6.037 10.2066 5.43267 10.4633 4.91C10.7199 4.38267 11.0886 3.972 11.5693 3.678C12.0499 3.384 12.6309 3.237 13.3123 3.237C13.8349 3.237 14.2736 3.321 14.6283 3.489C14.9829 3.657 15.2699 3.87867 15.4893 4.154C15.7133 4.42467 15.8836 4.721 16.0003 5.043C16.1169 5.365 16.1963 5.68 16.2383 5.988C16.2803 6.296 16.3013 6.56667 16.3013 6.8V11H14.8173ZM9.50425 11V3.44H10.8133V5.624H10.9883V11H9.50425ZM18.2645 11V0.71H19.7275V11H18.2645ZM21.9696 2.201V0.78H23.4326V2.201H21.9696ZM21.9696 11V3.44H23.4326V11H21.9696ZM30.8407 11V7.283C30.8407 6.989 30.815 6.688 30.7637 6.38C30.717 6.06733 30.6237 5.778 30.4837 5.512C30.3484 5.246 30.1547 5.03133 29.9027 4.868C29.6554 4.70467 29.331 4.623 28.9297 4.623C28.6684 4.623 28.421 4.66733 28.1877 4.756C27.9544 4.84 27.749 4.97767 27.5717 5.169C27.399 5.36033 27.2614 5.61233 27.1587 5.925C27.0607 6.23767 27.0117 6.618 27.0117 7.066L26.1017 6.723C26.1017 6.037 26.23 5.43267 26.4867 4.91C26.7434 4.38267 27.112 3.972 27.5927 3.678C28.0734 3.384 28.6544 3.237 29.3357 3.237C29.8584 3.237 30.297 3.321 30.6517 3.489C31.0064 3.657 31.2934 3.87867 31.5127 4.154C31.7367 4.42467 31.907 4.721 32.0237 5.043C32.1404 5.365 32.2197 5.68 32.2617 5.988C32.3037 6.296 32.3247 6.56667 32.3247 6.8V11H30.8407ZM25.5277 11V3.44H26.8367V5.624H27.0117V11H25.5277ZM37.4053 11.21C36.6539 11.21 35.9936 11.0467 35.4243 10.72C34.8596 10.3887 34.4186 9.929 34.1013 9.341C33.7886 8.74833 33.6323 8.06233 33.6323 7.283C33.6323 6.457 33.7863 5.74067 34.0943 5.134C34.4069 4.52733 34.8409 4.05833 35.3963 3.727C35.9516 3.39567 36.5979 3.23 37.3353 3.23C38.1053 3.23 38.7609 3.40967 39.3023 3.769C39.8436 4.12367 40.2473 4.63 40.5133 5.288C40.7839 5.946 40.8913 6.72767 40.8353 7.633H39.3723V7.101C39.3629 6.22367 39.1949 5.575 38.8683 5.155C38.5463 4.735 38.0539 4.525 37.3913 4.525C36.6586 4.525 36.1079 4.756 35.7393 5.218C35.3706 5.68 35.1863 6.34733 35.1863 7.22C35.1863 8.05067 35.3706 8.69467 35.7393 9.152C36.1079 9.60467 36.6399 9.831 37.3353 9.831C37.7926 9.831 38.1869 9.72833 38.5183 9.523C38.8543 9.313 39.1156 9.01433 39.3023 8.627L40.7373 9.082C40.4433 9.75867 39.9976 10.2837 39.4003 10.657C38.8029 11.0257 38.1379 11.21 37.4053 11.21ZM34.7103 7.633V6.492H40.1073V7.633H34.7103Z" fill="#76A241"/>
</svg>
