<svg width="43" height="12" viewBox="0 0 43 12" fill="none" xmlns="http://www.w3.org/2000/svg">
<path d="M4.263 11.21C3.507 11.21 2.85133 11.0397 2.296 10.699C1.74067 10.3583 1.31133 9.88933 1.008 9.292C0.709333 8.69 0.56 7.997 0.56 7.213C0.56 6.42433 0.714 5.73133 1.022 5.134C1.33 4.532 1.76167 4.06533 2.317 3.734C2.87233 3.398 3.521 3.23 4.263 3.23C5.019 3.23 5.67467 3.40033 6.23 3.741C6.78533 4.08167 7.21467 4.55067 7.518 5.148C7.82133 5.74533 7.973 6.43367 7.973 7.213C7.973 8.00167 7.819 8.697 7.511 9.299C7.20767 9.89633 6.77833 10.3653 6.223 10.706C5.66767 11.042 5.01433 11.21 4.263 11.21ZM4.263 9.831C4.98633 9.831 5.52533 9.58833 5.88 9.103C6.23933 8.613 6.419 7.983 6.419 7.213C6.419 6.42433 6.237 5.79433 5.873 5.323C5.51367 4.847 4.977 4.609 4.263 4.609C3.773 4.609 3.36933 4.721 3.052 4.945C2.73467 5.16433 2.499 5.47 2.345 5.862C2.191 6.24933 2.114 6.69967 2.114 7.213C2.114 8.00633 2.296 8.641 2.66 9.117C3.024 9.593 3.55833 9.831 4.263 9.831ZM18.0023 4.616V3.44H19.9623V4.616H18.0023ZM14.7823 11V3.174C14.7823 2.98267 14.7893 2.77967 14.8033 2.565C14.8173 2.34567 14.8569 2.131 14.9223 1.921C14.9923 1.70633 15.1066 1.51033 15.2653 1.333C15.4566 1.123 15.6666 0.973666 15.8953 0.885C16.1239 0.796333 16.3503 0.744999 16.5743 0.730999C16.8029 0.717 17.0129 0.71 17.2043 0.71H18.1563V1.914H17.2743C16.9289 1.914 16.6699 2.00033 16.4973 2.173C16.3293 2.341 16.2452 2.58133 16.2452 2.894V11H14.7823ZM13.5293 4.616V3.44H18.1563V4.616H13.5293ZM19.8713 11V0.71H21.3343V11H19.8713ZM10.2043 11V3.174C10.2043 2.98267 10.2113 2.77967 10.2253 2.565C10.2393 2.34567 10.2789 2.131 10.3443 1.921C10.4143 1.70633 10.5286 1.51033 10.6873 1.333C10.8786 1.123 11.0886 0.973666 11.3173 0.885C11.5459 0.796333 11.7723 0.744999 11.9963 0.730999C12.2249 0.717 12.4349 0.71 12.6263 0.71H13.5783V1.914H12.6963C12.3509 1.914 12.0919 2.00033 11.9193 2.173C11.7513 2.341 11.6673 2.58133 11.6673 2.894V11H10.2043ZM8.95125 4.616V3.44H13.5783V4.616H8.95125ZM23.5692 2.201V0.78H25.0322V2.201H23.5692ZM23.5692 11V3.44H25.0322V11H23.5692ZM32.4403 11V7.283C32.4403 6.989 32.4146 6.688 32.3633 6.38C32.3166 6.06733 32.2233 5.778 32.0833 5.512C31.948 5.246 31.7543 5.03133 31.5023 4.868C31.255 4.70467 30.9306 4.623 30.5293 4.623C30.268 4.623 30.0206 4.66733 29.7873 4.756C29.554 4.84 29.3486 4.97767 29.1713 5.169C28.9986 5.36033 28.861 5.61233 28.7583 5.925C28.6603 6.23767 28.6113 6.618 28.6113 7.066L27.7013 6.723C27.7013 6.037 27.8296 5.43267 28.0863 4.91C28.343 4.38267 28.7116 3.972 29.1923 3.678C29.673 3.384 30.254 3.237 30.9353 3.237C31.458 3.237 31.8966 3.321 32.2513 3.489C32.606 3.657 32.893 3.87867 33.1123 4.154C33.3363 4.42467 33.5066 4.721 33.6233 5.043C33.74 5.365 33.8193 5.68 33.8613 5.988C33.9033 6.296 33.9243 6.56667 33.9243 6.8V11H32.4403ZM27.1273 11V3.44H28.4363V5.624H28.6113V11H27.1273ZM39.0049 11.21C38.2535 11.21 37.5932 11.0467 37.0239 10.72C36.4592 10.3887 36.0182 9.929 35.7009 9.341C35.3882 8.74833 35.2319 8.06233 35.2319 7.283C35.2319 6.457 35.3859 5.74067 35.6939 5.134C36.0065 4.52733 36.4405 4.05833 36.9959 3.727C37.5512 3.39567 38.1975 3.23 38.9349 3.23C39.7049 3.23 40.3605 3.40967 40.9019 3.769C41.4432 4.12367 41.8469 4.63 42.1129 5.288C42.3835 5.946 42.4909 6.72767 42.4349 7.633H40.9719V7.101C40.9625 6.22367 40.7945 5.575 40.4679 5.155C40.1459 4.735 39.6535 4.525 38.9909 4.525C38.2582 4.525 37.7075 4.756 37.3389 5.218C36.9702 5.68 36.7859 6.34733 36.7859 7.22C36.7859 8.05067 36.9702 8.69467 37.3389 9.152C37.7075 9.60467 38.2395 9.831 38.9349 9.831C39.3922 9.831 39.7865 9.72833 40.1179 9.523C40.4539 9.313 40.7152 9.01433 40.9019 8.627L42.3369 9.082C42.0429 9.75867 41.5972 10.2837 40.9999 10.657C40.4025 11.0257 39.7375 11.21 39.0049 11.21ZM36.3099 7.633V6.492H41.7069V7.633H36.3099Z" fill="#FF6664"/>
</svg>
