<svg width="20" height="20" viewBox="0 0 20 20" fill="none" xmlns="http://www.w3.org/2000/svg">
<path d="M7.25768 6.42502L9.16602 4.50835V12.5C9.16602 12.721 9.25381 12.933 9.41009 13.0893C9.56637 13.2456 9.77834 13.3333 9.99935 13.3333C10.2204 13.3333 10.4323 13.2456 10.5886 13.0893C10.7449 12.933 10.8327 12.721 10.8327 12.5V4.50835L12.741 6.42502C12.8185 6.50312 12.9107 6.56512 13.0122 6.60742C13.1138 6.64973 13.2227 6.67151 13.3327 6.67151C13.4427 6.67151 13.5516 6.64973 13.6532 6.60742C13.7547 6.56512 13.8469 6.50312 13.9243 6.42502C14.0025 6.34755 14.0645 6.25538 14.1068 6.15383C14.1491 6.05228 14.1708 5.94336 14.1708 5.83335C14.1708 5.72334 14.1491 5.61442 14.1068 5.51287C14.0645 5.41132 14.0025 5.31915 13.9243 5.24168L10.591 1.90835C10.5118 1.83248 10.4183 1.77301 10.316 1.73335C10.1131 1.65 9.88557 1.65 9.68268 1.73335C9.58039 1.77301 9.48694 1.83248 9.40768 1.90835L6.07435 5.24168C5.99665 5.31938 5.93502 5.41162 5.89297 5.51314C5.85092 5.61466 5.82927 5.72347 5.82927 5.83335C5.82927 5.94323 5.85092 6.05204 5.89297 6.15356C5.93502 6.25507 5.99665 6.34732 6.07435 6.42502C6.15205 6.50271 6.24429 6.56435 6.34581 6.6064C6.44733 6.64845 6.55613 6.67009 6.66602 6.67009C6.7759 6.67009 6.88471 6.64845 6.98622 6.6064C7.08774 6.56435 7.17998 6.50271 7.25768 6.42502ZM17.4993 11.6667C17.2783 11.6667 17.0664 11.7545 16.9101 11.9108C16.7538 12.067 16.666 12.279 16.666 12.5V15.8333C16.666 16.0544 16.5782 16.2663 16.4219 16.4226C16.2657 16.5789 16.0537 16.6667 15.8327 16.6667H4.16602C3.945 16.6667 3.73304 16.5789 3.57676 16.4226C3.42048 16.2663 3.33268 16.0544 3.33268 15.8333V12.5C3.33268 12.279 3.24489 12.067 3.0886 11.9108C2.93232 11.7545 2.72036 11.6667 2.49935 11.6667C2.27834 11.6667 2.06637 11.7545 1.91009 11.9108C1.75381 12.067 1.66602 12.279 1.66602 12.5V15.8333C1.66602 16.4964 1.92941 17.1323 2.39825 17.6011C2.86709 18.07 3.50297 18.3333 4.16602 18.3333H15.8327C16.4957 18.3333 17.1316 18.07 17.6005 17.6011C18.0693 17.1323 18.3327 16.4964 18.3327 15.8333V12.5C18.3327 12.279 18.2449 12.067 18.0886 11.9108C17.9323 11.7545 17.7204 11.6667 17.4993 11.6667Z" fill="#777C8B"/>
</svg>
