<svg width="11" height="24" viewBox="0 0 11 24" fill="none" xmlns="http://www.w3.org/2000/svg">
<path d="M5.392 20.932C4.53867 20.932 3.792 20.7533 3.152 20.396C2.512 20.0386 2.01333 19.54 1.656 18.9C1.29867 18.26 1.12 17.5133 1.12 16.66V13.204C1.12 12.3506 1.29867 11.604 1.656 10.964C2.01333 10.324 2.512 9.82529 3.152 9.46795C3.792 9.11062 4.53867 8.93196 5.392 8.93196C6.24533 8.93196 6.992 9.11062 7.632 9.46795C8.272 9.82529 8.77067 10.324 9.128 10.964C9.48533 11.604 9.664 12.3506 9.664 13.204V16.66C9.664 17.5133 9.48533 18.26 9.128 18.9C8.77067 19.54 8.272 20.0386 7.632 20.396C6.992 20.7533 6.24533 20.932 5.392 20.932ZM5.392 18.868C5.776 18.868 6.12267 18.7773 6.432 18.596C6.74133 18.4146 6.98667 18.1693 7.168 17.86C7.34933 17.5506 7.44 17.204 7.44 16.82V13.028C7.44 12.644 7.34933 12.2973 7.168 11.988C6.98667 11.6786 6.74133 11.4333 6.432 11.252C6.12267 11.0706 5.776 10.98 5.392 10.98C5.008 10.98 4.66133 11.0706 4.352 11.252C4.04267 11.4333 3.79733 11.6786 3.616 11.988C3.43467 12.2973 3.344 12.644 3.344 13.028V16.82C3.344 17.204 3.43467 17.5506 3.616 17.86C3.79733 18.1693 4.04267 18.4146 4.352 18.596C4.66133 18.7773 5.008 18.868 5.392 18.868Z" fill="#777C8B"/>
<rect x="4" width="2" height="6.46154" fill="#777C8B"/>
</svg>
