<svg width="20" height="20" viewBox="0 0 20 20" fill="none" xmlns="http://www.w3.org/2000/svg">
<path d="M9.16602 7.50001H12.4993C12.7204 7.50001 12.9323 7.41221 13.0886 7.25593C13.2449 7.09965 13.3327 6.88769 13.3327 6.66667C13.3327 6.44566 13.2449 6.2337 13.0886 6.07742C12.9323 5.92114 12.7204 5.83334 12.4993 5.83334H10.8327V5.00001C10.8327 4.77899 10.7449 4.56703 10.5886 4.41075C10.4323 4.25447 10.2204 4.16667 9.99935 4.16667C9.77834 4.16667 9.56637 4.25447 9.41009 4.41075C9.25381 4.56703 9.16602 4.77899 9.16602 5.00001V5.83334C8.50297 5.83334 7.86709 6.09673 7.39825 6.56557C6.92941 7.03441 6.66602 7.6703 6.66602 8.33334C6.66602 8.99638 6.92941 9.63227 7.39825 10.1011C7.86709 10.5699 8.50297 10.8333 9.16602 10.8333H10.8327C11.0537 10.8333 11.2657 10.9211 11.4219 11.0774C11.5782 11.2337 11.666 11.4457 11.666 11.6667C11.666 11.8877 11.5782 12.0996 11.4219 12.2559C11.2657 12.4122 11.0537 12.5 10.8327 12.5H7.49935C7.27834 12.5 7.06637 12.5878 6.91009 12.7441C6.75381 12.9004 6.66602 13.1123 6.66602 13.3333C6.66602 13.5544 6.75381 13.7663 6.91009 13.9226C7.06637 14.0789 7.27834 14.1667 7.49935 14.1667H9.16602V15C9.16602 15.221 9.25381 15.433 9.41009 15.5893C9.56637 15.7455 9.77834 15.8333 9.99935 15.8333C10.2204 15.8333 10.4323 15.7455 10.5886 15.5893C10.7449 15.433 10.8327 15.221 10.8327 15V14.1667C11.4957 14.1667 12.1316 13.9033 12.6005 13.4344C13.0693 12.9656 13.3327 12.3297 13.3327 11.6667C13.3327 11.0036 13.0693 10.3677 12.6005 9.8989C12.1316 9.43006 11.4957 9.16667 10.8327 9.16667H9.16602C8.945 9.16667 8.73304 9.07887 8.57676 8.92259C8.42048 8.76631 8.33268 8.55435 8.33268 8.33334C8.33268 8.11233 8.42048 7.90036 8.57676 7.74408C8.73304 7.5878 8.945 7.50001 9.16602 7.50001ZM15.8327 1.66667H4.16602C3.50297 1.66667 2.86709 1.93006 2.39825 2.3989C1.92941 2.86775 1.66602 3.50363 1.66602 4.16667V15.8333C1.66602 16.4964 1.92941 17.1323 2.39825 17.6011C2.86709 18.0699 3.50297 18.3333 4.16602 18.3333H15.8327C16.4957 18.3333 17.1316 18.0699 17.6005 17.6011C18.0693 17.1323 18.3327 16.4964 18.3327 15.8333V4.16667C18.3327 3.50363 18.0693 2.86775 17.6005 2.3989C17.1316 1.93006 16.4957 1.66667 15.8327 1.66667ZM16.666 15.8333C16.666 16.0544 16.5782 16.2663 16.4219 16.4226C16.2657 16.5789 16.0537 16.6667 15.8327 16.6667H4.16602C3.945 16.6667 3.73304 16.5789 3.57676 16.4226C3.42048 16.2663 3.33268 16.0544 3.33268 15.8333V4.16667C3.33268 3.94566 3.42048 3.7337 3.57676 3.57742C3.73304 3.42114 3.945 3.33334 4.16602 3.33334H15.8327C16.0537 3.33334 16.2657 3.42114 16.4219 3.57742C16.5782 3.7337 16.666 3.94566 16.666 4.16667V15.8333Z" fill="#777C8B"/>
</svg>
