<svg width="20" height="20" viewBox="0 0 20 20" fill="none" xmlns="http://www.w3.org/2000/svg">
<path d="M11.366 8.11668L11.1243 9.55835C11.0842 9.80037 11.1139 10.0488 11.2098 10.2746C11.3057 10.5004 11.464 10.6942 11.666 10.8333C11.8551 10.9711 12.0798 11.0514 12.3133 11.0647C12.5468 11.078 12.7792 11.0237 12.9827 10.9083L14.166 10.2333L15.366 10.8917C15.566 11.006 15.7943 11.0612 16.0245 11.0509C16.2546 11.0406 16.4771 10.9651 16.666 10.8333C16.8622 10.6934 17.0153 10.5015 17.1081 10.2791C17.2008 10.0567 17.2296 9.81285 17.191 9.57501L16.9493 8.13335L17.9494 7.11668C18.1144 6.94895 18.2301 6.73908 18.2839 6.51001C18.3377 6.28095 18.3275 6.0415 18.2544 5.81785C18.1812 5.5942 18.048 5.39495 17.8693 5.2419C17.6906 5.08884 17.4733 4.98787 17.241 4.95001L15.891 4.75001L15.2827 3.45835C15.1822 3.24245 15.0222 3.05973 14.8214 2.9317C14.6206 2.80367 14.3875 2.73566 14.1493 2.73566C13.9112 2.73566 13.6781 2.80367 13.4773 2.9317C13.2765 3.05973 13.1165 3.24245 13.016 3.45835L12.4077 4.75001L11.0577 4.95001C10.8254 4.98787 10.6081 5.08884 10.4294 5.2419C10.2507 5.39495 10.1175 5.5942 10.0443 5.81785C9.97123 6.0415 9.96101 6.28095 10.0148 6.51001C10.0686 6.73908 10.1843 6.94895 10.3493 7.11668L11.366 8.11668ZM12.891 6.34168C13.0954 6.31071 13.2889 6.22988 13.4546 6.10634C13.6203 5.9828 13.753 5.82035 13.841 5.63335L14.166 4.94168L14.491 5.63335C14.5803 5.82022 14.7132 5.98287 14.8786 6.1076C15.0439 6.23233 15.2368 6.31547 15.441 6.35001L16.2744 6.46668L15.666 7.08335C15.525 7.22953 15.42 7.40655 15.3592 7.60037C15.2985 7.79419 15.2837 7.99949 15.316 8.20001L15.4494 9.03335L14.791 8.67501C14.6075 8.57285 14.401 8.51923 14.191 8.51923C13.981 8.51923 13.7745 8.57285 13.591 8.67501L12.9327 9.03335L13.066 8.20001C13.099 8.00076 13.0845 7.79654 13.0237 7.60395C12.9629 7.41137 12.8575 7.23585 12.716 7.09168L12.1077 6.46668L12.891 6.34168ZM17.4993 12.7167C17.2783 12.7167 17.0664 12.8045 16.9101 12.9608C16.7538 13.117 16.666 13.329 16.666 13.55V16.05C16.666 16.271 16.5782 16.483 16.4219 16.6393C16.2657 16.7955 16.0537 16.8833 15.8327 16.8833H4.16602C3.945 16.8833 3.73304 16.7955 3.57676 16.6393C3.42048 16.483 3.33268 16.271 3.33268 16.05V8.05835L8.23268 12.9583C8.46097 13.1908 8.73332 13.3754 9.03381 13.5013C9.3343 13.6272 9.65688 13.6919 9.98268 13.6917H10.2077C10.4275 13.6726 10.6307 13.5671 10.7729 13.3984C10.915 13.2297 10.9845 13.0115 10.966 12.7917C10.9566 12.6821 10.9256 12.5754 10.8747 12.4779C10.8239 12.3803 10.7542 12.2938 10.6698 12.2233C10.5854 12.1528 10.4878 12.0997 10.3827 12.0671C10.2777 12.0345 10.1672 12.023 10.0577 12.0333C9.94005 12.0454 9.82122 12.0307 9.71009 11.9903C9.59896 11.9499 9.49842 11.8848 9.41602 11.8L4.50768 6.88335H7.49935C7.72036 6.88335 7.93232 6.79555 8.0886 6.63927C8.24488 6.48299 8.33268 6.27103 8.33268 6.05001C8.33268 5.829 8.24488 5.61704 8.0886 5.46076C7.93232 5.30448 7.72036 5.21668 7.49935 5.21668H4.16602C3.50297 5.21668 2.86709 5.48007 2.39825 5.94891C1.92941 6.41775 1.66602 7.05364 1.66602 7.71668V16.05C1.66602 16.7131 1.92941 17.3489 2.39825 17.8178C2.86709 18.2866 3.50297 18.55 4.16602 18.55H15.8327C16.4957 18.55 17.1316 18.2866 17.6005 17.8178C18.0693 17.3489 18.3327 16.7131 18.3327 16.05V13.55C18.3327 13.329 18.2449 13.117 18.0886 12.9608C17.9323 12.8045 17.7204 12.7167 17.4993 12.7167Z" fill="#777C8B"/>
</svg>
