<svg width="20" height="20" viewBox="0 0 20 20" fill="none" xmlns="http://www.w3.org/2000/svg">
<path d="M10.0007 10.8333C9.77964 10.8333 9.56768 10.9211 9.4114 11.0774C9.25512 11.2337 9.16732 11.4456 9.16732 11.6667V14.1667C9.16732 14.3877 9.25512 14.5996 9.4114 14.7559C9.56768 14.9122 9.77964 15 10.0007 15C10.2217 15 10.4336 14.9122 10.5899 14.7559C10.7462 14.5996 10.834 14.3877 10.834 14.1667V11.6667C10.834 11.4456 10.7462 11.2337 10.5899 11.0774C10.4336 10.9211 10.2217 10.8333 10.0007 10.8333ZM14.1673 7.49999H7.50065V5.83333C7.49944 5.33848 7.6451 4.85441 7.9192 4.44241C8.1933 4.03042 8.5835 3.70903 9.04039 3.51896C9.49727 3.32889 10.0003 3.27868 10.4857 3.3747C10.9712 3.47072 11.4172 3.70864 11.7673 4.05833C12.0806 4.37838 12.3047 4.77485 12.4173 5.20833C12.4447 5.31448 12.4927 5.4142 12.5586 5.50181C12.6245 5.58941 12.707 5.66317 12.8014 5.71889C12.8958 5.7746 13.0002 5.81118 13.1088 5.82652C13.2173 5.84187 13.3278 5.83569 13.434 5.80833C13.5401 5.78097 13.6399 5.73297 13.7275 5.66707C13.8151 5.60117 13.8888 5.51867 13.9445 5.42426C14.0003 5.32985 14.0368 5.2254 14.0522 5.11686C14.0675 5.00831 14.0613 4.89781 14.034 4.79166C13.8441 4.07066 13.4676 3.41244 12.9423 2.88333C12.3591 2.30197 11.6168 1.90644 10.8089 1.7467C10.0011 1.58695 9.1641 1.67015 8.40353 1.98579C7.64297 2.30143 6.99299 2.83535 6.53566 3.52014C6.07833 4.20493 5.83416 5.00987 5.83398 5.83333V7.49999C5.17094 7.49999 4.53506 7.76339 4.06622 8.23223C3.59738 8.70107 3.33398 9.33695 3.33398 9.99999V15.8333C3.33398 16.4964 3.59738 17.1323 4.06622 17.6011C4.53506 18.0699 5.17094 18.3333 5.83398 18.3333H14.1673C14.8304 18.3333 15.4662 18.0699 15.9351 17.6011C16.4039 17.1323 16.6673 16.4964 16.6673 15.8333V9.99999C16.6673 9.33695 16.4039 8.70107 15.9351 8.23223C15.4662 7.76339 14.8304 7.49999 14.1673 7.49999ZM15.0007 15.8333C15.0007 16.0543 14.9129 16.2663 14.7566 16.4226C14.6003 16.5789 14.3883 16.6667 14.1673 16.6667H5.83398C5.61297 16.6667 5.40101 16.5789 5.24473 16.4226C5.08845 16.2663 5.00065 16.0543 5.00065 15.8333V9.99999C5.00065 9.77898 5.08845 9.56702 5.24473 9.41074C5.40101 9.25446 5.61297 9.16666 5.83398 9.16666H14.1673C14.3883 9.16666 14.6003 9.25446 14.7566 9.41074C14.9129 9.56702 15.0007 9.77898 15.0007 9.99999V15.8333Z" fill="#76A241"/>
</svg>
