<svg width="20" height="20" viewBox="0 0 20 20" fill="none" xmlns="http://www.w3.org/2000/svg">
<path d="M10.0007 10.8333C9.74694 10.8304 9.49841 10.9052 9.28852 11.0477C9.07863 11.1903 8.91744 11.3937 8.82666 11.6307C8.73588 11.8676 8.71987 12.1266 8.78077 12.373C8.84168 12.6193 8.97658 12.841 9.16732 13.0083V14.1667C9.16732 14.3877 9.25512 14.5996 9.4114 14.7559C9.56768 14.9122 9.77964 15 10.0007 15C10.2217 15 10.4336 14.9122 10.5899 14.7559C10.7462 14.5996 10.834 14.3877 10.834 14.1667V13.0083C11.0247 12.841 11.1596 12.6193 11.2205 12.373C11.2814 12.1266 11.2654 11.8676 11.1746 11.6307C11.0839 11.3937 10.9227 11.1903 10.7128 11.0477C10.5029 10.9052 10.2544 10.8304 10.0007 10.8333ZM14.1673 7.49999V5.83332C14.1673 4.72825 13.7283 3.66845 12.9469 2.88704C12.1655 2.10564 11.1057 1.66666 10.0007 1.66666C8.89558 1.66666 7.83577 2.10564 7.05437 2.88704C6.27297 3.66845 5.83398 4.72825 5.83398 5.83332V7.49999C5.17094 7.49999 4.53506 7.76338 4.06622 8.23222C3.59738 8.70106 3.33398 9.33695 3.33398 9.99999V15.8333C3.33398 16.4964 3.59738 17.1322 4.06622 17.6011C4.53506 18.0699 5.17094 18.3333 5.83398 18.3333H14.1673C14.8304 18.3333 15.4662 18.0699 15.9351 17.6011C16.4039 17.1322 16.6673 16.4964 16.6673 15.8333V9.99999C16.6673 9.33695 16.4039 8.70106 15.9351 8.23222C15.4662 7.76338 14.8304 7.49999 14.1673 7.49999ZM7.50065 5.83332C7.50065 5.17028 7.76404 4.5344 8.23288 4.06556C8.70172 3.59672 9.33761 3.33332 10.0007 3.33332C10.6637 3.33332 11.2996 3.59672 11.7684 4.06556C12.2373 4.5344 12.5007 5.17028 12.5007 5.83332V7.49999H7.50065V5.83332ZM15.0007 15.8333C15.0007 16.0543 14.9129 16.2663 14.7566 16.4226C14.6003 16.5789 14.3883 16.6667 14.1673 16.6667H5.83398C5.61297 16.6667 5.40101 16.5789 5.24473 16.4226C5.08845 16.2663 5.00065 16.0543 5.00065 15.8333V9.99999C5.00065 9.77898 5.08845 9.56702 5.24473 9.41073C5.40101 9.25445 5.61297 9.16666 5.83398 9.16666H14.1673C14.3883 9.16666 14.6003 9.25445 14.7566 9.41073C14.9129 9.56702 15.0007 9.77898 15.0007 9.99999V15.8333Z" fill="#FF6664"/>
</svg>
