<svg width="20" height="20" viewBox="0 0 20 20" fill="none" xmlns="http://www.w3.org/2000/svg">
<circle cx="10" cy="10" r="10" fill="#777C8B"/>
<path d="M4.33398 13.3336V12.392C4.46176 12.4003 4.5701 12.3892 4.65898 12.3586C4.74787 12.3281 4.82287 12.2725 4.88398 12.192C4.94787 12.1086 5.00343 11.9948 5.05065 11.8503C5.09787 11.7031 5.14232 11.5198 5.18398 11.3003C5.25065 10.9531 5.30621 10.5878 5.35065 10.2045C5.39787 9.81837 5.43676 9.44059 5.46732 9.07115C5.49787 8.7017 5.52148 8.36559 5.53815 8.06281C5.55482 7.75726 5.56732 7.5142 5.57565 7.33365H9.66732V13.3336H8.53399V8.39198H6.61732C6.60621 8.54754 6.59093 8.75032 6.57148 9.00032C6.55482 9.25032 6.53121 9.5267 6.50065 9.82948C6.4701 10.1323 6.4326 10.4461 6.38815 10.7711C6.34371 11.0961 6.28954 11.4114 6.22565 11.717C6.16732 12.0142 6.09648 12.2781 6.01315 12.5086C5.92982 12.7364 5.81871 12.9239 5.67982 13.0711C5.54371 13.2156 5.36732 13.3114 5.15065 13.3586C4.93398 13.4059 4.66176 13.3975 4.33398 13.3336Z" fill="white"/>
<path d="M13.4129 13.4586C12.8129 13.4586 12.2948 13.3281 11.8587 13.067C11.4254 12.8059 11.0907 12.4406 10.8546 11.9711C10.6212 11.5017 10.5046 10.9559 10.5046 10.3336C10.5046 9.71143 10.6212 9.16559 10.8546 8.69615C11.0907 8.2267 11.4254 7.86143 11.8587 7.60032C12.2948 7.3392 12.8129 7.20865 13.4129 7.20865C14.1018 7.20865 14.6796 7.37948 15.1462 7.72115C15.6157 8.06282 15.9462 8.52532 16.1379 9.10865L14.9962 9.42532C14.8851 9.06143 14.6976 8.77948 14.4337 8.57948C14.1698 8.3767 13.8296 8.27531 13.4129 8.27531C13.0323 8.27531 12.7143 8.36004 12.4587 8.52948C12.2059 8.69893 12.0157 8.93782 11.8879 9.24615C11.7601 9.55448 11.6962 9.91698 11.6962 10.3336C11.6962 10.7503 11.7601 11.1128 11.8879 11.4211C12.0157 11.7295 12.2059 11.9684 12.4587 12.1378C12.7143 12.3073 13.0323 12.392 13.4129 12.392C13.8296 12.392 14.1698 12.2906 14.4337 12.0878C14.6976 11.885 14.8851 11.6031 14.9962 11.242L16.1379 11.5586C15.9462 12.142 15.6157 12.6045 15.1462 12.9461C14.6796 13.2878 14.1018 13.4586 13.4129 13.4586Z" fill="white"/>
</svg>
