<svg width="21" height="18" viewBox="0 0 21 18" fill="none" xmlns="http://www.w3.org/2000/svg">
<path fill-rule="evenodd" clip-rule="evenodd" d="M2.30615 7.8879C7.40641 5.62993 10.8074 4.14133 12.5091 3.42212C17.3677 1.36862 18.3773 1.0119 19.0354 1.00013C19.1801 0.997535 19.5037 1.03398 19.7133 1.20682C19.8903 1.35275 19.939 1.5499 19.9623 1.68826C19.9856 1.82663 20.0146 2.14183 19.9916 2.38811C19.7283 5.1992 18.589 12.021 18.0094 15.1694C17.7642 16.5017 17.2813 16.9484 16.8138 16.9921C15.7978 17.0871 15.0263 16.3098 14.0422 15.6543C12.5024 14.6287 11.6325 13.9902 10.1378 12.9893C8.4105 11.8327 9.53027 11.1969 10.5147 10.158C10.7723 9.88609 15.2488 5.74868 15.3354 5.37335C15.3463 5.32641 15.3563 5.15143 15.254 5.05904C15.1517 4.96664 15.0007 4.99824 14.8918 5.02337C14.7373 5.05898 12.2775 6.71112 7.51212 9.97978C6.81389 10.467 6.18145 10.7044 5.61481 10.6919C4.99014 10.6782 3.78851 10.333 2.89523 10.038C1.79958 9.67605 0.928776 9.48471 1.0046 8.87009C1.0441 8.54996 1.47795 8.22256 2.30615 7.8879Z" stroke="#FF6664" stroke-width="1.5"/>
</svg>
