<svg width="24" height="24" viewBox="0 0 24 24" fill="none" xmlns="http://www.w3.org/2000/svg">
<path fill-rule="evenodd" clip-rule="evenodd" d="M4.53818 3.87165C5.73532 2.67451 7.67419 2.73008 8.86821 3.9241L10.8613 5.91718C12.0553 7.1112 12.1109 9.05008 10.9137 10.2472L10.6374 10.5236C10.4291 10.7318 10.4067 11.0695 10.6046 11.3093C11.0218 11.8148 11.4692 12.3155 11.9522 12.7986C12.4353 13.2817 12.936 13.7291 13.4415 14.1462C13.6814 14.3441 14.019 14.3217 14.2272 14.1135L14.5036 13.8371C15.7008 12.64 17.6396 12.6955 18.8337 13.8895L20.8267 15.8826C22.0208 17.0766 22.0763 19.0155 20.8792 20.2127L19.5924 21.4994C18.2847 22.8071 16.1453 22.7013 14.0638 21.9376C11.9173 21.1501 9.52188 19.5667 7.35299 17.3979C5.18409 15.229 3.60079 12.8335 2.81323 10.687C2.04952 8.60552 1.9437 6.46614 3.25142 5.15842L4.53818 3.87165ZM7.80755 4.98476C7.16698 4.34419 6.17837 4.35278 5.59884 4.93231L4.31208 6.21907C4.31208 6.21907 4.31208 6.21907 4.31208 6.21907C3.66548 6.86567 3.50067 8.20591 4.22144 10.1703C4.91835 12.0698 6.36299 14.2865 8.41365 16.3372C10.4643 18.3878 12.6811 19.8325 14.5805 20.5294C16.5449 21.2502 17.8852 21.0854 18.5318 20.4388L19.8185 19.152C20.3981 18.5725 20.4067 17.5839 19.7661 16.9433L17.773 14.9502C17.1324 14.3096 16.1438 14.3182 15.5643 14.8977L15.2879 15.1741C14.5369 15.9251 13.3271 15.9966 12.4868 15.3032C11.9505 14.8606 11.4135 14.3811 10.8916 13.8592C10.3697 13.3374 9.89027 12.8004 9.44768 12.264C8.75428 11.4238 8.82569 10.2139 9.5767 9.46293L9.85309 9.18655C10.4326 8.60703 10.4412 7.61841 9.80064 6.97784L7.80755 4.98476Z" fill="#E44A48"/>
<path opacity="0.3" fill-rule="evenodd" clip-rule="evenodd" d="M14.3126 6.76657C14.478 6.38686 14.92 6.21319 15.2997 6.37869C15.9418 6.65854 16.5426 7.06087 17.066 7.5843C17.6208 8.13912 18.0395 8.78071 18.3205 9.46623C18.4777 9.84949 18.2943 10.2876 17.9111 10.4447C17.5278 10.6018 17.0898 10.4185 16.9326 10.0352C16.7257 9.53035 16.4171 9.0567 16.0054 8.64496C15.6168 8.25643 15.1732 7.95983 14.7004 7.75376C14.3207 7.58827 14.1471 7.14629 14.3126 6.76657Z" fill="#161A26"/>
<path opacity="0.3" fill-rule="evenodd" clip-rule="evenodd" d="M14.2949 3.40795C14.436 3.01851 14.8661 2.81717 15.2555 2.95826C16.6913 3.47842 18.0379 4.31402 19.1872 5.46332C20.3654 6.64149 21.2139 8.02696 21.7308 9.50326C21.8677 9.89419 21.6618 10.3221 21.2709 10.459C20.8799 10.5959 20.452 10.3899 20.3151 9.99901C19.871 8.7307 19.1421 7.53949 18.1266 6.52398C17.1359 5.5333 15.978 4.81542 14.7446 4.36857C14.3551 4.22748 14.1538 3.7974 14.2949 3.40795Z" fill="#161A26"/>
</svg>
